<svg width="81" height="92" viewBox="0 0 81 92" fill="none" xmlns="http://www.w3.org/2000/svg">
<mask id="path-1-outside-1_45_11615" maskUnits="userSpaceOnUse" x="23.6602" y="0" width="41" height="87" fill="black">
<rect fill="white" x="23.6602" width="41" height="87"/>
<path d="M38.7755 82.5398C38.7245 82.5823 38.682 82.6163 38.631 82.6588C38.5715 82.7013 38.5205 82.7353 38.461 82.7778C37.8489 83.2539 37.2113 83.6704 36.4887 83.9595C36.3102 83.8065 36.2677 83.6279 36.3187 83.3814C36.5142 82.4718 36.7437 81.5622 36.8543 80.627C36.9818 79.5474 36.7438 78.5102 36.7523 77.4476C36.7523 77.4306 36.7437 77.4136 36.7352 77.3966C36.5142 76.3594 36.3187 75.3138 36.0552 74.2851C35.7066 72.9249 35.3156 71.5733 34.899 70.2386C34.6185 69.3289 34.2699 68.4448 33.9384 67.5522C33.8278 67.2461 33.6748 66.9656 33.5558 66.6596C33.4623 66.43 33.3943 66.192 33.3178 65.954C33.2753 65.818 33.2413 65.6819 33.1988 65.5459C33.0967 65.2739 32.9862 65.0103 32.8927 64.7468C32.5612 63.8372 32.2296 62.919 31.8981 62.0009C31.4985 60.8788 31.082 59.7651 30.6909 58.6429C30.4444 57.9118 30.2318 57.1637 30.0108 56.4241C29.7133 55.421 29.3817 54.4349 29.1182 53.4232C28.8887 52.5221 28.7271 51.5955 28.5571 50.6773C28.4296 50.0057 28.3276 49.3341 28.2171 48.654C28.115 47.9995 28.013 47.3364 27.9365 46.6818C27.843 45.8742 27.69 45.075 27.6985 44.2674C27.707 41.4875 27.52 38.7077 27.9025 35.9363C27.979 35.3667 28.0385 34.7971 28.115 34.2275C28.2171 33.4964 28.3106 32.7653 28.4466 32.0427C28.5911 31.2861 28.7696 30.5295 28.9567 29.7814C29.1352 29.0843 29.3392 28.3957 29.5347 27.7071C29.7048 27.1205 29.8578 26.5255 30.0618 25.9474C30.2658 25.3693 30.5379 24.8167 30.7589 24.2471C30.8099 24.1196 30.7844 23.9666 30.7929 23.8221C30.7929 23.7881 30.8099 23.7626 30.8354 23.7456C31.2605 23.4395 31.3795 22.9975 31.4305 22.5129C31.4475 22.4534 31.456 22.3854 31.473 22.3259C31.7876 22.1048 31.8386 21.7733 31.8641 21.4332C31.8896 21.3652 31.9066 21.3057 31.9321 21.2377C31.9491 21.2037 31.9661 21.1697 31.9831 21.1272C32.0341 21.0167 32.0851 20.9062 32.1361 20.8042C32.3486 20.6681 32.4592 20.4896 32.3911 20.2346C32.6207 19.7755 32.8587 19.3079 33.0882 18.8489L33.0967 18.8319C33.1733 18.6959 33.2498 18.5598 33.3263 18.4238C33.4878 18.4068 33.5303 18.3218 33.4878 18.1773C33.5983 17.9648 33.7088 17.7522 33.8278 17.5312C34.0234 17.4972 34.0914 17.3867 34.0319 17.1997C34.0999 17.0636 34.1679 16.9276 34.2444 16.7916C34.2784 16.7746 34.2954 16.7491 34.2869 16.7151L34.3124 16.6811C34.4739 16.6726 34.5164 16.5876 34.4654 16.443C34.5504 16.307 34.6355 16.1625 34.7205 16.0265C34.7545 15.967 34.797 15.9075 34.831 15.848C34.933 15.6609 35.035 15.4654 35.1285 15.2784C35.154 15.2699 35.1625 15.2444 35.1625 15.2189C35.5026 14.7003 35.8426 14.1817 36.1827 13.6547C36.2422 13.5696 36.3017 13.4846 36.3697 13.3996C36.9818 12.49 37.5684 11.5549 38.2145 10.6707C39.6852 8.65596 41.2579 6.72619 43.0431 4.96644C43.6892 4.32885 44.3948 3.76777 45.2619 3.44473C46.6221 2.93466 48.0078 2.86665 49.4105 3.2237C52.522 4.02281 54.9873 5.87607 57.2401 8.05237C58.3198 9.09802 59.3144 10.2032 60.241 11.3848C60.5046 11.7249 60.8446 12.0054 61.1507 12.3115C61.2527 12.7365 61.3547 13.1616 61.4737 13.6802C61.2952 13.5356 61.1677 13.4506 61.0657 13.3401C59.765 11.9629 58.2688 10.8408 56.696 9.82062C55.6249 9.12352 54.5367 8.46043 53.4486 7.78033C51.5613 6.60717 49.5805 5.68054 47.4042 5.14497C46.5031 4.92394 45.6445 4.88993 44.7689 5.20447C43.9443 5.49351 43.3747 6.03759 42.9751 6.8112C42.5161 7.70382 42.312 8.66446 42.1505 9.62509C41.9975 10.5262 41.853 11.4273 41.768 12.3455C41.6999 13.0936 41.5724 13.8417 41.5894 14.6068C41.5894 14.6578 41.5894 14.7173 41.5809 14.7683C41.3004 16.2645 41.3344 17.7862 41.2919 19.2909C41.2324 21.5778 41.3344 23.8731 41.3854 26.1684C41.3854 26.4915 41.4449 26.8145 41.4704 27.1375C41.5129 27.6901 41.5554 28.2512 41.5979 28.8038C41.6064 28.9653 41.5979 29.1268 41.6319 29.2883C41.7594 30.1385 41.9125 30.9886 42.0315 31.8472C42.312 33.9215 42.8221 35.9448 43.2642 37.9766C43.3322 38.3081 43.4002 38.6397 43.5022 38.9712C43.7232 39.7278 43.9698 40.4844 44.1908 41.241C44.5138 42.3292 44.8199 43.4173 45.1514 44.497C45.364 45.1856 45.6105 45.8657 45.8315 46.5458C46.1886 47.6764 46.5286 48.8071 46.8857 49.9377C47.2427 51.0684 47.6593 52.182 47.9568 53.3297C48.2969 54.6389 48.5519 55.9651 48.8154 57.2828C49.0705 58.5409 49.232 59.8076 49.1895 61.0913C49.1555 62.1539 49.1215 63.2166 49.079 64.2792C49.0365 65.2399 48.8834 66.175 48.6114 67.0931C48.5944 67.1611 48.6454 67.2462 48.6624 67.3312C48.6369 67.3992 48.6199 67.4757 48.5944 67.5437C48.4414 67.6542 48.2799 67.7562 48.4414 67.9773C48.4159 68.0538 48.3989 68.1218 48.3734 68.1983C48.1948 68.3428 48.0843 68.5043 48.2119 68.7339C48.1608 68.9209 48.1183 69.1079 48.0758 69.2949C47.9228 69.3289 47.8973 69.4225 47.9483 69.5585C47.9143 69.686 47.8803 69.822 47.8548 69.9495C47.6763 70.0345 47.5403 70.1451 47.6933 70.3661C47.6763 70.4426 47.6508 70.5191 47.6338 70.5956C47.5488 70.6806 47.4212 70.7401 47.3872 70.8422C46.8517 72.2619 46.1631 73.5965 45.4065 74.8972C45.3214 75.0502 45.2874 75.2288 45.2279 75.3903C44.9899 75.7473 44.7604 76.1044 44.5223 76.4529C44.3438 76.4784 44.3268 76.606 44.3268 76.7505C44.1228 77.0225 43.9188 77.2946 43.7147 77.5666C43.6722 77.6261 43.6212 77.6856 43.5787 77.7451C43.4937 77.8556 43.4087 77.9576 43.3237 78.0682C43.2557 78.1617 43.1962 78.2552 43.1281 78.3487C42.9496 78.5527 42.7711 78.7568 42.5926 78.9523C42.5501 79.0033 42.5161 79.0458 42.4736 79.0968C41.6829 79.8789 40.8838 80.661 40.0932 81.4431C40.0167 81.5111 39.9487 81.5792 39.8722 81.6387C39.5916 81.8682 39.3026 82.0892 39.0221 82.3188C38.9456 82.3783 38.869 82.4463 38.801 82.5058L38.7755 82.5398Z"/>
</mask>
<path d="M38.7755 82.5398C38.7245 82.5823 38.682 82.6163 38.631 82.6588C38.5715 82.7013 38.5205 82.7353 38.461 82.7778C37.8489 83.2539 37.2113 83.6704 36.4887 83.9595C36.3102 83.8065 36.2677 83.6279 36.3187 83.3814C36.5142 82.4718 36.7437 81.5622 36.8543 80.627C36.9818 79.5474 36.7438 78.5102 36.7523 77.4476C36.7523 77.4306 36.7437 77.4136 36.7352 77.3966C36.5142 76.3594 36.3187 75.3138 36.0552 74.2851C35.7066 72.9249 35.3156 71.5733 34.899 70.2386C34.6185 69.3289 34.2699 68.4448 33.9384 67.5522C33.8278 67.2461 33.6748 66.9656 33.5558 66.6596C33.4623 66.43 33.3943 66.192 33.3178 65.954C33.2753 65.818 33.2413 65.6819 33.1988 65.5459C33.0967 65.2739 32.9862 65.0103 32.8927 64.7468C32.5612 63.8372 32.2296 62.919 31.8981 62.0009C31.4985 60.8788 31.082 59.7651 30.6909 58.6429C30.4444 57.9118 30.2318 57.1637 30.0108 56.4241C29.7133 55.421 29.3817 54.4349 29.1182 53.4232C28.8887 52.5221 28.7271 51.5955 28.5571 50.6773C28.4296 50.0057 28.3276 49.3341 28.2171 48.654C28.115 47.9995 28.013 47.3364 27.9365 46.6818C27.843 45.8742 27.69 45.075 27.6985 44.2674C27.707 41.4875 27.52 38.7077 27.9025 35.9363C27.979 35.3667 28.0385 34.7971 28.115 34.2275C28.2171 33.4964 28.3106 32.7653 28.4466 32.0427C28.5911 31.2861 28.7696 30.5295 28.9567 29.7814C29.1352 29.0843 29.3392 28.3957 29.5347 27.7071C29.7048 27.1205 29.8578 26.5255 30.0618 25.9474C30.2658 25.3693 30.5379 24.8167 30.7589 24.2471C30.8099 24.1196 30.7844 23.9666 30.7929 23.8221C30.7929 23.7881 30.8099 23.7626 30.8354 23.7456C31.2605 23.4395 31.3795 22.9975 31.4305 22.5129C31.4475 22.4534 31.456 22.3854 31.473 22.3259C31.7876 22.1048 31.8386 21.7733 31.8641 21.4332C31.8896 21.3652 31.9066 21.3057 31.9321 21.2377C31.9491 21.2037 31.9661 21.1697 31.9831 21.1272C32.0341 21.0167 32.0851 20.9062 32.1361 20.8042C32.3486 20.6681 32.4592 20.4896 32.3911 20.2346C32.6207 19.7755 32.8587 19.3079 33.0882 18.8489L33.0967 18.8319C33.1733 18.6959 33.2498 18.5598 33.3263 18.4238C33.4878 18.4068 33.5303 18.3218 33.4878 18.1773C33.5983 17.9648 33.7088 17.7522 33.8278 17.5312C34.0234 17.4972 34.0914 17.3867 34.0319 17.1997C34.0999 17.0636 34.1679 16.9276 34.2444 16.7916C34.2784 16.7746 34.2954 16.7491 34.2869 16.7151L34.3124 16.6811C34.4739 16.6726 34.5164 16.5876 34.4654 16.443C34.5504 16.307 34.6355 16.1625 34.7205 16.0265C34.7545 15.967 34.797 15.9075 34.831 15.848C34.933 15.6609 35.035 15.4654 35.1285 15.2784C35.154 15.2699 35.1625 15.2444 35.1625 15.2189C35.5026 14.7003 35.8426 14.1817 36.1827 13.6547C36.2422 13.5696 36.3017 13.4846 36.3697 13.3996C36.9818 12.49 37.5684 11.5549 38.2145 10.6707C39.6852 8.65596 41.2579 6.72619 43.0431 4.96644C43.6892 4.32885 44.3948 3.76777 45.2619 3.44473C46.6221 2.93466 48.0078 2.86665 49.4105 3.2237C52.522 4.02281 54.9873 5.87607 57.2401 8.05237C58.3198 9.09802 59.3144 10.2032 60.241 11.3848C60.5046 11.7249 60.8446 12.0054 61.1507 12.3115C61.2527 12.7365 61.3547 13.1616 61.4737 13.6802C61.2952 13.5356 61.1677 13.4506 61.0657 13.3401C59.765 11.9629 58.2688 10.8408 56.696 9.82062C55.6249 9.12352 54.5367 8.46043 53.4486 7.78033C51.5613 6.60717 49.5805 5.68054 47.4042 5.14497C46.5031 4.92394 45.6445 4.88993 44.7689 5.20447C43.9443 5.49351 43.3747 6.03759 42.9751 6.8112C42.5161 7.70382 42.312 8.66446 42.1505 9.62509C41.9975 10.5262 41.853 11.4273 41.768 12.3455C41.6999 13.0936 41.5724 13.8417 41.5894 14.6068C41.5894 14.6578 41.5894 14.7173 41.5809 14.7683C41.3004 16.2645 41.3344 17.7862 41.2919 19.2909C41.2324 21.5778 41.3344 23.8731 41.3854 26.1684C41.3854 26.4915 41.4449 26.8145 41.4704 27.1375C41.5129 27.6901 41.5554 28.2512 41.5979 28.8038C41.6064 28.9653 41.5979 29.1268 41.6319 29.2883C41.7594 30.1385 41.9125 30.9886 42.0315 31.8472C42.312 33.9215 42.8221 35.9448 43.2642 37.9766C43.3322 38.3081 43.4002 38.6397 43.5022 38.9712C43.7232 39.7278 43.9698 40.4844 44.1908 41.241C44.5138 42.3292 44.8199 43.4173 45.1514 44.497C45.364 45.1856 45.6105 45.8657 45.8315 46.5458C46.1886 47.6764 46.5286 48.8071 46.8857 49.9377C47.2427 51.0684 47.6593 52.182 47.9568 53.3297C48.2969 54.6389 48.5519 55.9651 48.8154 57.2828C49.0705 58.5409 49.232 59.8076 49.1895 61.0913C49.1555 62.1539 49.1215 63.2166 49.079 64.2792C49.0365 65.2399 48.8834 66.175 48.6114 67.0931C48.5944 67.1611 48.6454 67.2462 48.6624 67.3312C48.6369 67.3992 48.6199 67.4757 48.5944 67.5437C48.4414 67.6542 48.2799 67.7562 48.4414 67.9773C48.4159 68.0538 48.3989 68.1218 48.3734 68.1983C48.1948 68.3428 48.0843 68.5043 48.2119 68.7339C48.1608 68.9209 48.1183 69.1079 48.0758 69.2949C47.9228 69.3289 47.8973 69.4225 47.9483 69.5585C47.9143 69.686 47.8803 69.822 47.8548 69.9495C47.6763 70.0345 47.5403 70.1451 47.6933 70.3661C47.6763 70.4426 47.6508 70.5191 47.6338 70.5956C47.5488 70.6806 47.4212 70.7401 47.3872 70.8422C46.8517 72.2619 46.1631 73.5965 45.4065 74.8972C45.3214 75.0502 45.2874 75.2288 45.2279 75.3903C44.9899 75.7473 44.7604 76.1044 44.5223 76.4529C44.3438 76.4784 44.3268 76.606 44.3268 76.7505C44.1228 77.0225 43.9188 77.2946 43.7147 77.5666C43.6722 77.6261 43.6212 77.6856 43.5787 77.7451C43.4937 77.8556 43.4087 77.9576 43.3237 78.0682C43.2557 78.1617 43.1962 78.2552 43.1281 78.3487C42.9496 78.5527 42.7711 78.7568 42.5926 78.9523C42.5501 79.0033 42.5161 79.0458 42.4736 79.0968C41.6829 79.8789 40.8838 80.661 40.0932 81.4431C40.0167 81.5111 39.9487 81.5792 39.8722 81.6387C39.5916 81.8682 39.3026 82.0892 39.0221 82.3188C38.9456 82.3783 38.869 82.4463 38.801 82.5058L38.7755 82.5398Z" fill="#EF97B5"/>
<path d="M38.7755 82.5398C38.7245 82.5823 38.682 82.6163 38.631 82.6588C38.5715 82.7013 38.5205 82.7353 38.461 82.7778C37.8489 83.2539 37.2113 83.6704 36.4887 83.9595C36.3102 83.8065 36.2677 83.6279 36.3187 83.3814C36.5142 82.4718 36.7437 81.5622 36.8543 80.627C36.9818 79.5474 36.7438 78.5102 36.7523 77.4476C36.7523 77.4306 36.7437 77.4136 36.7352 77.3966C36.5142 76.3594 36.3187 75.3138 36.0552 74.2851C35.7066 72.9249 35.3156 71.5733 34.899 70.2386C34.6185 69.3289 34.2699 68.4448 33.9384 67.5522C33.8278 67.2461 33.6748 66.9656 33.5558 66.6596C33.4623 66.43 33.3943 66.192 33.3178 65.954C33.2753 65.818 33.2413 65.6819 33.1988 65.5459C33.0967 65.2739 32.9862 65.0103 32.8927 64.7468C32.5612 63.8372 32.2296 62.919 31.8981 62.0009C31.4985 60.8788 31.082 59.7651 30.6909 58.6429C30.4444 57.9118 30.2318 57.1637 30.0108 56.4241C29.7133 55.421 29.3817 54.4349 29.1182 53.4232C28.8887 52.5221 28.7271 51.5955 28.5571 50.6773C28.4296 50.0057 28.3276 49.3341 28.2171 48.654C28.115 47.9995 28.013 47.3364 27.9365 46.6818C27.843 45.8742 27.69 45.075 27.6985 44.2674C27.707 41.4875 27.52 38.7077 27.9025 35.9363C27.979 35.3667 28.0385 34.7971 28.115 34.2275C28.2171 33.4964 28.3106 32.7653 28.4466 32.0427C28.5911 31.2861 28.7696 30.5295 28.9567 29.7814C29.1352 29.0843 29.3392 28.3957 29.5347 27.7071C29.7048 27.1205 29.8578 26.5255 30.0618 25.9474C30.2658 25.3693 30.5379 24.8167 30.7589 24.2471C30.8099 24.1196 30.7844 23.9666 30.7929 23.8221C30.7929 23.7881 30.8099 23.7626 30.8354 23.7456C31.2605 23.4395 31.3795 22.9975 31.4305 22.5129C31.4475 22.4534 31.456 22.3854 31.473 22.3259C31.7876 22.1048 31.8386 21.7733 31.8641 21.4332C31.8896 21.3652 31.9066 21.3057 31.9321 21.2377C31.9491 21.2037 31.9661 21.1697 31.9831 21.1272C32.0341 21.0167 32.0851 20.9062 32.1361 20.8042C32.3486 20.6681 32.4592 20.4896 32.3911 20.2346C32.6207 19.7755 32.8587 19.3079 33.0882 18.8489L33.0967 18.8319C33.1733 18.6959 33.2498 18.5598 33.3263 18.4238C33.4878 18.4068 33.5303 18.3218 33.4878 18.1773C33.5983 17.9648 33.7088 17.7522 33.8278 17.5312C34.0234 17.4972 34.0914 17.3867 34.0319 17.1997C34.0999 17.0636 34.1679 16.9276 34.2444 16.7916C34.2784 16.7746 34.2954 16.7491 34.2869 16.7151L34.3124 16.6811C34.4739 16.6726 34.5164 16.5876 34.4654 16.443C34.5504 16.307 34.6355 16.1625 34.7205 16.0265C34.7545 15.967 34.797 15.9075 34.831 15.848C34.933 15.6609 35.035 15.4654 35.1285 15.2784C35.154 15.2699 35.1625 15.2444 35.1625 15.2189C35.5026 14.7003 35.8426 14.1817 36.1827 13.6547C36.2422 13.5696 36.3017 13.4846 36.3697 13.3996C36.9818 12.49 37.5684 11.5549 38.2145 10.6707C39.6852 8.65596 41.2579 6.72619 43.0431 4.96644C43.6892 4.32885 44.3948 3.76777 45.2619 3.44473C46.6221 2.93466 48.0078 2.86665 49.4105 3.2237C52.522 4.02281 54.9873 5.87607 57.2401 8.05237C58.3198 9.09802 59.3144 10.2032 60.241 11.3848C60.5046 11.7249 60.8446 12.0054 61.1507 12.3115C61.2527 12.7365 61.3547 13.1616 61.4737 13.6802C61.2952 13.5356 61.1677 13.4506 61.0657 13.3401C59.765 11.9629 58.2688 10.8408 56.696 9.82062C55.6249 9.12352 54.5367 8.46043 53.4486 7.78033C51.5613 6.60717 49.5805 5.68054 47.4042 5.14497C46.5031 4.92394 45.6445 4.88993 44.7689 5.20447C43.9443 5.49351 43.3747 6.03759 42.9751 6.8112C42.5161 7.70382 42.312 8.66446 42.1505 9.62509C41.9975 10.5262 41.853 11.4273 41.768 12.3455C41.6999 13.0936 41.5724 13.8417 41.5894 14.6068C41.5894 14.6578 41.5894 14.7173 41.5809 14.7683C41.3004 16.2645 41.3344 17.7862 41.2919 19.2909C41.2324 21.5778 41.3344 23.8731 41.3854 26.1684C41.3854 26.4915 41.4449 26.8145 41.4704 27.1375C41.5129 27.6901 41.5554 28.2512 41.5979 28.8038C41.6064 28.9653 41.5979 29.1268 41.6319 29.2883C41.7594 30.1385 41.9125 30.9886 42.0315 31.8472C42.312 33.9215 42.8221 35.9448 43.2642 37.9766C43.3322 38.3081 43.4002 38.6397 43.5022 38.9712C43.7232 39.7278 43.9698 40.4844 44.1908 41.241C44.5138 42.3292 44.8199 43.4173 45.1514 44.497C45.364 45.1856 45.6105 45.8657 45.8315 46.5458C46.1886 47.6764 46.5286 48.8071 46.8857 49.9377C47.2427 51.0684 47.6593 52.182 47.9568 53.3297C48.2969 54.6389 48.5519 55.9651 48.8154 57.2828C49.0705 58.5409 49.232 59.8076 49.1895 61.0913C49.1555 62.1539 49.1215 63.2166 49.079 64.2792C49.0365 65.2399 48.8834 66.175 48.6114 67.0931C48.5944 67.1611 48.6454 67.2462 48.6624 67.3312C48.6369 67.3992 48.6199 67.4757 48.5944 67.5437C48.4414 67.6542 48.2799 67.7562 48.4414 67.9773C48.4159 68.0538 48.3989 68.1218 48.3734 68.1983C48.1948 68.3428 48.0843 68.5043 48.2119 68.7339C48.1608 68.9209 48.1183 69.1079 48.0758 69.2949C47.9228 69.3289 47.8973 69.4225 47.9483 69.5585C47.9143 69.686 47.8803 69.822 47.8548 69.9495C47.6763 70.0345 47.5403 70.1451 47.6933 70.3661C47.6763 70.4426 47.6508 70.5191 47.6338 70.5956C47.5488 70.6806 47.4212 70.7401 47.3872 70.8422C46.8517 72.2619 46.1631 73.5965 45.4065 74.8972C45.3214 75.0502 45.2874 75.2288 45.2279 75.3903C44.9899 75.7473 44.7604 76.1044 44.5223 76.4529C44.3438 76.4784 44.3268 76.606 44.3268 76.7505C44.1228 77.0225 43.9188 77.2946 43.7147 77.5666C43.6722 77.6261 43.6212 77.6856 43.5787 77.7451C43.4937 77.8556 43.4087 77.9576 43.3237 78.0682C43.2557 78.1617 43.1962 78.2552 43.1281 78.3487C42.9496 78.5527 42.7711 78.7568 42.5926 78.9523C42.5501 79.0033 42.5161 79.0458 42.4736 79.0968C41.6829 79.8789 40.8838 80.661 40.0932 81.4431C40.0167 81.5111 39.9487 81.5792 39.8722 81.6387C39.5916 81.8682 39.3026 82.0892 39.0221 82.3188C38.9456 82.3783 38.869 82.4463 38.801 82.5058L38.7755 82.5398Z" stroke="#D76894" stroke-width="6" stroke-linejoin="round" mask="url(#path-1-outside-1_45_11615)"/>
<path d="M46.9268 5.54395L47.0293 5.56055C47.3195 5.61756 48.0749 5.71483 48.666 5.92676L48.6738 5.92871C49.4782 6.22207 50.2488 6.5993 50.9209 6.91895L50.9219 6.91992C52.4619 7.65413 53.9165 8.51619 55.3164 9.44336H55.3174C56.8482 10.4507 58.4784 11.5389 59.9404 12.8975L60.2305 13.1729L60.2314 13.1738C60.8287 13.754 61.4504 14.3663 62.043 15.0127H62.042C63.0686 16.1231 63.9002 17.6069 63.6016 19.5371C63.6003 19.5455 63.5981 19.5542 63.5967 19.5625C63.598 19.5549 63.5939 19.5745 63.5957 19.6455C63.5966 19.6806 63.599 19.722 63.6025 19.7764C63.6043 19.8035 63.6062 19.8324 63.6084 19.8643C63.6105 19.8948 63.6129 19.9298 63.6152 19.9648C63.6163 19.9804 63.6176 19.9961 63.6182 20.0117C63.6437 20.7342 63.6677 21.4253 63.7158 22.1035C63.7601 22.6534 63.8068 23.1695 63.876 23.6709L63.9541 24.168V24.1729C64.128 25.1904 64.3263 25.9939 64.5371 27.1152H64.5361C64.8852 28.9626 65.2174 30.8088 65.5479 32.6475C65.594 32.8908 65.64 33.1691 65.6826 33.4365L65.7988 34.1602L65.8027 34.1836C65.9108 34.875 66.1157 35.8546 66.1895 36.7471L66.2471 37.5488C66.2957 38.3524 66.3159 39.1689 66.2959 39.9863L66.2969 39.9873C66.2704 41.3109 66.1735 42.6334 66.0713 43.9111C66.0227 44.5359 65.855 45.2714 65.7861 45.6689L65.6426 46.6494C65.6998 46.9619 65.6569 47.2857 65.5186 47.5723C65.0835 48.9376 64.6407 50.5792 64.0469 52.0566L64.0479 52.0576C63.0221 54.631 61.6218 57.0066 59.9258 59.1758C59.0791 60.2643 58.164 61.3733 57.0928 62.3799L57.0889 62.3838C55.5061 63.8604 53.7431 65.2408 51.6504 66.2168C51.1729 66.4395 50.6134 66.3955 50.1768 66.1006C49.7402 65.8057 49.4904 65.3034 49.5186 64.7773C49.5513 64.1675 49.5364 63.122 49.6689 62.251C49.7141 61.9443 49.706 61.61 49.6699 61.1631C49.6375 60.7614 49.5711 60.1725 49.5762 59.6074C49.5756 59.3293 49.5555 59.0566 49.5137 58.8008L49.2363 57.209C49.144 56.6944 49.0469 56.1908 48.9336 55.6885L48.7002 54.7178C48.4574 53.7475 48.1884 52.7765 47.9131 51.7842V51.7832C47.6582 50.8623 47.3637 49.9556 47.0596 48.9824L47.0576 48.9766C46.8192 48.2018 46.5837 47.4351 46.3398 46.6699L46.3389 46.6689C46.0133 45.6446 45.6014 44.4617 45.2695 43.3555C44.9082 42.151 44.5638 40.9389 44.2373 39.7275V39.7266C43.9453 38.6696 43.6704 37.6114 43.4121 36.5439L43.4111 36.5391C43.2718 35.954 43.171 35.3159 43.0801 34.8232L43.0811 34.8223C42.9659 34.249 42.808 33.5523 42.6953 32.9023L42.6943 32.8984C42.5529 32.0677 42.4385 31.2332 42.3428 30.415C42.1883 29.0934 42.0506 27.7677 41.9385 26.4395V26.4365C41.868 25.582 41.8233 24.7191 41.8057 23.8652L41.7529 21.6123C41.7379 20.8505 41.7296 20.0815 41.7383 19.3164V19.3066C41.7642 17.8416 41.8679 16.3671 41.9424 14.9707C41.9423 14.8507 41.9425 14.6445 41.9717 14.4258C42.1163 13.3233 42.2735 12.387 42.3545 11.3906C42.4021 10.7962 42.5185 10.2415 42.6348 9.75293C42.7614 9.22089 42.8666 8.84674 42.96 8.40039C43.05 7.9642 43.2888 7.66752 43.3525 7.58594C43.3756 7.55642 43.3979 7.5294 43.4131 7.51074C43.4308 7.48894 43.4402 7.47657 43.4512 7.46289C43.4701 7.43931 43.4761 7.43076 43.4775 7.42871L43.5928 7.28125C43.8796 6.95623 44.2958 6.76814 44.7354 6.77344C44.8225 6.77451 44.908 6.78603 44.9922 6.80176C45.0189 6.6703 45.0609 6.54093 45.123 6.41895C45.3234 6.02599 45.6869 5.74165 46.1162 5.64062C46.1147 5.641 46.0809 5.65022 46.1758 5.62012C46.2107 5.60904 46.3041 5.57955 46.4189 5.55859C46.5137 5.54131 46.6362 5.5274 46.7783 5.53223L46.9268 5.54395Z" fill="#F5C8DA" stroke="#D76894" stroke-width="3" stroke-linejoin="round"/>
<path d="M27.1924 38.9443C27.1924 41.0957 27.1516 43.1104 27.3389 45.1387L27.4561 46.2686C27.4987 46.6449 27.5447 47.0212 27.5928 47.3984L27.9004 49.6797L27.9014 49.6816C27.9783 50.2433 28.1084 50.6682 28.2646 51.4268L28.5264 52.6641H28.5254C28.6481 53.2903 28.669 53.5703 28.7764 53.9951L29.0869 55.1377L29.4219 56.2705L29.4238 56.2783L29.8311 57.6104C29.9672 58.0468 30.105 58.4782 30.249 58.9062C30.4546 59.5104 30.6668 60.1159 30.8828 60.7217L31.54 62.541L31.541 62.5439C31.9729 63.7381 32.4035 64.9064 32.8809 66.0508L33.2109 66.8721C33.4212 67.4212 33.6134 67.9717 33.7959 68.5137L34.0635 69.3193L34.0645 69.3242C34.6667 71.1804 35.3793 73.1798 35.8652 75.2207C36.1401 76.3753 36.3467 77.5709 36.4189 78.7998L36.4414 79.3281V79.334C36.4896 81.4741 36.0148 83.5039 35.083 85.415L35.082 85.4141C35.0125 85.5568 34.9376 85.6851 34.8955 85.7559C34.8788 85.784 34.8659 85.8064 34.8555 85.8242C34.8357 86.1908 34.6844 86.5412 34.4209 86.8047C34.0508 87.1748 33.7694 87.439 33.4619 87.7627L33.4609 87.7617C32.2946 89.0055 30.8235 89.4455 29.4678 89.6035L29.4688 89.6045C29.4675 89.6046 29.4661 89.6043 29.4648 89.6045C29.4636 89.6046 29.4622 89.6053 29.4609 89.6055L29.46 89.6045C28.126 89.7642 26.8729 89.5219 25.7881 89.21V89.2109C23.7578 88.6405 22.0205 87.5723 20.4756 86.4902V86.4912C18.2382 84.936 16.3446 83.0393 14.75 80.8682L14.748 80.8652C14.5074 80.5363 14.2567 80.2127 13.9912 79.8701C13.7874 79.6072 13.6768 79.2838 13.6768 78.9512C13.6768 78.8445 13.6846 78.7532 13.6904 78.6943C13.6907 78.6917 13.6911 78.6891 13.6914 78.6865C13.6711 78.5981 13.6486 78.4998 13.6182 78.3838C13.5761 78.2233 13.52 78.013 13.4736 77.8018V77.8008C13.3738 77.3443 13.1995 76.6752 13.1123 76.0459L13.1133 76.0449C13.0525 75.6139 13.0127 75.1823 12.9766 74.7998C12.9578 74.6012 12.9398 74.4141 12.9199 74.2344L12.8525 73.7129C12.5727 71.8893 12.5292 70.0552 12.4707 68.3682L12.4697 68.3643C12.3918 65.9403 12.5218 63.4523 12.5547 61.1533H12.5557C12.5569 61.028 12.5669 60.9235 12.5742 60.8623C12.5771 60.8385 12.5833 60.7933 12.584 60.7881C12.5857 60.7741 12.5858 60.7687 12.5859 60.7676C12.6704 59.6948 12.7557 58.6182 12.8584 57.5312C12.9617 56.429 13.0827 55.3176 13.2207 54.2139V54.209C13.3105 53.5083 13.4269 52.8245 13.5479 52.1592C13.8085 50.7044 14.0681 49.2048 14.3887 47.7139C14.6197 46.6187 14.952 45.4629 15.2012 44.4736C15.2014 44.4701 15.2019 44.4662 15.2021 44.4619C15.2029 44.448 15.2041 44.4328 15.2051 44.4121C15.206 44.393 15.2066 44.3676 15.208 44.3418C15.2082 44.3389 15.2078 44.336 15.208 44.333C15.2039 44.1443 15.2344 43.9541 15.3027 43.7725C15.6514 42.8454 16.0238 41.7557 16.4316 40.7578L16.4326 40.7549C16.8884 39.6454 17.3704 38.524 17.9092 37.4199C18.9991 35.1607 20.3994 33.1254 21.8047 31.2061L21.8057 31.2041C22.774 29.8861 23.9087 28.6673 24.8867 27.5508C25.3636 27.0005 25.9848 26.44 26.3574 26.0674C26.7787 25.6461 27.41 25.5135 27.9648 25.7305C28.5196 25.9475 28.8932 26.4731 28.917 27.0684C28.9172 27.0715 28.918 27.0852 28.9219 27.1191C28.9245 27.1426 28.9358 27.2356 28.9424 27.3018C28.9568 27.4475 28.9802 27.7373 28.9121 28.0674L28.9131 28.0684C28.7711 28.756 28.6043 29.4384 28.4492 30.085C28.2919 30.741 28.1447 31.3675 28.0244 31.9932L28.0234 31.9951C27.7881 33.2126 27.6222 34.4498 27.4707 35.7285L27.4717 35.7295C27.4194 36.1915 27.4082 36.4992 27.3555 37.0479C27.2803 37.8999 27.1851 38.3416 27.1924 38.9258C27.1925 38.9319 27.1924 38.9382 27.1924 38.9443Z" fill="#F5C8DA" stroke="#D76894" stroke-width="3" stroke-linejoin="round"/>
<mask id="path-4-outside-2_45_11615" maskUnits="userSpaceOnUse" x="38.2305" y="2.03516" width="42" height="69" fill="black">
<rect fill="white" x="38.2305" y="2.03516" width="42" height="69"/>
<path d="M64.1414 46.9472C64.1244 46.8962 64.0819 46.8452 64.0819 46.8027C64.1414 46.3606 64.2094 45.91 64.2774 45.468C64.3624 44.9154 64.5069 44.3713 64.5494 43.8188C64.6515 42.5436 64.745 41.2599 64.7705 39.9847C64.796 38.9561 64.7535 37.9274 64.6685 36.8988C64.6004 36.0742 64.4304 35.2666 64.2944 34.4419C64.2179 33.9404 64.1414 33.4473 64.0479 32.9542C63.7163 31.1095 63.3848 29.2647 63.0362 27.42C62.8492 26.4338 62.6197 25.4477 62.4496 24.453C62.3221 23.7219 62.2541 22.9908 62.1946 22.2512C62.1351 21.5286 62.1181 20.806 62.0926 20.0919C62.0841 19.8369 62.0586 19.5819 62.0926 19.3353C62.2966 18.0261 61.7696 16.9805 60.9109 16.0539C60.3499 15.4418 59.7548 14.8637 59.1597 14.2771C57.74 12.8999 56.1078 11.8033 54.467 10.7236C53.1068 9.831 51.7126 9.00639 50.2504 8.30079C49.5533 7.96924 48.8562 7.6377 48.1336 7.36566C47.6831 7.19563 47.19 7.15313 46.7139 7.05962C46.6544 7.05111 46.5779 7.08512 46.4334 7.12763C46.5524 7.39116 46.6374 7.6377 46.7565 7.86723C47.7256 9.65248 48.9328 11.2677 50.2759 12.7894C50.7265 13.2995 51.2026 13.8011 51.6701 14.3026C53.0983 15.8158 54.6966 17.1335 56.4053 18.3322C57.2299 18.9103 58.063 19.4884 58.8876 20.0579C58.9557 20.1089 59.0152 20.1684 59.1087 20.2535C58.8791 20.4745 58.6496 20.3895 58.4456 20.313C57.723 20.0324 56.9664 19.8114 56.2948 19.4373C54.9431 18.6722 53.6084 17.8816 52.3417 16.989C51.0496 16.0709 49.8254 15.0592 48.7967 13.8266C48.2697 13.189 47.6661 12.6109 47.1645 11.9478C46.5524 11.1487 46.0083 10.2901 45.4388 9.45695C45.2007 9.1084 44.9712 8.74285 44.6907 8.30079C44.5631 8.48782 44.4271 8.59833 44.4016 8.73435C44.2061 9.66948 43.9001 10.5706 43.8235 11.5397C43.7385 12.5769 43.5685 13.614 43.4325 14.6512C43.4155 14.7787 43.4155 14.9062 43.4155 15.0337C43.3475 16.4789 43.237 17.9156 43.2115 19.3608C43.186 20.857 43.237 22.3533 43.2795 23.858C43.2965 24.6911 43.339 25.5157 43.407 26.3403C43.5175 27.6495 43.662 28.9587 43.8065 30.2679C43.9001 31.0755 44.0106 31.8746 44.1466 32.6737C44.2486 33.3113 44.4016 33.9404 44.5291 34.578C44.6397 35.122 44.7162 35.6746 44.8437 36.2187C45.0987 37.2728 45.3708 38.3185 45.6598 39.3641C45.9913 40.5628 46.3229 41.7615 46.6799 42.9516C47.0115 44.0568 47.394 45.1449 47.7426 46.2416C47.9891 47.0152 48.2272 47.7888 48.4652 48.5624C48.7542 49.5061 49.0688 50.4497 49.3323 51.4103C49.6979 52.728 50.0634 54.0457 50.3695 55.3804C50.616 56.4345 50.786 57.4972 50.9645 58.5683C51.024 58.9254 51.0496 59.2909 51.0496 59.648C51.0496 60.6001 51.2706 61.5437 51.1261 62.5044C51.007 63.2865 51.0325 64.0856 50.99 64.8847C50.7435 65.0887 50.4885 65.2843 50.2504 65.4968C49.7319 65.9388 49.2643 66.4319 48.9158 67.027C48.8392 67.163 48.7202 67.2735 48.6182 67.3926C48.6012 67.316 48.5502 67.2225 48.5672 67.1545C48.8392 66.2364 48.9923 65.3013 49.0348 64.3406C49.0773 63.278 49.1113 62.2153 49.1453 61.1527C49.1878 59.869 49.0178 58.6023 48.7712 57.3441C48.5077 56.018 48.2527 54.6918 47.9126 53.3911C47.6151 52.2434 47.1985 51.1298 46.8415 49.9991C46.4844 48.8685 46.1444 47.7378 45.7873 46.6071C45.5663 45.9185 45.3197 45.247 45.1072 44.5584C44.7757 43.4787 44.4696 42.3906 44.1466 41.3024C43.9171 40.5458 43.679 39.7892 43.458 39.0326C43.3645 38.7095 43.2965 38.3695 43.22 38.0379C42.7779 35.9977 42.2678 33.9744 41.9873 31.9086C41.8683 31.05 41.7152 30.1999 41.5877 29.3497C41.5622 29.1882 41.5707 29.0267 41.5537 28.8652C41.5112 28.3126 41.4687 27.7515 41.4262 27.1989C41.4007 26.8759 41.3497 26.5528 41.3412 26.2298C41.2987 23.9345 41.1882 21.6477 41.2477 19.3523C41.2902 17.8476 41.2477 16.3259 41.5367 14.8297C41.5452 14.7787 41.5452 14.7192 41.5452 14.6682C41.5282 13.9116 41.6642 13.1635 41.7237 12.4069C41.8003 11.4887 41.9533 10.5876 42.1063 9.68648C42.2678 8.72585 42.4719 7.76521 42.9309 6.87259C43.3305 6.09898 43.9001 5.55491 44.7247 5.26587C45.6003 4.95132 46.4589 4.98533 47.36 5.20636C49.5278 5.74193 51.5171 6.66856 53.4044 7.84173C54.4925 8.51332 55.5807 9.18491 56.6518 9.88201C58.2246 10.9022 59.7293 12.0328 61.0214 13.4015C61.1235 13.512 61.251 13.597 61.4295 13.7416C61.3105 13.223 61.2085 12.7979 61.1065 12.3729C61.9226 12.8404 62.7387 13.2995 63.5633 13.7671C63.6313 14.0306 63.7078 14.2856 63.7673 14.5492C63.8778 15.0167 63.9714 15.4928 64.0734 15.9689C64.1329 16.2579 64.2944 16.4024 64.609 16.4874C65.2295 16.6575 65.8586 16.8615 66.4452 17.1335C68.1624 17.9326 69.7777 18.9188 71.3249 20.0239C71.4609 20.1259 71.6394 20.1684 71.801 20.2365H71.7925C71.8265 20.2705 71.852 20.3045 71.886 20.3385C73.2547 21.9622 74.4448 23.7134 75.618 25.4732C75.8475 25.8132 76.0685 26.1618 76.2811 26.5188C76.3746 26.6889 76.4341 26.8759 76.5021 27.0544C76.3406 26.9609 76.1451 26.8929 76.009 26.7654C75.5245 26.3063 75.0824 25.7962 74.5808 25.3627C73.4587 24.3765 72.3025 23.4329 71.1634 22.4638C69.5396 21.0781 67.7799 19.8964 65.8586 18.9613C65.2975 18.6892 64.7025 18.5022 64.0819 18.4427C64.0479 18.5022 64.0139 18.5362 64.0139 18.5617C64.0309 19.5564 64.0479 20.5425 64.0819 21.5286C64.0989 21.9027 64.1584 22.2767 64.2094 22.6593C64.2944 23.3394 64.3539 24.0195 64.4644 24.6911C64.5579 25.2522 64.7365 25.8047 64.847 26.3658C65.1275 27.828 65.3741 29.2987 65.6546 30.7609C65.8501 31.7811 66.0542 32.8012 66.2582 33.8214C66.2752 33.9064 66.2667 33.9999 66.2752 34.0934C66.3602 34.901 66.4452 35.7001 66.5217 36.5077C66.5897 37.2218 66.6662 37.9359 66.7087 38.6585C66.7427 39.2706 66.7257 39.8912 66.7087 40.5033C66.6832 41.4044 66.6407 42.3055 66.5982 43.2067C66.5812 43.4787 66.5217 43.7422 66.5217 44.0143C66.5217 44.2013 66.5897 44.3883 66.6322 44.5669C65.7141 45.247 64.915 46.0461 64.2094 46.9387C64.1924 46.9642 64.1499 46.9727 64.1159 46.9897L64.1414 46.9472Z"/>
</mask>
<path d="M64.1414 46.9472C64.1244 46.8962 64.0819 46.8452 64.0819 46.8027C64.1414 46.3606 64.2094 45.91 64.2774 45.468C64.3624 44.9154 64.5069 44.3713 64.5494 43.8188C64.6515 42.5436 64.745 41.2599 64.7705 39.9847C64.796 38.9561 64.7535 37.9274 64.6685 36.8988C64.6004 36.0742 64.4304 35.2666 64.2944 34.4419C64.2179 33.9404 64.1414 33.4473 64.0479 32.9542C63.7163 31.1095 63.3848 29.2647 63.0362 27.42C62.8492 26.4338 62.6197 25.4477 62.4496 24.453C62.3221 23.7219 62.2541 22.9908 62.1946 22.2512C62.1351 21.5286 62.1181 20.806 62.0926 20.0919C62.0841 19.8369 62.0586 19.5819 62.0926 19.3353C62.2966 18.0261 61.7696 16.9805 60.9109 16.0539C60.3499 15.4418 59.7548 14.8637 59.1597 14.2771C57.74 12.8999 56.1078 11.8033 54.467 10.7236C53.1068 9.831 51.7126 9.00639 50.2504 8.30079C49.5533 7.96924 48.8562 7.6377 48.1336 7.36566C47.6831 7.19563 47.19 7.15313 46.7139 7.05962C46.6544 7.05111 46.5779 7.08512 46.4334 7.12763C46.5524 7.39116 46.6374 7.6377 46.7565 7.86723C47.7256 9.65248 48.9328 11.2677 50.2759 12.7894C50.7265 13.2995 51.2026 13.8011 51.6701 14.3026C53.0983 15.8158 54.6966 17.1335 56.4053 18.3322C57.2299 18.9103 58.063 19.4884 58.8876 20.0579C58.9557 20.1089 59.0152 20.1684 59.1087 20.2535C58.8791 20.4745 58.6496 20.3895 58.4456 20.313C57.723 20.0324 56.9664 19.8114 56.2948 19.4373C54.9431 18.6722 53.6084 17.8816 52.3417 16.989C51.0496 16.0709 49.8254 15.0592 48.7967 13.8266C48.2697 13.189 47.6661 12.6109 47.1645 11.9478C46.5524 11.1487 46.0083 10.2901 45.4388 9.45695C45.2007 9.1084 44.9712 8.74285 44.6907 8.30079C44.5631 8.48782 44.4271 8.59833 44.4016 8.73435C44.2061 9.66948 43.9001 10.5706 43.8235 11.5397C43.7385 12.5769 43.5685 13.614 43.4325 14.6512C43.4155 14.7787 43.4155 14.9062 43.4155 15.0337C43.3475 16.4789 43.237 17.9156 43.2115 19.3608C43.186 20.857 43.237 22.3533 43.2795 23.858C43.2965 24.6911 43.339 25.5157 43.407 26.3403C43.5175 27.6495 43.662 28.9587 43.8065 30.2679C43.9001 31.0755 44.0106 31.8746 44.1466 32.6737C44.2486 33.3113 44.4016 33.9404 44.5291 34.578C44.6397 35.122 44.7162 35.6746 44.8437 36.2187C45.0987 37.2728 45.3708 38.3185 45.6598 39.3641C45.9913 40.5628 46.3229 41.7615 46.6799 42.9516C47.0115 44.0568 47.394 45.1449 47.7426 46.2416C47.9891 47.0152 48.2272 47.7888 48.4652 48.5624C48.7542 49.5061 49.0688 50.4497 49.3323 51.4103C49.6979 52.728 50.0634 54.0457 50.3695 55.3804C50.616 56.4345 50.786 57.4972 50.9645 58.5683C51.024 58.9254 51.0496 59.2909 51.0496 59.648C51.0496 60.6001 51.2706 61.5437 51.1261 62.5044C51.007 63.2865 51.0325 64.0856 50.99 64.8847C50.7435 65.0887 50.4885 65.2843 50.2504 65.4968C49.7319 65.9388 49.2643 66.4319 48.9158 67.027C48.8392 67.163 48.7202 67.2735 48.6182 67.3926C48.6012 67.316 48.5502 67.2225 48.5672 67.1545C48.8392 66.2364 48.9923 65.3013 49.0348 64.3406C49.0773 63.278 49.1113 62.2153 49.1453 61.1527C49.1878 59.869 49.0178 58.6023 48.7712 57.3441C48.5077 56.018 48.2527 54.6918 47.9126 53.3911C47.6151 52.2434 47.1985 51.1298 46.8415 49.9991C46.4844 48.8685 46.1444 47.7378 45.7873 46.6071C45.5663 45.9185 45.3197 45.247 45.1072 44.5584C44.7757 43.4787 44.4696 42.3906 44.1466 41.3024C43.9171 40.5458 43.679 39.7892 43.458 39.0326C43.3645 38.7095 43.2965 38.3695 43.22 38.0379C42.7779 35.9977 42.2678 33.9744 41.9873 31.9086C41.8683 31.05 41.7152 30.1999 41.5877 29.3497C41.5622 29.1882 41.5707 29.0267 41.5537 28.8652C41.5112 28.3126 41.4687 27.7515 41.4262 27.1989C41.4007 26.8759 41.3497 26.5528 41.3412 26.2298C41.2987 23.9345 41.1882 21.6477 41.2477 19.3523C41.2902 17.8476 41.2477 16.3259 41.5367 14.8297C41.5452 14.7787 41.5452 14.7192 41.5452 14.6682C41.5282 13.9116 41.6642 13.1635 41.7237 12.4069C41.8003 11.4887 41.9533 10.5876 42.1063 9.68648C42.2678 8.72585 42.4719 7.76521 42.9309 6.87259C43.3305 6.09898 43.9001 5.55491 44.7247 5.26587C45.6003 4.95132 46.4589 4.98533 47.36 5.20636C49.5278 5.74193 51.5171 6.66856 53.4044 7.84173C54.4925 8.51332 55.5807 9.18491 56.6518 9.88201C58.2246 10.9022 59.7293 12.0328 61.0214 13.4015C61.1235 13.512 61.251 13.597 61.4295 13.7416C61.3105 13.223 61.2085 12.7979 61.1065 12.3729C61.9226 12.8404 62.7387 13.2995 63.5633 13.7671C63.6313 14.0306 63.7078 14.2856 63.7673 14.5492C63.8778 15.0167 63.9714 15.4928 64.0734 15.9689C64.1329 16.2579 64.2944 16.4024 64.609 16.4874C65.2295 16.6575 65.8586 16.8615 66.4452 17.1335C68.1624 17.9326 69.7777 18.9188 71.3249 20.0239C71.4609 20.1259 71.6394 20.1684 71.801 20.2365H71.7925C71.8265 20.2705 71.852 20.3045 71.886 20.3385C73.2547 21.9622 74.4448 23.7134 75.618 25.4732C75.8475 25.8132 76.0685 26.1618 76.2811 26.5188C76.3746 26.6889 76.4341 26.8759 76.5021 27.0544C76.3406 26.9609 76.1451 26.8929 76.009 26.7654C75.5245 26.3063 75.0824 25.7962 74.5808 25.3627C73.4587 24.3765 72.3025 23.4329 71.1634 22.4638C69.5396 21.0781 67.7799 19.8964 65.8586 18.9613C65.2975 18.6892 64.7025 18.5022 64.0819 18.4427C64.0479 18.5022 64.0139 18.5362 64.0139 18.5617C64.0309 19.5564 64.0479 20.5425 64.0819 21.5286C64.0989 21.9027 64.1584 22.2767 64.2094 22.6593C64.2944 23.3394 64.3539 24.0195 64.4644 24.6911C64.5579 25.2522 64.7365 25.8047 64.847 26.3658C65.1275 27.828 65.3741 29.2987 65.6546 30.7609C65.8501 31.7811 66.0542 32.8012 66.2582 33.8214C66.2752 33.9064 66.2667 33.9999 66.2752 34.0934C66.3602 34.901 66.4452 35.7001 66.5217 36.5077C66.5897 37.2218 66.6662 37.9359 66.7087 38.6585C66.7427 39.2706 66.7257 39.8912 66.7087 40.5033C66.6832 41.4044 66.6407 42.3055 66.5982 43.2067C66.5812 43.4787 66.5217 43.7422 66.5217 44.0143C66.5217 44.2013 66.5897 44.3883 66.6322 44.5669C65.7141 45.247 64.915 46.0461 64.2094 46.9387C64.1924 46.9642 64.1499 46.9727 64.1159 46.9897L64.1414 46.9472Z" fill="#D76894"/>
<path d="M64.1414 46.9472C64.1244 46.8962 64.0819 46.8452 64.0819 46.8027C64.1414 46.3606 64.2094 45.91 64.2774 45.468C64.3624 44.9154 64.5069 44.3713 64.5494 43.8188C64.6515 42.5436 64.745 41.2599 64.7705 39.9847C64.796 38.9561 64.7535 37.9274 64.6685 36.8988C64.6004 36.0742 64.4304 35.2666 64.2944 34.4419C64.2179 33.9404 64.1414 33.4473 64.0479 32.9542C63.7163 31.1095 63.3848 29.2647 63.0362 27.42C62.8492 26.4338 62.6197 25.4477 62.4496 24.453C62.3221 23.7219 62.2541 22.9908 62.1946 22.2512C62.1351 21.5286 62.1181 20.806 62.0926 20.0919C62.0841 19.8369 62.0586 19.5819 62.0926 19.3353C62.2966 18.0261 61.7696 16.9805 60.9109 16.0539C60.3499 15.4418 59.7548 14.8637 59.1597 14.2771C57.74 12.8999 56.1078 11.8033 54.467 10.7236C53.1068 9.831 51.7126 9.00639 50.2504 8.30079C49.5533 7.96924 48.8562 7.6377 48.1336 7.36566C47.6831 7.19563 47.19 7.15313 46.7139 7.05962C46.6544 7.05111 46.5779 7.08512 46.4334 7.12763C46.5524 7.39116 46.6374 7.6377 46.7565 7.86723C47.7256 9.65248 48.9328 11.2677 50.2759 12.7894C50.7265 13.2995 51.2026 13.8011 51.6701 14.3026C53.0983 15.8158 54.6966 17.1335 56.4053 18.3322C57.2299 18.9103 58.063 19.4884 58.8876 20.0579C58.9557 20.1089 59.0152 20.1684 59.1087 20.2535C58.8791 20.4745 58.6496 20.3895 58.4456 20.313C57.723 20.0324 56.9664 19.8114 56.2948 19.4373C54.9431 18.6722 53.6084 17.8816 52.3417 16.989C51.0496 16.0709 49.8254 15.0592 48.7967 13.8266C48.2697 13.189 47.6661 12.6109 47.1645 11.9478C46.5524 11.1487 46.0083 10.2901 45.4388 9.45695C45.2007 9.1084 44.9712 8.74285 44.6907 8.30079C44.5631 8.48782 44.4271 8.59833 44.4016 8.73435C44.2061 9.66948 43.9001 10.5706 43.8235 11.5397C43.7385 12.5769 43.5685 13.614 43.4325 14.6512C43.4155 14.7787 43.4155 14.9062 43.4155 15.0337C43.3475 16.4789 43.237 17.9156 43.2115 19.3608C43.186 20.857 43.237 22.3533 43.2795 23.858C43.2965 24.6911 43.339 25.5157 43.407 26.3403C43.5175 27.6495 43.662 28.9587 43.8065 30.2679C43.9001 31.0755 44.0106 31.8746 44.1466 32.6737C44.2486 33.3113 44.4016 33.9404 44.5291 34.578C44.6397 35.122 44.7162 35.6746 44.8437 36.2187C45.0987 37.2728 45.3708 38.3185 45.6598 39.3641C45.9913 40.5628 46.3229 41.7615 46.6799 42.9516C47.0115 44.0568 47.394 45.1449 47.7426 46.2416C47.9891 47.0152 48.2272 47.7888 48.4652 48.5624C48.7542 49.5061 49.0688 50.4497 49.3323 51.4103C49.6979 52.728 50.0634 54.0457 50.3695 55.3804C50.616 56.4345 50.786 57.4972 50.9645 58.5683C51.024 58.9254 51.0496 59.2909 51.0496 59.648C51.0496 60.6001 51.2706 61.5437 51.1261 62.5044C51.007 63.2865 51.0325 64.0856 50.99 64.8847C50.7435 65.0887 50.4885 65.2843 50.2504 65.4968C49.7319 65.9388 49.2643 66.4319 48.9158 67.027C48.8392 67.163 48.7202 67.2735 48.6182 67.3926C48.6012 67.316 48.5502 67.2225 48.5672 67.1545C48.8392 66.2364 48.9923 65.3013 49.0348 64.3406C49.0773 63.278 49.1113 62.2153 49.1453 61.1527C49.1878 59.869 49.0178 58.6023 48.7712 57.3441C48.5077 56.018 48.2527 54.6918 47.9126 53.3911C47.6151 52.2434 47.1985 51.1298 46.8415 49.9991C46.4844 48.8685 46.1444 47.7378 45.7873 46.6071C45.5663 45.9185 45.3197 45.247 45.1072 44.5584C44.7757 43.4787 44.4696 42.3906 44.1466 41.3024C43.9171 40.5458 43.679 39.7892 43.458 39.0326C43.3645 38.7095 43.2965 38.3695 43.22 38.0379C42.7779 35.9977 42.2678 33.9744 41.9873 31.9086C41.8683 31.05 41.7152 30.1999 41.5877 29.3497C41.5622 29.1882 41.5707 29.0267 41.5537 28.8652C41.5112 28.3126 41.4687 27.7515 41.4262 27.1989C41.4007 26.8759 41.3497 26.5528 41.3412 26.2298C41.2987 23.9345 41.1882 21.6477 41.2477 19.3523C41.2902 17.8476 41.2477 16.3259 41.5367 14.8297C41.5452 14.7787 41.5452 14.7192 41.5452 14.6682C41.5282 13.9116 41.6642 13.1635 41.7237 12.4069C41.8003 11.4887 41.9533 10.5876 42.1063 9.68648C42.2678 8.72585 42.4719 7.76521 42.9309 6.87259C43.3305 6.09898 43.9001 5.55491 44.7247 5.26587C45.6003 4.95132 46.4589 4.98533 47.36 5.20636C49.5278 5.74193 51.5171 6.66856 53.4044 7.84173C54.4925 8.51332 55.5807 9.18491 56.6518 9.88201C58.2246 10.9022 59.7293 12.0328 61.0214 13.4015C61.1235 13.512 61.251 13.597 61.4295 13.7416C61.3105 13.223 61.2085 12.7979 61.1065 12.3729C61.9226 12.8404 62.7387 13.2995 63.5633 13.7671C63.6313 14.0306 63.7078 14.2856 63.7673 14.5492C63.8778 15.0167 63.9714 15.4928 64.0734 15.9689C64.1329 16.2579 64.2944 16.4024 64.609 16.4874C65.2295 16.6575 65.8586 16.8615 66.4452 17.1335C68.1624 17.9326 69.7777 18.9188 71.3249 20.0239C71.4609 20.1259 71.6394 20.1684 71.801 20.2365H71.7925C71.8265 20.2705 71.852 20.3045 71.886 20.3385C73.2547 21.9622 74.4448 23.7134 75.618 25.4732C75.8475 25.8132 76.0685 26.1618 76.2811 26.5188C76.3746 26.6889 76.4341 26.8759 76.5021 27.0544C76.3406 26.9609 76.1451 26.8929 76.009 26.7654C75.5245 26.3063 75.0824 25.7962 74.5808 25.3627C73.4587 24.3765 72.3025 23.4329 71.1634 22.4638C69.5396 21.0781 67.7799 19.8964 65.8586 18.9613C65.2975 18.6892 64.7025 18.5022 64.0819 18.4427C64.0479 18.5022 64.0139 18.5362 64.0139 18.5617C64.0309 19.5564 64.0479 20.5425 64.0819 21.5286C64.0989 21.9027 64.1584 22.2767 64.2094 22.6593C64.2944 23.3394 64.3539 24.0195 64.4644 24.6911C64.5579 25.2522 64.7365 25.8047 64.847 26.3658C65.1275 27.828 65.3741 29.2987 65.6546 30.7609C65.8501 31.7811 66.0542 32.8012 66.2582 33.8214C66.2752 33.9064 66.2667 33.9999 66.2752 34.0934C66.3602 34.901 66.4452 35.7001 66.5217 36.5077C66.5897 37.2218 66.6662 37.9359 66.7087 38.6585C66.7427 39.2706 66.7257 39.8912 66.7087 40.5033C66.6832 41.4044 66.6407 42.3055 66.5982 43.2067C66.5812 43.4787 66.5217 43.7422 66.5217 44.0143C66.5217 44.2013 66.5897 44.3883 66.6322 44.5669C65.7141 45.247 64.915 46.0461 64.2094 46.9387C64.1924 46.9642 64.1499 46.9727 64.1159 46.9897L64.1414 46.9472Z" stroke="#D76894" stroke-width="6" stroke-linejoin="round" mask="url(#path-4-outside-2_45_11615)"/>
<path d="M64.2578 16.8965C65.0862 16.9759 65.8541 17.2232 66.5459 17.5586L66.5479 17.5596C68.5907 18.5539 70.458 19.7992 72.1738 21.2725H72.1729C73.0049 21.9802 73.8818 22.7087 74.7432 23.4424L75.5996 24.1787L75.6055 24.1846C75.8996 24.4438 76.1678 24.7123 76.4043 24.9531C76.6258 25.1787 76.8141 25.3728 77.0068 25.5586C77.0219 25.5661 77.0411 25.5759 77.0693 25.5898L77.2578 25.6875L77.4238 25.793C77.5819 25.9092 77.7161 26.0557 77.8184 26.2246C78.243 26.9262 78.6817 27.7656 78.8945 28.7627C78.9843 29.1835 78.8866 29.6002 78.6592 29.9287C78.9598 30.274 79.0897 30.7389 79.0029 31.1934C78.7355 32.5941 78.0591 33.7678 77.4941 34.7207L77.4883 34.7295C75.5655 37.9194 73.2093 40.7531 70.4609 43.2451C69.561 44.061 68.5954 44.8407 67.7246 45.5742C67.445 45.8536 67.0648 46.0137 66.665 46.0137H66.6572C66.0277 46.0137 65.4645 45.6205 65.248 45.0293C65.213 44.9334 65.1887 44.8356 65.1738 44.7373C65.1634 44.698 65.1492 44.6417 65.1357 44.5859C65.1045 44.4565 65.0547 44.2285 65.0547 43.9609C65.0547 43.7118 65.0861 43.4854 65.1035 43.3564C65.1248 43.1986 65.1305 43.1489 65.1318 43.1064C65.1321 43.0986 65.1324 43.0908 65.1328 43.083C65.1754 42.1797 65.2171 41.2927 65.2422 40.4082L65.2578 39.5225C65.2588 39.2355 65.2545 38.9537 65.2432 38.6768C65.2114 38.01 65.1338 37.3557 65.0615 36.5967V36.5957C64.9859 35.7978 64.9017 35.0077 64.8164 34.1973C64.8157 34.1902 64.8151 34.1828 64.8145 34.1758C64.8085 34.1105 64.8058 34.0545 64.8047 34.0156C64.8043 34.0015 64.8039 33.9883 64.8037 33.9775C64.7115 33.4986 64.6158 33.0185 64.5186 32.5322C64.4167 32.0232 64.3139 31.5072 64.2148 30.9902L64.2129 30.9824C63.9354 29.4907 63.6886 28.0646 63.4082 26.6025L63.3281 26.2393C63.2983 26.1137 63.2654 25.9816 63.2295 25.8369C63.1611 25.5612 63.0821 25.2395 63.0215 24.9062C63.02 24.8981 63.0189 24.89 63.0176 24.8818C62.8991 24.162 62.8254 23.4287 62.752 22.7754L62.6816 22.2373C62.6535 22.0137 62.6261 21.7638 62.6162 21.542C62.616 21.5371 62.6164 21.5322 62.6162 21.5273C62.5817 20.526 62.5638 19.5179 62.5469 18.5342V18.5088C62.5469 18.2361 62.6182 18.0136 62.6895 17.8584C62.7527 17.7206 62.8236 17.6209 62.8428 17.5938C62.8843 17.5349 62.8748 17.5473 62.8545 17.5781C63.1569 17.1082 63.6971 16.8428 64.2578 16.8965Z" fill="#EF97B5" stroke="#D76894" stroke-width="3" stroke-linejoin="round"/>
<path d="M13.0254 45.8906C13.5158 45.5228 14.1813 45.4902 14.7051 45.8086C15.2288 46.1271 15.5061 46.7332 15.4053 47.3379C15.3378 47.7426 15.267 48.1687 15.1865 48.5889L15.1855 48.5879C15.1188 48.9713 15.0529 49.3528 14.9863 49.7334C14.9185 50.1215 14.8499 50.5091 14.7822 50.8984L14.7832 50.8994C14.6561 51.6351 14.5331 52.2527 14.4541 52.9004L14.4521 52.9131C14.3514 53.6855 14.3034 54.3756 14.21 55.2354C14.2092 55.242 14.2078 55.2492 14.207 55.2559C14.1591 55.6476 14.1074 56.038 14.0566 56.4189C14.0055 56.8029 13.9548 57.1777 13.9092 57.5508L13.9082 57.5645C13.8692 57.8606 13.8368 58.1577 13.8027 58.4727C13.7691 58.9011 13.7378 59.3024 13.7139 59.71C13.7132 59.7213 13.7128 59.7328 13.7119 59.7441C13.6614 60.361 13.6051 60.7467 13.5977 61.21C13.5893 64.3462 13.5977 67.4689 13.5977 70.6133C13.5977 70.6781 13.5994 70.744 13.6025 70.8115L13.6172 71.0215V71.0273C13.6465 71.3619 13.678 71.6974 13.71 72.0381C13.7415 72.3741 13.7737 72.7155 13.8037 73.0576L13.8398 73.4834C13.8506 73.6187 13.8605 73.7418 13.8721 73.8652C13.922 74.3412 14.0096 74.7594 14.1064 75.3662C14.1928 75.9072 14.2723 76.5396 14.2441 77.2188V77.2275C14.2441 77.2324 14.2422 77.2373 14.2422 77.2422C14.2413 77.2615 14.2423 77.2814 14.2412 77.3008L14.2393 77.2998C14.2155 77.7918 13.9538 78.2433 13.5322 78.5039C13.0901 78.777 12.5381 78.8016 12.0732 78.5693C11.7097 78.3876 10.9664 78.0696 10.4023 77.707L10.3965 77.7031C8.24168 76.3025 6.29727 74.6232 4.63672 72.627L4.63477 72.625C3.71632 71.5174 2.85534 70.2887 2.2207 68.8848L2.21973 68.8828C1.47227 67.2217 1.30305 65.471 1.72949 63.6924L1.73047 63.6875C2.23169 61.627 3.09611 59.7507 3.98633 58.0049L4.48242 57.0645C5.66649 54.89 7.03731 52.8434 8.52539 50.8975L8.52734 50.8955C9.80318 49.2326 11.1886 47.6726 12.6455 46.1982L12.6523 46.1914C12.7726 46.0712 12.8915 45.986 12.9443 45.9482C12.9719 45.9286 13.0037 45.9063 13.0137 45.8994C13.0196 45.8953 13.0231 45.8922 13.0254 45.8906Z" fill="#EF97B5" stroke="#D76894" stroke-width="3" stroke-linejoin="round"/>
<path d="M29.7627 22.7559C30.193 22.3303 30.837 22.2053 31.3955 22.4385C31.9539 22.6717 32.3174 23.2171 32.3174 23.8223C32.3174 23.8369 32.3182 23.8477 32.3193 23.8994C32.3202 23.9397 32.3216 24.0084 32.3193 24.085C32.315 24.2307 32.2971 24.5037 32.1768 24.8047L32.1758 24.8037C32.0541 25.116 31.9194 25.4255 31.8066 25.6875C31.6867 25.9664 31.5849 26.2095 31.501 26.4473C31.3161 26.9713 31.187 27.4799 31 28.125C30.7928 28.8541 30.5991 29.4783 30.4385 30.1367L30.4365 30.1455C30.2526 30.8811 30.081 31.6047 29.9443 32.3193L29.9453 32.3203C29.8182 32.9954 29.7299 33.6745 29.625 34.4268L29.626 34.4277C29.5895 34.6996 29.5567 34.9733 29.5225 35.2598C29.4887 35.5426 29.454 35.8384 29.4141 36.1357L29.4131 36.1416C29.0488 38.7806 29.2411 41.3385 29.2236 44.2676L29.2285 44.5244C29.239 44.7796 29.2643 45.0321 29.2969 45.3008L29.4512 46.5078V46.5098C29.5237 47.1382 29.6209 47.7637 29.7236 48.4229L29.7246 48.4287C29.7749 48.7597 29.8271 49.0904 29.8818 49.4189L30.0557 50.3975L30.0566 50.4043C30.1876 51.1115 30.3053 51.775 30.4463 52.417L30.5967 53.0527L30.5977 53.0566C30.7189 53.5376 30.8562 54.0096 31.0039 54.4912L31.4688 55.9834L31.4727 55.9951C31.701 56.7593 31.9 57.4626 32.1348 58.1592H32.1357C32.3235 58.7101 32.5191 59.261 32.7197 59.8145L33.3311 61.4854L33.334 61.4912C33.6685 62.4175 33.9857 63.312 34.3223 64.2207L34.627 65.0195H34.6279C34.6807 65.1604 34.7158 65.2879 34.7363 65.3652C34.7618 65.4613 34.7659 65.4796 34.7744 65.5068C34.8207 65.6512 34.853 65.7578 34.8818 65.8477L34.9697 66.0938L34.9736 66.1025C35.0172 66.2114 35.0665 66.3177 35.1416 66.4834C35.2083 66.6305 35.2932 66.8217 35.3691 67.0303L35.8711 68.373C36.041 68.8368 36.2081 69.3141 36.3564 69.7949L36.668 70.8184C36.9729 71.8427 37.2586 72.8692 37.5303 73.9043L37.5332 73.9131C37.7957 74.9376 38.0043 76.0636 38.209 76.998C38.2201 77.0344 38.2313 77.0757 38.2412 77.1211C38.2607 77.2101 38.2773 77.3211 38.2773 77.4482V77.46C38.2738 77.9041 38.321 78.3256 38.3682 78.9102C38.4121 79.4547 38.4502 80.1077 38.3682 80.8027V80.8037C38.2626 81.6964 38.0548 82.5874 37.8838 83.3564C37.9843 83.5848 38.0304 83.8366 38.0078 84.0918C37.9663 84.5601 37.7073 84.9822 37.3086 85.2314C37.1063 85.3579 36.8911 85.4933 36.665 85.6289C36.6571 85.6337 36.6487 85.638 36.6406 85.6426C35.917 86.0585 35.1564 86.5045 34.4102 86.9248L34.4082 86.9229C34.2112 87.0349 34.0319 87.0912 33.9609 87.1123C33.9385 87.119 33.9181 87.125 33.9043 87.1289C33.8878 87.1336 33.8816 87.1355 33.874 87.1377C33.8593 87.1419 33.8729 87.1378 33.8975 87.1289C33.8849 87.1335 33.872 87.1384 33.8594 87.1426L33.834 87.1504C33.4036 87.2939 32.9317 87.2351 32.5498 86.9902C32.168 86.7453 31.9172 86.3406 31.8682 85.8896C31.8036 85.2952 31.9859 84.8241 32.1318 84.5322C32.2009 84.3941 32.2762 84.2692 32.3174 84.2002C32.3684 84.1148 32.383 84.0884 32.3916 84.0713C33.1206 82.5796 33.4782 81.0179 33.4414 79.3857V79.3818C33.4188 78.2502 33.2288 77.0961 32.9453 75.8975V75.8965C32.496 74.0101 31.85 72.2137 31.21 70.2324V70.2314C30.8623 69.1715 30.5215 68.1641 30.1152 67.2002L30.1133 67.1953C29.6054 65.9781 29.1533 64.7502 28.7188 63.5488L28.7158 63.542C28.285 62.3339 27.8389 61.0982 27.4111 59.8662V59.8652C27.093 58.9462 26.8122 58.0166 26.5479 57.1211V57.1201C26.3198 56.3515 26.0827 55.5533 25.8711 54.7334L25.8701 54.7285C25.742 54.225 25.6422 53.5363 25.5801 53.2197L25.5771 53.207C25.5049 52.8216 25.4228 52.4753 25.3291 52.0352L25.3271 52.0254C25.2293 51.5492 25.0205 50.7503 24.9277 50.0732L24.9287 50.0723C24.7171 48.5487 24.4986 46.9863 24.3506 45.4014V45.4004C24.1469 43.1955 24.1914 41.002 24.1914 38.9287C24.1914 38.1668 24.3212 37.2837 24.3672 36.7578L24.3682 36.748C24.4019 36.3905 24.4389 35.818 24.4902 35.373L24.4912 35.3682C24.6454 34.0748 24.8204 32.7482 25.0771 31.4111L25.1826 30.8887C25.2926 30.3698 25.4135 29.8621 25.5312 29.3721C25.6824 28.7428 25.8258 28.1452 25.9512 27.5449C25.9506 27.5399 25.9509 27.5343 25.9502 27.5283C25.9479 27.509 25.9438 27.4723 25.9404 27.4424C25.9331 27.3781 25.9223 27.2806 25.918 27.1719C25.9006 26.7343 26.0756 26.3107 26.3965 26.0127C26.7933 25.6443 27.0978 25.3784 27.4307 25.0537C28.2093 24.292 28.9886 23.5215 29.7627 22.7559Z" fill="#D76894" stroke="#D76894" stroke-width="3" stroke-linejoin="round"/>
<path d="M15.626 43.251C16.0729 42.7957 16.7599 42.6733 17.3369 42.9453C17.9137 43.2175 18.2552 43.8247 18.1885 44.459C18.1894 44.4498 18.1884 44.4514 18.1875 44.4775C18.187 44.4907 18.1872 44.5043 18.1865 44.5264C18.1859 44.5462 18.1847 44.5736 18.1836 44.6025C18.1795 44.7053 18.1681 44.9095 18.1074 45.1436L18.1084 45.1445C17.8212 46.2843 17.5356 47.2855 17.3037 48.3457C17.0037 49.7806 16.7557 51.214 16.4805 52.7021L16.4795 52.7012C16.3627 53.3435 16.2587 53.9677 16.1787 54.5918L16.1777 54.5908C16.0448 55.6545 15.9364 56.7214 15.8262 57.8154C15.7242 58.8856 15.6525 59.9157 15.5557 61.0342L15.5537 61.0332C15.5514 61.0699 15.5518 61.1028 15.5488 61.1309C15.5444 61.1725 15.5385 61.2115 15.5352 61.2354C15.4966 63.3629 15.4036 65.3735 15.4307 67.3965L15.4502 68.2695V68.2734C15.4954 69.8035 15.5329 71.2387 15.7119 72.6484L15.7979 73.252L15.7998 73.2607C15.8666 73.6994 15.9074 74.1324 15.9443 74.5225C15.9634 74.7239 15.9818 74.9136 16.001 75.0967L16.0654 75.6309V75.6357C16.1313 76.1113 16.2476 76.5297 16.3857 77.1611H16.3848C16.4149 77.2982 16.4527 77.4363 16.502 77.624C16.5248 77.7112 16.55 77.809 16.5752 77.9131L16.6475 78.2402L16.6494 78.251L16.6758 78.4463C16.6921 78.6318 16.6816 78.7848 16.6738 78.8711C16.6688 78.9273 16.6614 78.9895 16.6592 79.0098C16.6558 79.0402 16.655 79.0449 16.6553 79.041C16.6247 79.559 16.3283 80.0243 15.8721 80.2715C15.4158 80.5185 14.8645 80.5123 14.4141 80.2549C14.4241 80.2606 14.4248 80.2611 14.3984 80.248C14.3841 80.241 14.3267 80.2124 14.2803 80.1885C14.1839 80.1387 13.9798 80.0295 13.7793 79.8457C13.7719 79.8389 13.7641 79.8322 13.7568 79.8252C13.2939 79.383 12.7713 79.0121 12.1914 78.708C12.1757 78.6998 12.16 78.6914 12.1445 78.6826C11.9323 78.5614 11.7896 78.4175 11.7471 78.375C11.7345 78.3624 11.7223 78.3503 11.7168 78.3447C11.7134 78.3413 11.7116 78.3386 11.71 78.3369L11.7197 78.3467C11.7267 78.3532 11.7376 78.3626 11.751 78.374C11.3694 78.0469 11.1768 77.5506 11.2383 77.0518C11.2405 77.034 11.2452 77.0166 11.248 76.999C11.2526 76.6586 11.2138 76.2904 11.1436 75.8496C11.0712 75.3956 10.9465 74.7561 10.8857 74.167L10.8848 74.1533C10.8709 74.005 10.8591 73.8607 10.8486 73.7285C10.8379 73.593 10.828 73.4693 10.8164 73.3457L10.8154 73.3369C10.7861 73.0023 10.7556 72.666 10.7236 72.3252C10.6918 71.9861 10.6591 71.6412 10.6289 71.2959L10.6299 71.2949C10.6091 71.0725 10.5977 70.8503 10.5977 70.6211V61.1934C10.5977 60.5986 10.6902 59.8989 10.7217 59.5088C10.7379 59.3011 10.7517 59.0944 10.7666 58.8799C10.7814 58.6663 10.7968 58.4444 10.8145 58.2197V58.2188C10.8435 57.8504 10.8924 57.4908 10.9346 57.1787H10.9336C11.0385 56.392 11.145 55.6592 11.2275 54.916L11.2285 54.9033C11.2726 54.535 11.3069 54.1631 11.3447 53.7627C11.3819 53.3701 11.4227 52.9526 11.4775 52.5322L11.4785 52.5273C11.577 51.7934 11.7123 51.061 11.8271 50.3965V50.3955C11.8953 50.0037 11.9633 49.6134 12.0312 49.2246C12.0993 48.8357 12.1675 48.4477 12.2354 48.0576C12.3032 47.6505 12.3724 47.2421 12.4512 46.8223L12.4756 46.7129C12.5428 46.4605 12.6756 46.2294 12.8604 46.043C13.7936 45.1011 14.7108 44.1831 15.626 43.251Z" fill="#D76894" stroke="#D76894" stroke-width="3" stroke-linejoin="round"/>
<path d="M66.2988 23.2725C66.8222 23.092 67.3162 23.156 67.7129 23.335C67.8776 23.4093 68.0048 23.494 68.0742 23.542C68.1091 23.5662 68.142 23.5909 68.1582 23.6025C68.1791 23.6176 68.185 23.6214 68.1875 23.623L68.1914 23.625C69.1051 24.254 69.9467 24.8577 70.8066 25.4463L71.6758 26.0303L71.6787 26.0322C72.5476 26.606 73.3532 27.0726 74.1953 27.3584L74.8477 27.5674C75.4503 27.7466 75.9321 27.8349 76.4004 27.7891C76.442 27.7838 76.5069 27.7722 76.625 27.7412C76.7091 27.7191 76.9323 27.6559 77.0967 27.6172C77.8283 27.445 78.5742 27.8416 78.8418 28.5439C78.8423 28.5452 78.8448 28.549 78.8477 28.5557C78.8521 28.5661 78.858 28.579 78.8672 28.5996C78.882 28.6327 78.9149 28.7071 78.9453 28.7822C79.0026 28.9238 79.1191 29.2302 79.1191 29.6133C79.1191 30.1227 79.0688 30.6393 79.0381 31.0312C78.9865 31.6885 78.5117 32.2348 77.8682 32.3779C76.2321 32.7415 74.7132 32.4698 73.3682 31.9922L72.8018 31.7754C71.4705 31.232 70.0806 30.5091 68.9033 29.3848V29.3857C67.9568 28.4918 67.0598 27.5675 66.1836 26.6572C66.1779 26.6513 66.1717 26.6457 66.166 26.6396C66.0823 26.5498 65.1946 25.774 65.293 24.5684L65.3057 24.458C65.3911 23.9127 65.7713 23.4544 66.2988 23.2725Z" fill="#D76894" stroke="#D76894" stroke-width="3" stroke-linejoin="round"/>
<path d="M62.5674 12.6318C62.9587 12.2568 63.5223 12.122 64.041 12.2793C65.5499 12.7369 66.9077 13.4726 68.1221 14.4023H68.1211C69.5876 15.5168 70.8592 16.8047 72.0205 18.1152L72.5127 18.6787L72.5146 18.6816C72.6549 18.8452 72.7668 18.9593 72.959 19.1729C73.2066 19.4482 73.3437 19.8055 73.3438 20.1758V20.1846C73.3438 20.6871 73.0915 21.1566 72.6729 21.4346C72.2544 21.7122 71.7246 21.7622 71.2617 21.5674C71.2577 21.5657 71.2454 21.5608 71.207 21.5469C71.1786 21.5365 71.1129 21.5121 71.0518 21.4883C70.9343 21.4425 70.7215 21.3531 70.501 21.1943L70.5 21.1963C69.0043 20.1362 67.469 19.193 65.8564 18.4424L65.4854 18.2822C65.1044 18.1303 64.6954 18.0015 64.2598 17.8838C63.9823 17.8088 63.5974 17.6656 63.2578 17.3428C62.899 17.0017 62.7323 16.5965 62.6533 16.251C62.6518 16.2444 62.6498 16.238 62.6484 16.2314C62.5978 15.995 62.5472 15.7596 62.4961 15.5234L62.3428 14.8115C62.2895 14.5783 62.2408 14.4287 62.1533 14.0898C62.0178 13.5649 62.1761 13.0071 62.5674 12.6318Z" fill="#F5C8DA" stroke="#D76894" stroke-width="3" stroke-linejoin="round"/>
<path d="M46.6064 69.5039C47.1061 69.0565 47.847 68.9932 48.417 69.3594C49.0101 69.7407 49.2578 70.4837 49.0117 71.1445C48.9402 71.3366 48.8887 71.5014 48.7998 71.7617C48.7204 71.9942 48.6192 72.2761 48.4824 72.5615L48.4785 72.5703C47.9623 73.629 47.4032 74.6682 46.8721 75.6631L46.8701 75.6621C46.7469 75.8977 46.6025 76.0744 46.5215 76.1689C46.4915 76.2039 46.4513 76.2477 46.4277 76.2744C46.1517 76.6693 45.6976 76.9159 45.2002 76.916H45.1914C44.6185 76.916 44.0955 76.5898 43.8438 76.0752C43.6484 75.6758 43.6457 75.2181 43.8174 74.8213C43.8266 74.7908 43.8396 74.7455 43.8496 74.7139C43.8845 74.6036 43.9503 74.4051 44.0674 74.1943C44.0721 74.1858 44.0771 74.1774 44.082 74.1689C44.818 72.9037 45.4682 71.6519 45.9531 70.3457L45.9541 70.3467C46.0385 70.1166 46.1581 69.9434 46.2578 69.8262C46.3602 69.7058 46.4605 69.6207 46.5137 69.5771C46.5422 69.5538 46.5679 69.5342 46.583 69.5225C46.5977 69.5112 46.6024 69.507 46.6064 69.5039Z" fill="#D76894" stroke="#D76894" stroke-width="3" stroke-linejoin="round"/>
<path d="M30.1094 21.8828C30.4248 21.2246 31.1688 20.8891 31.8711 21.0879C32.5733 21.2868 33.0305 21.9626 32.9541 22.6885C32.8903 23.2945 32.7028 24.2905 31.7432 24.9814C31.1869 25.3817 30.4299 25.3539 29.9043 24.9141C29.3789 24.4742 29.2186 23.7343 29.5146 23.1162C29.6141 22.9087 29.7148 22.6988 29.8145 22.4932C29.9146 22.2865 30.0133 22.0834 30.1094 21.8828Z" fill="#D76894" stroke="#D76894" stroke-width="3" stroke-linejoin="round"/>
<path d="M30.5205 20.8594C30.8094 20.1855 31.5427 19.8192 32.2549 19.9932C32.9672 20.1674 33.4494 20.8312 33.3945 21.5625C33.3685 21.9099 33.303 22.9148 32.3701 23.5703C31.8214 23.9558 31.0832 23.9303 30.5625 23.5078C30.0418 23.0853 29.8648 22.3683 30.1289 21.752C30.1968 21.5935 30.2668 21.4364 30.332 21.2891C30.3985 21.1389 30.4609 20.9984 30.5205 20.8594ZM30.6455 21.1152C30.592 21.1529 30.5364 21.2058 30.4883 21.2715C30.4707 21.2955 30.4575 21.3202 30.4453 21.3418L30.8242 21.3701L30.6455 21.1152Z" fill="#D76894" stroke="#D76894" stroke-width="3" stroke-linejoin="round"/>
<path d="M30.7949 20.1924C30.52 20.7974 30.6755 21.511 31.1777 21.9463C31.68 22.3816 32.4089 22.4345 32.9688 22.0762C33.199 21.9288 33.525 21.6697 33.7373 21.2402C33.9684 20.7727 33.9752 20.2866 33.8672 19.8682C33.7083 19.2528 33.1791 18.8044 32.5459 18.749C31.952 18.6972 31.3875 19.0014 31.1025 19.5166L31.0498 19.6221C31.0042 19.7223 30.959 19.8243 30.917 19.9189C30.874 20.0156 30.8344 20.1056 30.7949 20.1924ZM30.7949 20.1924L30.9453 20.2598M30.7949 20.1924L30.9453 20.2598M30.9453 20.2598C30.9275 20.404 30.9401 20.5297 30.9629 20.6182L31.8838 20.3799L31.3516 19.5498C31.3328 19.5618 31.1683 19.6675 31.0479 19.9111C30.988 20.0323 30.9587 20.1515 30.9453 20.2598Z" fill="#D76894" stroke="#D76894" stroke-width="3" stroke-linejoin="round"/>
<path d="M47.4209 67.0684C47.9295 66.6566 48.6466 66.6225 49.1924 66.9834C49.7382 67.3443 49.9874 68.0173 49.8076 68.6465C49.758 68.8201 49.6984 69.0297 49.627 69.2441C49.4389 69.8083 48.9349 70.2085 48.3428 70.2637C47.7505 70.3187 47.1815 70.018 46.8926 69.498C46.6434 69.0493 46.5539 68.4849 46.7725 67.9248C46.9509 67.4679 47.2717 67.1891 47.4209 67.0684ZM49.5146 68.042L48.6133 68.541L49.3086 69.4004C49.3095 69.3997 49.3178 69.3934 49.3301 69.3818C49.3423 69.3703 49.3621 69.3508 49.3857 69.3232C49.4313 69.2701 49.507 69.1678 49.5664 69.0156C49.6297 68.8535 49.6616 68.664 49.6426 68.4658C49.6242 68.2748 49.5639 68.1307 49.5146 68.042Z" fill="#D76894" stroke="#D76894" stroke-width="3" stroke-linejoin="round"/>
<path d="M47.7051 66.3613C48.2369 65.9772 48.9571 65.983 49.4824 66.376C50.0075 66.7689 50.2162 67.4577 49.998 68.0762C49.9726 68.1483 49.9473 68.2208 49.9219 68.293C49.8964 68.3652 49.8702 68.4375 49.8447 68.5098C49.6595 69.0346 49.1991 69.4142 48.6484 69.4951C48.0979 69.576 47.5481 69.3448 47.2197 68.8955C47.0836 68.7093 46.9219 68.4227 46.876 68.0469C46.8261 67.6382 46.9309 67.2739 47.0957 66.9932C47.2413 66.7452 47.4194 66.5854 47.5098 66.5098C47.5961 66.4375 47.6959 66.3679 47.7051 66.3613ZM49.6416 67.126L48.7354 67.7871L49.458 68.7871C49.5036 68.7459 49.5982 68.6554 49.6826 68.5117C49.8081 68.2979 49.893 68.0074 49.8535 67.6836C49.818 67.3928 49.697 67.2018 49.6416 67.126Z" fill="#D76894" stroke="#D76894" stroke-width="3" stroke-linejoin="round"/>
<path d="M47.1924 68.6211C47.7444 68.3583 48.401 68.4568 48.8516 68.8701C49.302 69.2835 49.4567 69.9294 49.2422 70.502C49.2116 70.5835 49.1791 70.6656 49.1523 70.7334C49.1238 70.8058 49.1005 70.8646 49.0801 70.9189C48.8841 71.4415 48.4142 71.8122 47.8604 71.8809C47.3064 71.9496 46.7601 71.705 46.4424 71.2461C46.3183 71.0669 46.1743 70.7987 46.126 70.4531C46.0733 70.0762 46.1498 69.708 46.3262 69.3955C46.6165 68.8812 47.1002 68.665 47.1924 68.6211ZM48.9092 69.5381L47.9463 70.2051L48.4824 71.3301C48.4838 71.3294 48.4941 71.3238 48.5107 71.3145C48.528 71.3047 48.5585 71.2865 48.5967 71.2588C48.6646 71.2095 48.8155 71.088 48.9385 70.8701C49.0776 70.6235 49.1374 70.3295 49.0967 70.0381C49.0603 69.7781 48.9567 69.6068 48.9092 69.5381Z" fill="#D76894" stroke="#D76894" stroke-width="3" stroke-linejoin="round"/>
<path d="M35.207 12.4707C35.7128 11.8387 36.6293 11.722 37.2773 12.207C37.9255 12.6924 38.0718 13.6052 37.6074 14.2686C37.5768 14.3123 37.5338 14.367 37.4873 14.4307C37.4691 14.456 37.4465 14.4855 37.4199 14.5234L37.4189 14.5225C37.4 14.5473 37.3827 14.5751 37.3623 14.6006C36.8564 15.2326 35.94 15.3495 35.292 14.8643C34.6439 14.3789 34.4986 13.4661 34.9629 12.8027C34.998 12.7525 35.048 12.6873 35.1035 12.6123C35.1169 12.5935 35.1322 12.5724 35.1494 12.5479L35.1504 12.5488C35.1694 12.524 35.1866 12.4962 35.207 12.4707Z" fill="#D76894" stroke="#D76894" stroke-width="3" stroke-linejoin="round"/>
<path d="M32.8779 16.498C33.1553 16.1646 33.4979 16.0868 33.5869 16.0713L33.7549 17.0381L33.7998 17.2959L32.6182 17.6729C32.584 17.5654 32.4728 17.1284 32.7637 16.6553C32.7994 16.5972 32.8386 16.5453 32.8779 16.498ZM33.7549 17.0381L32.8779 16.498M33.7549 17.0381L32.8779 16.498M32.7705 16.4316C33.0779 15.9322 33.6484 15.6573 34.2305 15.7285C34.8124 15.7999 35.2997 16.204 35.4775 16.7627C35.5712 17.0572 35.6786 17.6437 35.3193 18.2275C34.9633 18.806 34.3977 18.9757 34.1006 19.0273C33.5194 19.1283 32.9335 18.8789 32.6025 18.3906C32.2716 17.9024 32.2574 17.266 32.5664 16.7637C32.6003 16.7085 32.634 16.6528 32.668 16.5977C32.702 16.5424 32.7365 16.4869 32.7705 16.4316Z" fill="#D76894" stroke="#D76894" stroke-width="3" stroke-linejoin="round"/>
<path d="M44.2842 74.9932C44.8698 74.9095 45.4502 75.1783 45.7656 75.6787C46.081 76.1792 46.0723 76.8184 45.7441 77.3105C45.7151 77.3541 45.6875 77.3968 45.6553 77.4463C45.6239 77.4944 45.5877 77.5501 45.5488 77.6084C45.1822 78.1582 44.4987 78.4034 43.8662 78.2119C43.2732 78.0324 42.8557 77.5087 42.8057 76.8994L42.8008 76.7764C42.8008 76.7154 42.7881 76.3165 42.9902 75.9121C43.2725 75.3476 43.7921 75.0635 44.2842 74.9932ZM44.5391 76.7764L44.708 77.9639C44.8319 77.9462 45.0229 77.8968 45.2227 77.7637C45.432 77.6241 45.5801 77.4392 45.6729 77.2539C45.7575 77.0845 45.7838 76.9399 45.793 76.8721C45.7994 76.8238 45.8006 76.7871 45.8008 76.7764H44.5391Z" fill="#D76894" stroke="#D76894" stroke-width="3" stroke-linejoin="round"/>
<path d="M43.1016 78.3753C43.1696 78.2818 43.2291 78.1882 43.2971 78.0947" stroke="#D76894" stroke-width="3" stroke-linejoin="round"/>
<path d="M34.667 14.9639C35.2308 15.0343 35.7064 15.4174 35.8955 15.9531C35.9658 16.1523 36.1489 16.7682 35.7676 17.3984C35.3579 18.0753 34.6715 18.1745 34.4072 18.1885C33.8406 18.2183 33.3052 17.9256 33.0244 17.4326C32.7437 16.9397 32.7655 16.3304 33.0801 15.8584C33.0935 15.8383 33.1093 15.8139 33.1367 15.7705C33.1603 15.7332 33.1958 15.6765 33.2334 15.6201C33.5485 15.1475 34.1033 14.8935 34.667 14.9639ZM34.249 15.1924C34.1457 15.1979 33.5618 15.2499 33.2012 15.8457C32.8691 16.3945 33.0467 16.8953 33.0664 16.9512L34.3193 16.5088L34.249 15.1924Z" fill="#D76894" stroke="#D76894" stroke-width="3" stroke-linejoin="round"/>
<path d="M32.0654 17.6611C31.7729 18.1487 31.7813 18.7598 32.0869 19.2393C32.3926 19.7187 32.9433 19.9843 33.5088 19.9248C33.78 19.8962 34.4024 19.7672 34.7861 19.1436C35.1481 18.5553 35.014 17.974 34.9521 17.7637C34.7895 17.2108 34.3246 16.7993 33.7559 16.7061C33.2226 16.6187 32.6859 16.825 32.3486 17.2402L32.2842 17.3262C32.2125 17.4286 32.1404 17.5362 32.0654 17.6611ZM32.0654 17.6611L32.1553 17.7158M32.0654 17.6611L32.1553 17.7158M32.1553 17.7158C31.9466 18.1627 32.0565 18.5491 32.0742 18.6094L33.332 18.2393L33.1943 16.9414C33.0844 16.953 32.5641 17.0309 32.2314 17.5713C32.2017 17.6196 32.1774 17.6685 32.1553 17.7158Z" fill="#D76894" stroke="#D76894" stroke-width="3" stroke-linejoin="round"/>
<path d="M47.7129 67.8604C48.2793 67.7272 48.8714 67.9334 49.2324 68.3896C49.5935 68.8462 49.6578 69.4706 49.3975 69.9912C49.3537 70.0787 49.3232 70.1397 49.2939 70.2041C49.0429 70.7563 48.4842 71.1035 47.8779 71.083C47.2716 71.0624 46.7374 70.6784 46.5244 70.1104C46.4387 69.8818 46.2951 69.3656 46.5527 68.7959C46.8357 68.1704 47.3863 67.9372 47.7129 67.8604ZM49.333 69.0576L48.1016 69.5186L48.3994 70.7803C48.5815 70.7374 49.0435 70.5685 49.2861 70.0322C49.5032 69.5524 49.3679 69.1508 49.333 69.0576Z" fill="#D76894" stroke="#D76894" stroke-width="3" stroke-linejoin="round"/>
<path d="M38.0732 81.1689C38.7138 80.6708 39.6348 80.7717 40.1514 81.3975C40.6679 82.0234 40.5931 82.947 39.9824 83.4814C39.9299 83.5274 39.8136 83.6308 39.6943 83.7236C39.0537 84.2219 38.1327 84.1201 37.6162 83.4941C37.0999 82.8682 37.1755 81.9455 37.7861 81.4111C37.8086 81.3915 37.8447 81.3635 37.8857 81.3281C37.9133 81.305 37.9491 81.2741 38.0068 81.2236L38.0078 81.2246C38.0298 81.2067 38.0506 81.1866 38.0732 81.1689Z" fill="#D76894" stroke="#D76894" stroke-width="3" stroke-linejoin="round"/>
<path d="M39.1553 80.2949C39.7941 79.7981 40.712 79.8974 41.2295 80.5195C41.7469 81.1417 41.678 82.062 41.0732 82.5996C41.0419 82.6275 41.0381 82.6314 40.9766 82.6875C40.949 82.7127 40.9105 82.7436 40.8672 82.7803C40.862 82.7849 40.8569 82.7901 40.8516 82.7949L40.8506 82.7939C40.8268 82.8138 40.8034 82.8374 40.7764 82.8584C40.1376 83.3551 39.2196 83.2549 38.7021 82.6328C38.1849 82.0106 38.2546 81.0903 38.8594 80.5527C38.8904 80.5252 38.8939 80.5207 38.9551 80.4648C38.9813 80.4409 39.0181 80.4124 39.0586 80.3779C39.0657 80.3715 39.0725 80.3641 39.0801 80.3574L39.0811 80.3584C39.1047 80.3387 39.1284 80.3159 39.1553 80.2949Z" fill="#D76894" stroke="#D76894" stroke-width="3" stroke-linejoin="round"/>
<path d="M34.8449 15.8564C34.8109 15.916 34.7684 15.9755 34.7344 16.035" stroke="#D76894" stroke-width="3" stroke-linejoin="round"/>
<path d="M43.5508 77.7811C43.5933 77.7216 43.6443 77.6621 43.6868 77.6025" stroke="#D76894" stroke-width="3" stroke-linejoin="round"/>
<path d="M42.457 79.1299C42.4995 79.0789 42.5335 79.0364 42.5761 78.9854" stroke="#D76894" stroke-width="3" stroke-linejoin="round"/>
<path d="M38.4688 82.787C38.5283 82.7445 38.5793 82.7105 38.6388 82.668" stroke="#D76894" stroke-width="3" stroke-linejoin="round"/>
<path d="M35.1875 13.7275C35.9065 13.7275 36.5242 14.2383 36.6602 14.9443C36.7235 15.2736 36.6731 15.6017 36.5342 15.8857C36.4083 16.1582 36.1198 16.5903 35.5088 16.7432C35.0607 16.8552 34.5858 16.754 34.2217 16.4697C33.8577 16.1855 33.6446 15.7499 33.6445 15.2881V15.2451C33.6445 14.6589 33.9863 14.1304 34.5137 13.8857C34.7188 13.784 34.9454 13.7276 35.1787 13.7275H35.1875ZM33.6807 15.1592C33.6801 15.1717 33.6799 15.184 33.6797 15.1953C33.6796 15.2009 33.6788 15.2066 33.6787 15.2119C33.6787 15.2145 33.6787 15.2172 33.6787 15.2197C33.6789 15.1798 33.6822 15.1401 33.6855 15.1006C33.6836 15.1219 33.6815 15.1415 33.6807 15.1592ZM34.6465 13.873L35.0322 14.8389L34.7803 13.833C34.7337 13.8447 34.6892 13.8582 34.6465 13.873Z" fill="#D76894" stroke="#D76894" stroke-width="3" stroke-linejoin="round"/>
<path d="M33.0566 15.8936C33.4452 15.3107 34.1855 15.0743 34.8398 15.3242C35.4942 15.5742 35.889 16.244 35.79 16.9375L35.7891 16.9385V16.9443C35.7888 16.9463 35.7884 16.9482 35.7881 16.9502C35.7874 16.9545 35.7869 16.9592 35.7861 16.9639C35.7846 16.9732 35.7822 16.9834 35.7803 16.9941C35.7765 17.0153 35.7718 17.04 35.7656 17.0674C35.7537 17.1197 35.7333 17.1959 35.7002 17.2842C35.6671 17.3724 35.4862 17.8677 34.9326 18.1445C34.3243 18.4487 33.5868 18.3058 33.1367 17.7959C32.7122 17.315 32.644 16.6214 32.9541 16.0693C32.9593 16.0593 32.9663 16.0456 32.9746 16.0303C32.9934 15.9956 33.0205 15.9478 33.0566 15.8936ZM33.0566 15.8936L33.0703 15.9033M33.0566 15.8936L33.0703 15.9033M33.0703 15.9033C33.0651 15.9105 33.0585 15.917 33.0537 15.9238C32.9648 16.0509 32.9165 16.1652 32.8916 16.2314C32.865 16.3024 32.849 16.3628 32.8398 16.4033C32.835 16.4248 32.8313 16.4451 32.8281 16.4629C32.8265 16.4717 32.8246 16.4801 32.8232 16.4883C32.8226 16.4924 32.8219 16.4969 32.8213 16.501C32.821 16.503 32.8206 16.5058 32.8203 16.5078V16.5127C32.8258 16.5138 32.9107 16.5271 34.2178 16.7139L33.5908 15.4609C33.325 15.5938 33.1616 15.7779 33.0703 15.9033Z" fill="#D76894" stroke="#D76894" stroke-width="3" stroke-linejoin="round"/>
<path d="M33.3496 21.8174C33.3481 21.8205 33.345 21.8254 33.3428 21.8301C33.3223 21.8742 33.3078 21.9088 33.2988 21.9268C32.9392 22.646 32.0764 22.9534 31.3428 22.624C30.6092 22.2946 30.2659 21.4458 30.5645 20.6992C30.5919 20.6305 30.6223 20.5661 30.6348 20.54C30.6431 20.5224 30.6509 20.5071 30.6562 20.4961C30.6589 20.4906 30.6613 20.486 30.6631 20.4824C30.664 20.4807 30.6644 20.4788 30.665 20.4775L30.666 20.4756C31.0256 19.7564 31.8885 19.4481 32.6221 19.7773C33.3556 20.1067 33.6989 20.9555 33.4004 21.7021C33.3835 21.7443 33.3639 21.782 33.3486 21.8154L33.3496 21.8164V21.8154V21.8174ZM33.3477 21.8154L33.3496 21.8135L33.3193 21.8008C33.3376 21.8099 33.3447 21.814 33.3477 21.8154ZM30.6152 20.5889L30.6543 20.6045L30.6172 20.5859C30.6168 20.5869 30.6156 20.5879 30.6152 20.5889Z" fill="#D76894" stroke="#D76894" stroke-width="3" stroke-linejoin="round"/>
<path d="M70.7754 19.1221C71.3612 18.5363 72.3107 18.5363 72.8965 19.1221C72.927 19.1526 72.9526 19.1801 72.9717 19.2012C72.9749 19.2047 72.9775 19.2086 72.9805 19.2119C72.9927 19.2252 73.004 19.2357 73.0107 19.2432C73.0236 19.2575 73.0349 19.2701 73.043 19.2793C73.0471 19.284 73.0511 19.2881 73.0537 19.291C73.0549 19.2924 73.0558 19.294 73.0566 19.2949L73.0576 19.2959V19.2969C73.5904 19.9057 73.5449 20.8272 72.9541 21.3799C72.3635 21.9324 71.4412 21.9174 70.8691 21.3457C70.8387 21.3153 70.813 21.2877 70.7939 21.2666C70.7762 21.247 70.7601 21.2288 70.7539 21.2217L70.7754 21.2432C70.1896 20.6574 70.1896 19.7079 70.7754 19.1221Z" fill="#F5C8DA" stroke="#D76894" stroke-width="3" stroke-linejoin="round"/>
<path d="M33.1201 17.3398C33.64 17.3398 34.1232 17.6095 34.3965 18.0518C34.6695 18.4939 34.6943 19.0459 34.4619 19.5107L34.4531 19.5283C34.2375 19.9595 33.8275 20.2607 33.3516 20.3379C32.8756 20.4151 32.3917 20.2589 32.0508 19.918L32.0332 19.9004C31.6042 19.4714 31.4758 18.8261 31.708 18.2656C31.9402 17.7052 32.4871 17.3398 33.0938 17.3398H33.1201Z" fill="#D76894" stroke="#D76894" stroke-width="3" stroke-linejoin="round"/>
<path d="M38.7755 82.5398C38.7245 82.5823 38.682 82.6163 38.631 82.6588C38.5715 82.7013 38.5205 82.7353 38.461 82.7778C37.8489 83.2539 37.2113 83.6704 36.4887 83.9595C36.3102 83.8065 36.2677 83.6279 36.3187 83.3814C36.5142 82.4718 36.7437 81.5622 36.8543 80.627C36.9818 79.5474 36.7438 78.5102 36.7523 77.4476C36.7523 77.4306 36.7437 77.4136 36.7352 77.3966C36.5142 76.3594 36.3187 75.3138 36.0552 74.2851C35.7066 72.9249 35.3156 71.5733 34.899 70.2386C34.6185 69.3289 34.2699 68.4448 33.9384 67.5522C33.8278 67.2461 33.6748 66.9656 33.5558 66.6596C33.4623 66.43 33.3943 66.192 33.3178 65.954C33.2753 65.818 33.2413 65.6819 33.1988 65.5459C33.0967 65.2739 32.9862 65.0103 32.8927 64.7468C32.5612 63.8372 32.2296 62.919 31.8981 62.0009C31.4985 60.8788 31.082 59.7651 30.6909 58.6429C30.4444 57.9118 30.2318 57.1637 30.0108 56.4241C29.7133 55.421 29.3817 54.4349 29.1182 53.4232C28.8887 52.5221 28.7271 51.5955 28.5571 50.6773C28.4296 50.0057 28.3276 49.3341 28.2171 48.654C28.115 47.9995 28.013 47.3364 27.9365 46.6818C27.843 45.8742 27.69 45.075 27.6985 44.2674C27.707 41.4875 27.52 38.7077 27.9025 35.9363C27.979 35.3667 28.0385 34.7971 28.115 34.2275C28.2171 33.4964 28.3106 32.7653 28.4466 32.0427C28.5911 31.2861 28.7696 30.5295 28.9567 29.7814C29.1352 29.0843 29.3392 28.3957 29.5347 27.7071C29.7048 27.1205 29.8578 26.5255 30.0618 25.9474C30.2658 25.3693 30.5379 24.8167 30.7589 24.2471C30.8099 24.1196 30.7844 23.9666 30.7929 23.8221C30.7929 23.7881 30.8099 23.7626 30.8354 23.7456C31.2605 23.4395 31.3795 22.9975 31.4305 22.5129C31.4475 22.4534 31.456 22.3854 31.473 22.3259C31.7876 22.1048 31.8386 21.7733 31.8641 21.4332C31.8896 21.3652 31.9066 21.3057 31.9321 21.2377C31.9491 21.2037 31.9661 21.1697 31.9831 21.1272C32.0341 21.0167 32.0851 20.9062 32.1361 20.8042C32.3486 20.6681 32.4592 20.4896 32.3911 20.2346C32.6207 19.7755 32.8587 19.3079 33.0882 18.8489L33.0967 18.8319C33.1733 18.6959 33.2498 18.5598 33.3263 18.4238C33.4878 18.4068 33.5303 18.3218 33.4878 18.1773C33.5983 17.9648 33.7088 17.7522 33.8278 17.5312C34.0234 17.4972 34.0914 17.3867 34.0319 17.1997C34.0999 17.0636 34.1679 16.9276 34.2444 16.7916C34.2784 16.7746 34.2954 16.7491 34.2869 16.7151L34.3124 16.6811C34.4739 16.6726 34.5164 16.5876 34.4654 16.443C34.5504 16.307 34.6355 16.1625 34.7205 16.0265C34.7545 15.967 34.797 15.9075 34.831 15.848C34.933 15.6609 35.035 15.4654 35.1285 15.2784C35.154 15.2699 35.1625 15.2444 35.1625 15.2189C35.5026 14.7003 35.8426 14.1817 36.1827 13.6547C36.2422 13.5696 36.3017 13.4846 36.3697 13.3996C36.9818 12.49 37.5684 11.5549 38.2145 10.6707C39.6852 8.65596 41.2579 6.72619 43.0431 4.96644C43.6892 4.32885 44.3948 3.76777 45.2619 3.44473C46.6221 2.93466 48.0078 2.86665 49.4105 3.2237C52.522 4.02281 54.9873 5.87607 57.2401 8.05237C58.3198 9.09802 59.3144 10.2032 60.241 11.3848C60.5046 11.7249 60.8446 12.0054 61.1507 12.3115C61.2527 12.7365 61.3547 13.1616 61.4737 13.6802C61.2952 13.5356 61.1677 13.4506 61.0657 13.3401C59.765 11.9629 58.2688 10.8408 56.696 9.82062C55.6249 9.12352 54.5367 8.46043 53.4486 7.78033C51.5613 6.60717 49.5805 5.68054 47.4042 5.14497C46.5031 4.92394 45.6445 4.88993 44.7689 5.20447C43.9443 5.49351 43.3747 6.03759 42.9751 6.8112C42.5161 7.70382 42.312 8.66446 42.1505 9.62509C41.9975 10.5262 41.853 11.4273 41.768 12.3455C41.6999 13.0936 41.5724 13.8417 41.5894 14.6068C41.5894 14.6578 41.5894 14.7173 41.5809 14.7683C41.3004 16.2645 41.3344 17.7862 41.2919 19.2909C41.2324 21.5778 41.3344 23.8731 41.3854 26.1684C41.3854 26.4915 41.4449 26.8145 41.4704 27.1375C41.5129 27.6901 41.5554 28.2512 41.5979 28.8038C41.6064 28.9653 41.5979 29.1268 41.6319 29.2883C41.7594 30.1385 41.9125 30.9886 42.0315 31.8472C42.312 33.9215 42.8221 35.9448 43.2642 37.9766C43.3322 38.3081 43.4002 38.6397 43.5022 38.9712C43.7232 39.7278 43.9698 40.4844 44.1908 41.241C44.5138 42.3292 44.8199 43.4173 45.1514 44.497C45.364 45.1856 45.6105 45.8657 45.8315 46.5458C46.1886 47.6764 46.5286 48.8071 46.8857 49.9377C47.2427 51.0684 47.6593 52.182 47.9568 53.3297C48.2969 54.6389 48.5519 55.9651 48.8154 57.2828C49.0705 58.5409 49.232 59.8076 49.1895 61.0913C49.1555 62.1539 49.1215 63.2166 49.079 64.2792C49.0365 65.2399 48.8834 66.175 48.6114 67.0931C48.5944 67.1611 48.6454 67.2462 48.6624 67.3312C48.6369 67.3992 48.6199 67.4757 48.5944 67.5437C48.4414 67.6542 48.2799 67.7562 48.4414 67.9773C48.4159 68.0538 48.3989 68.1218 48.3734 68.1983C48.1948 68.3428 48.0843 68.5043 48.2119 68.7339C48.1608 68.9209 48.1183 69.1079 48.0758 69.2949C47.9228 69.3289 47.8973 69.4225 47.9483 69.5585C47.9143 69.686 47.8803 69.822 47.8548 69.9495C47.6763 70.0345 47.5403 70.1451 47.6933 70.3661C47.6763 70.4426 47.6508 70.5191 47.6338 70.5956C47.5488 70.6806 47.4212 70.7401 47.3872 70.8422C46.8517 72.2619 46.1631 73.5965 45.4065 74.8972C45.3214 75.0502 45.2874 75.2288 45.2279 75.3903C44.9899 75.7473 44.7604 76.1044 44.5223 76.4529C44.3438 76.4784 44.3268 76.606 44.3268 76.7505C44.1228 77.0225 43.9188 77.2946 43.7147 77.5666C43.6722 77.6261 43.6212 77.6856 43.5787 77.7451C43.4937 77.8556 43.4087 77.9576 43.3237 78.0682C43.2557 78.1617 43.1962 78.2552 43.1281 78.3487C42.9496 78.5527 42.7711 78.7568 42.5926 78.9523C42.5501 79.0033 42.5161 79.0458 42.4736 79.0968C41.6829 79.8789 40.8838 80.661 40.0932 81.4431C40.0167 81.5111 39.9487 81.5792 39.8722 81.6387C39.5916 81.8682 39.3026 82.0892 39.0221 82.3188C38.9456 82.3783 38.869 82.4463 38.801 82.5058L38.7755 82.5398Z" fill="#EF97B5"/>
<path d="M64.1422 46.9454C63.6491 48.4671 63.2495 50.0229 62.6545 51.5021C61.6853 53.9334 60.3591 56.1862 58.7439 58.252C57.9108 59.3232 57.0522 60.3603 56.066 61.2869C54.5443 62.7066 52.9121 63.9733 51.0163 64.8574C51.0588 64.0668 51.0333 63.2592 51.1524 62.4771C51.2969 61.508 51.0673 60.5728 51.0758 59.6207C51.0758 59.2636 51.0503 58.8981 50.9908 58.541C50.8038 57.4784 50.6338 56.4073 50.3958 55.3531C50.0897 54.0184 49.7242 52.7007 49.3586 51.383C49.0951 50.4309 48.789 49.4873 48.4915 48.5351C48.2535 47.7615 48.0154 46.9879 47.7689 46.2143C47.4203 45.1177 47.0378 44.0295 46.7062 42.9244C46.3492 41.7342 46.0091 40.5355 45.6861 39.3369C45.3971 38.2912 45.125 37.2456 44.87 36.1914C44.7425 35.6558 44.6575 35.1033 44.5554 34.5507C44.4279 33.9131 44.2834 33.284 44.1729 32.6464C44.0369 31.8473 43.9263 31.0397 43.8328 30.2406C43.6798 28.9314 43.5438 27.6222 43.4333 26.313C43.3653 25.4884 43.3228 24.6553 43.3058 23.8307C43.2718 22.3345 43.2207 20.8298 43.2378 19.3336C43.2633 17.8884 43.3653 16.4517 43.4418 15.0065C43.4418 14.8789 43.4418 14.7514 43.4588 14.6239C43.5948 13.5868 43.7648 12.5581 43.8498 11.5125C43.9263 10.5518 44.2324 9.64221 44.4279 8.70708C44.4534 8.57106 44.5894 8.46055 44.717 8.27352C44.9975 8.70708 45.227 9.07264 45.4651 9.42969C46.0346 10.2628 46.5787 11.1214 47.1908 11.9205C47.6924 12.5751 48.296 13.1617 48.823 13.7993C49.8432 15.032 51.0673 16.0521 52.368 16.9617C53.6347 17.8544 54.9694 18.645 56.3211 19.4101C56.9927 19.7926 57.7493 20.0137 58.4719 20.2857C58.6759 20.3622 58.9054 20.4472 59.135 20.2262C59.0415 20.1497 58.982 20.0817 58.9139 20.0307C58.0893 19.4526 57.2562 18.883 56.4316 18.3049C54.7314 17.1148 53.1246 15.7971 51.6964 14.2754C51.2289 13.7738 50.7528 13.2807 50.3022 12.7622C48.9591 11.2404 47.7519 9.62521 46.7827 7.83996C46.6552 7.61043 46.5702 7.3639 46.4597 7.10036C46.6042 7.06635 46.6722 7.02385 46.7402 7.03235C47.2163 7.12586 47.7094 7.17687 48.1599 7.33839C48.8825 7.60193 49.5796 7.94198 50.2767 8.27352C51.7389 8.97062 53.1331 9.79524 54.4933 10.6964C56.1341 11.776 57.7663 12.8727 59.186 14.2499C59.7811 14.8279 60.3761 15.4145 60.9372 16.0266C61.7873 16.9447 62.3229 17.9904 62.1189 19.3081C62.0764 19.5546 62.1019 19.8096 62.1189 20.0647C62.1444 20.7873 62.1699 21.5099 62.2209 22.224C62.2804 22.9636 62.3484 23.6947 62.4759 24.4258C62.646 25.4204 62.8755 26.3981 63.0625 27.3927C63.4111 29.2375 63.7426 31.0822 64.0742 32.927C64.1677 33.42 64.2357 33.9216 64.3207 34.4147C64.4482 35.2308 64.6267 36.0469 64.6948 36.8715C64.7798 37.8917 64.8223 38.9288 64.7968 39.9575C64.7713 41.2326 64.6778 42.5163 64.5757 43.7915C64.5332 44.3441 64.3972 44.8881 64.3037 45.4407C64.2357 45.8828 64.1677 46.3248 64.1082 46.7754C64.1082 46.8179 64.1422 46.8774 64.1677 46.9199L64.1422 46.9454Z" fill="#F5C8DA"/>
<path d="M16.7067 44.3003C17.0808 43.3057 17.4208 42.3026 17.8204 41.3249C18.271 40.2283 18.7385 39.1401 19.2571 38.0775C20.2857 35.9437 21.6204 33.9969 23.0146 32.0926C23.9328 30.8429 24.9954 29.7038 26.0155 28.5391C26.4491 28.0376 26.9507 27.5955 27.4182 27.1279C27.4267 27.3405 27.4863 27.5615 27.4437 27.7655C27.1717 29.0832 26.8062 30.3839 26.5511 31.7101C26.3046 32.9852 26.1346 34.2689 25.9815 35.5611C25.9305 36.0117 25.905 36.4622 25.8625 36.9043C25.803 37.5844 25.684 38.2645 25.6925 38.9446C25.6925 41.0529 25.65 43.1612 25.8455 45.278C25.99 46.8252 26.2026 48.3554 26.4151 49.8856C26.5001 50.5062 26.6701 51.1183 26.7977 51.7389C26.8827 52.1384 26.9762 52.5465 27.0527 52.946C27.1462 53.4221 27.2057 53.9067 27.3247 54.3742C27.5288 55.1563 27.7498 55.9385 27.9878 56.7121C28.2599 57.6132 28.5319 58.5058 28.8294 59.3899C29.246 60.6141 29.6881 61.8383 30.1301 63.054C30.5637 64.2526 31.0057 65.4513 31.4988 66.633C31.9324 67.6616 32.2894 68.7242 32.638 69.7869C33.2586 71.6997 33.9387 73.6039 34.4062 75.5677C34.7038 76.8174 34.9078 78.0841 34.9418 79.3677C34.9843 81.255 34.5677 83.0488 33.7346 84.7575C33.5816 85.072 33.3181 85.3526 33.3606 85.7436C33.029 86.0752 32.6975 86.3897 32.3744 86.7298C31.5413 87.6224 30.4617 87.9794 29.2885 88.1155C28.2344 88.243 27.1972 88.0559 26.1941 87.7669C24.4088 87.2653 22.8361 86.3132 21.3314 85.2591C19.2401 83.8054 17.4633 82.0286 15.9586 79.9798C15.7036 79.6313 15.4401 79.2912 15.1765 78.9512C15.1765 78.8067 15.219 78.6621 15.1935 78.5261C15.1255 78.1776 15.015 77.829 14.9385 77.4805C14.8195 76.9364 14.675 76.3923 14.5984 75.8397C14.4879 75.0576 14.4539 74.2585 14.3349 73.4849C14.0714 71.7677 14.0289 70.0334 13.9694 68.3162C13.8928 65.9359 14.0204 63.5555 14.0544 61.1752C14.0544 61.0817 14.0714 60.9967 14.0799 60.9032C14.1649 59.8235 14.2499 58.7524 14.3519 57.6727C14.4539 56.5846 14.5729 55.4879 14.709 54.3997C14.794 53.7367 14.9045 53.0821 15.0235 52.4275C15.287 50.9568 15.5421 49.4861 15.8566 48.0239C16.0862 46.9357 16.4007 45.8646 16.6727 44.7764C16.7067 44.6234 16.6982 44.4619 16.7152 44.3003H16.7067Z" fill="#F5C8DA"/>
<path d="M64.1414 46.9472C64.1244 46.8962 64.0819 46.8452 64.0819 46.8027C64.1414 46.3606 64.2094 45.91 64.2774 45.468C64.3624 44.9154 64.5069 44.3713 64.5494 43.8188C64.6515 42.5436 64.745 41.2599 64.7705 39.9847C64.796 38.9561 64.7535 37.9274 64.6685 36.8988C64.6004 36.0742 64.4304 35.2666 64.2944 34.4419C64.2179 33.9404 64.1414 33.4473 64.0479 32.9542C63.7163 31.1095 63.3848 29.2647 63.0362 27.42C62.8492 26.4338 62.6197 25.4477 62.4496 24.453C62.3221 23.7219 62.2541 22.9908 62.1946 22.2512C62.1351 21.5286 62.1181 20.806 62.0926 20.0919C62.0841 19.8369 62.0586 19.5819 62.0926 19.3353C62.2966 18.0261 61.7696 16.9805 60.9109 16.0539C60.3499 15.4418 59.7548 14.8637 59.1597 14.2771C57.74 12.8999 56.1078 11.8033 54.467 10.7236C53.1068 9.831 51.7126 9.00639 50.2504 8.30079C49.5533 7.96924 48.8562 7.6377 48.1336 7.36566C47.6831 7.19563 47.19 7.15313 46.7139 7.05962C46.6544 7.05111 46.5779 7.08512 46.4334 7.12763C46.5524 7.39116 46.6374 7.6377 46.7565 7.86723C47.7256 9.65248 48.9328 11.2677 50.2759 12.7894C50.7265 13.2995 51.2026 13.8011 51.6701 14.3026C53.0983 15.8158 54.6966 17.1335 56.4053 18.3322C57.2299 18.9103 58.063 19.4884 58.8876 20.0579C58.9557 20.1089 59.0152 20.1684 59.1087 20.2535C58.8791 20.4745 58.6496 20.3895 58.4456 20.313C57.723 20.0324 56.9664 19.8114 56.2948 19.4373C54.9431 18.6722 53.6084 17.8816 52.3417 16.989C51.0496 16.0709 49.8254 15.0592 48.7967 13.8266C48.2697 13.189 47.6661 12.6109 47.1645 11.9478C46.5524 11.1487 46.0083 10.2901 45.4388 9.45695C45.2007 9.1084 44.9712 8.74285 44.6907 8.30079C44.5631 8.48782 44.4271 8.59833 44.4016 8.73435C44.2061 9.66948 43.9001 10.5706 43.8235 11.5397C43.7385 12.5769 43.5685 13.614 43.4325 14.6512C43.4155 14.7787 43.4155 14.9062 43.4155 15.0337C43.3475 16.4789 43.237 17.9156 43.2115 19.3608C43.186 20.857 43.237 22.3533 43.2795 23.858C43.2965 24.6911 43.339 25.5157 43.407 26.3403C43.5175 27.6495 43.662 28.9587 43.8065 30.2679C43.9001 31.0755 44.0106 31.8746 44.1466 32.6737C44.2486 33.3113 44.4016 33.9404 44.5291 34.578C44.6397 35.122 44.7162 35.6746 44.8437 36.2187C45.0987 37.2728 45.3708 38.3185 45.6598 39.3641C45.9913 40.5628 46.3229 41.7615 46.6799 42.9516C47.0115 44.0568 47.394 45.1449 47.7426 46.2416C47.9891 47.0152 48.2272 47.7888 48.4652 48.5624C48.7542 49.5061 49.0688 50.4497 49.3323 51.4103C49.6979 52.728 50.0634 54.0457 50.3695 55.3804C50.616 56.4345 50.786 57.4972 50.9645 58.5683C51.024 58.9254 51.0496 59.2909 51.0496 59.648C51.0496 60.6001 51.2706 61.5437 51.1261 62.5044C51.007 63.2865 51.0325 64.0856 50.99 64.8847C50.7435 65.0887 50.4885 65.2843 50.2504 65.4968C49.7319 65.9388 49.2643 66.4319 48.9158 67.027C48.8392 67.163 48.7202 67.2735 48.6182 67.3926C48.6012 67.316 48.5502 67.2225 48.5672 67.1545C48.8392 66.2364 48.9923 65.3013 49.0348 64.3406C49.0773 63.278 49.1113 62.2153 49.1453 61.1527C49.1878 59.869 49.0178 58.6023 48.7712 57.3441C48.5077 56.018 48.2527 54.6918 47.9126 53.3911C47.6151 52.2434 47.1985 51.1298 46.8415 49.9991C46.4844 48.8685 46.1444 47.7378 45.7873 46.6071C45.5663 45.9185 45.3197 45.247 45.1072 44.5584C44.7757 43.4787 44.4696 42.3906 44.1466 41.3024C43.9171 40.5458 43.679 39.7892 43.458 39.0326C43.3645 38.7095 43.2965 38.3695 43.22 38.0379C42.7779 35.9977 42.2678 33.9744 41.9873 31.9086C41.8683 31.05 41.7152 30.1999 41.5877 29.3497C41.5622 29.1882 41.5707 29.0267 41.5537 28.8652C41.5112 28.3126 41.4687 27.7515 41.4262 27.1989C41.4007 26.8759 41.3497 26.5528 41.3412 26.2298C41.2987 23.9345 41.1882 21.6477 41.2477 19.3523C41.2902 17.8476 41.2477 16.3259 41.5367 14.8297C41.5452 14.7787 41.5452 14.7192 41.5452 14.6682C41.5282 13.9116 41.6642 13.1635 41.7237 12.4069C41.8003 11.4887 41.9533 10.5876 42.1063 9.68648C42.2678 8.72585 42.4719 7.76521 42.9309 6.87259C43.3305 6.09898 43.9001 5.55491 44.7247 5.26587C45.6003 4.95132 46.4589 4.98533 47.36 5.20636C49.5278 5.74193 51.5171 6.66856 53.4044 7.84173C54.4925 8.51332 55.5807 9.18491 56.6518 9.88201C58.2246 10.9022 59.7293 12.0328 61.0214 13.4015C61.1235 13.512 61.251 13.597 61.4295 13.7416C61.3105 13.223 61.2085 12.7979 61.1065 12.3729C61.9226 12.8404 62.7387 13.2995 63.5633 13.7671C63.6313 14.0306 63.7078 14.2856 63.7673 14.5492C63.8778 15.0167 63.9714 15.4928 64.0734 15.9689C64.1329 16.2579 64.2944 16.4024 64.609 16.4874C65.2295 16.6575 65.8586 16.8615 66.4452 17.1335C68.1624 17.9326 69.7777 18.9188 71.3249 20.0239C71.4609 20.1259 71.6394 20.1684 71.801 20.2365H71.7925C71.8265 20.2705 71.852 20.3045 71.886 20.3385C73.2547 21.9622 74.4448 23.7134 75.618 25.4732C75.8475 25.8132 76.0685 26.1618 76.2811 26.5188C76.3746 26.6889 76.4341 26.8759 76.5021 27.0544C76.3406 26.9609 76.1451 26.8929 76.009 26.7654C75.5245 26.3063 75.0824 25.7962 74.5808 25.3627C73.4587 24.3765 72.3025 23.4329 71.1634 22.4638C69.5396 21.0781 67.7799 19.8964 65.8586 18.9613C65.2975 18.6892 64.7025 18.5022 64.0819 18.4427C64.0479 18.5022 64.0139 18.5362 64.0139 18.5617C64.0309 19.5564 64.0479 20.5425 64.0819 21.5286C64.0989 21.9027 64.1584 22.2767 64.2094 22.6593C64.2944 23.3394 64.3539 24.0195 64.4644 24.6911C64.5579 25.2522 64.7365 25.8047 64.847 26.3658C65.1275 27.828 65.3741 29.2987 65.6546 30.7609C65.8501 31.7811 66.0542 32.8012 66.2582 33.8214C66.2752 33.9064 66.2667 33.9999 66.2752 34.0934C66.3602 34.901 66.4452 35.7001 66.5217 36.5077C66.5897 37.2218 66.6662 37.9359 66.7087 38.6585C66.7427 39.2706 66.7257 39.8912 66.7087 40.5033C66.6832 41.4044 66.6407 42.3055 66.5982 43.2067C66.5812 43.4787 66.5217 43.7422 66.5217 44.0143C66.5217 44.2013 66.5897 44.3883 66.6322 44.5669C65.7141 45.247 64.915 46.0461 64.2094 46.9387C64.1924 46.9642 64.1499 46.9727 64.1159 46.9897L64.1414 46.9472Z" fill="#D76894"/>
<path d="M66.6652 44.5138C66.6227 44.3268 66.5547 44.1397 66.5547 43.9612C66.5547 43.6892 66.6227 43.4257 66.6312 43.1536C66.6737 42.2525 66.7163 41.3514 66.7418 40.4502C66.7588 39.8381 66.7673 39.2176 66.7418 38.6055C66.7078 37.8914 66.6227 37.1688 66.5547 36.4547C66.4782 35.6471 66.3932 34.8479 66.3082 34.0403C66.2997 33.9468 66.3082 33.8618 66.2912 33.7683C66.0957 32.7482 65.8831 31.728 65.6876 30.7079C65.4156 29.2457 65.1605 27.775 64.88 26.3128C64.7695 25.7517 64.5995 25.1991 64.4974 24.638C64.3869 23.9664 64.3189 23.2863 64.2424 22.6062C64.1999 22.2322 64.1319 21.8581 64.1149 21.4756C64.0809 20.4894 64.0639 19.4948 64.0469 18.5087C64.0469 18.4747 64.0809 18.4492 64.1149 18.3896C64.7355 18.4492 65.3306 18.6362 65.8916 18.9082C67.8129 19.8434 69.5727 21.0165 71.1964 22.4107C72.3355 23.3798 73.4917 24.332 74.6139 25.3096C75.1154 25.7517 75.5575 26.2532 76.0421 26.7123C76.1781 26.8398 76.3651 26.9078 76.5351 27.0014C76.9262 27.6474 77.2662 28.319 77.4277 29.0756C77.1387 29.1437 76.8497 29.2542 76.5521 29.2797C75.5575 29.3817 74.6224 29.0841 73.7042 28.7781C72.6841 28.4296 71.7405 27.877 70.8393 27.2819C69.6492 26.4998 68.5015 25.6667 67.3283 24.8591C67.1668 24.7485 67.0223 24.6125 66.7758 24.689C66.7418 25.1056 67.0223 25.3691 67.2518 25.6157C68.1189 26.5253 69.0031 27.4264 69.9212 28.2935C70.9158 29.2287 72.106 29.8748 73.3557 30.3848C74.6904 30.9289 76.0761 31.2434 77.5298 30.9119C77.3172 32.0256 76.7732 32.9947 76.2036 33.9553C74.3588 37.0158 72.0975 39.7361 69.4536 42.1335C68.544 42.9581 67.5919 43.7232 66.6567 44.5138H66.6652Z" fill="#EF97B5"/>
<path d="M12.7438 77.2275C12.2337 76.9725 11.6896 76.7515 11.2136 76.4454C9.17327 75.1192 7.34551 73.538 5.78979 71.6678C4.92267 70.6221 4.14906 69.5085 3.58799 68.2673C2.9759 66.9071 2.83988 65.4959 3.18843 64.0422C3.64749 62.1549 4.44661 60.4037 5.32223 58.6864C6.5634 56.2551 8.05961 53.9768 9.71734 51.809C10.95 50.2023 12.2932 48.689 13.7129 47.2523C13.7724 47.1928 13.8574 47.1418 13.9254 47.0908C13.8574 47.4989 13.7894 47.9069 13.7129 48.3065C13.5769 49.0886 13.4409 49.8622 13.3048 50.6443C13.1858 51.3329 13.0498 52.0215 12.9648 52.7186C12.8628 53.5007 12.8033 54.2913 12.7183 55.0734C12.6248 55.8385 12.5142 56.6037 12.4207 57.3688C12.3782 57.6918 12.3442 58.0148 12.3102 58.3294C12.2762 58.763 12.2422 59.188 12.2167 59.6216C12.1742 60.1401 12.1062 60.6587 12.0977 61.1858C12.0892 64.3312 12.0977 67.4682 12.0977 70.6136C12.0977 70.7921 12.1062 70.9707 12.1232 71.1577C12.1827 71.8378 12.2507 72.5179 12.3102 73.198C12.3357 73.47 12.3527 73.7335 12.3782 74.0056C12.4887 75.0767 12.8033 76.1224 12.7438 77.219V77.2275Z" fill="#EF97B5"/>
<path d="M33.3595 85.7279C33.317 85.3369 33.5805 85.0478 33.7335 84.7418C34.5666 83.0416 34.9832 81.2393 34.9407 79.352C34.9152 78.0769 34.7027 76.8102 34.4051 75.552C33.9376 73.5882 33.2575 71.6925 32.6369 69.7712C32.2883 68.7085 31.9313 67.6459 31.4977 66.6173C31.0046 65.4356 30.5626 64.2369 30.129 63.0383C29.6955 61.8226 29.2534 60.5984 28.8283 59.3742C28.5223 58.4901 28.2503 57.589 27.9867 56.6964C27.7572 55.9228 27.5277 55.1492 27.3236 54.3585C27.2046 53.891 27.1451 53.4064 27.0516 52.9303C26.9751 52.5223 26.8816 52.1227 26.7966 51.7232C26.669 51.1026 26.499 50.4905 26.414 49.8699C26.2015 48.3397 25.9889 46.8095 25.8444 45.2623C25.6489 43.1455 25.6914 41.0457 25.6914 38.9289C25.6914 38.2488 25.8019 37.5687 25.8614 36.8886C25.9039 36.438 25.9294 35.9875 25.9804 35.5454C26.1335 34.2617 26.3035 32.978 26.55 31.6944C26.8051 30.3682 27.1706 29.076 27.4426 27.7498C27.4852 27.5458 27.4256 27.3248 27.4171 27.1122C27.7742 26.7807 28.1312 26.4661 28.4798 26.1261C29.2619 25.361 30.044 24.5874 30.8176 23.8223C30.8176 23.9668 30.8346 24.1198 30.7836 24.2473C30.5626 24.8169 30.2905 25.3695 30.0865 25.9476C29.8825 26.5256 29.7295 27.1207 29.5594 27.7073C29.3639 28.3959 29.1514 29.0845 28.9814 29.7816C28.7943 30.5297 28.6158 31.2863 28.4713 32.0429C28.3353 32.7655 28.2418 33.4966 28.1397 34.2277C28.0632 34.7973 28.0037 35.3669 27.9272 35.9365C27.5447 38.7078 27.7402 41.4877 27.7232 44.2676C27.7232 45.0752 27.8677 45.8829 27.9612 46.682C28.0377 47.3451 28.1397 47.9996 28.2418 48.6542C28.3438 49.3258 28.4543 50.0059 28.5818 50.6775C28.7518 51.5957 28.9134 52.5223 29.1429 53.4234C29.3979 54.435 29.7295 55.4297 30.0355 56.4243C30.2565 57.1639 30.4691 57.912 30.7156 58.6431C31.0982 59.7653 31.5147 60.8875 31.9228 62.0011C32.2543 62.9192 32.5774 63.8289 32.9174 64.747C33.0194 65.019 33.1299 65.2826 33.2235 65.5461C33.2745 65.6821 33.3 65.8181 33.3425 65.9542C33.419 66.1922 33.487 66.4302 33.5805 66.6598C33.6995 66.9573 33.8525 67.2463 33.9631 67.5524C34.2946 68.445 34.6432 69.3291 34.9237 70.2388C35.3403 71.5819 35.7228 72.9251 36.0799 74.2853C36.3434 75.314 36.5304 76.3596 36.76 77.3968C36.76 77.4138 36.777 77.4308 36.777 77.4478C36.7685 78.5104 37.0065 79.5476 36.879 80.6272C36.7685 81.5623 36.5389 82.472 36.3434 83.3816C36.2924 83.6281 36.3349 83.7982 36.5134 83.9597C36.3094 84.0872 36.1054 84.2147 35.8928 84.3422C35.1532 84.7673 34.4136 85.2009 33.674 85.6174C33.589 85.6684 33.4785 85.6854 33.385 85.7194L33.3595 85.7279Z" fill="#D76894"/>
<path d="M12.7437 77.2269C12.8033 76.1387 12.4887 75.0846 12.3782 74.0134C12.3527 73.7414 12.3357 73.4778 12.3102 73.2058C12.2507 72.5257 12.1827 71.8456 12.1232 71.1655C12.1062 70.987 12.0977 70.8085 12.0977 70.6214C12.0977 67.476 12.0977 64.3391 12.0977 61.1936C12.0977 60.675 12.1742 60.1565 12.2167 59.6294C12.2507 59.1958 12.2762 58.7708 12.3102 58.3372C12.3357 58.0142 12.3782 57.6911 12.4207 57.3766C12.5227 56.6115 12.6332 55.8464 12.7182 55.0813C12.8118 54.2992 12.8628 53.5085 12.9648 52.7264C13.0583 52.0293 13.1858 51.3407 13.3048 50.6521C13.4408 49.87 13.5769 49.0964 13.7129 48.3143C13.7809 47.9063 13.8489 47.5067 13.9254 47.0986C14.852 46.1635 15.7787 45.2369 16.6968 44.3018C16.6798 44.4633 16.6968 44.6248 16.6543 44.7778C16.3823 45.8575 16.0762 46.9371 15.8382 48.0253C15.5321 49.4875 15.2771 50.9582 15.0051 52.4289C14.886 53.0835 14.7755 53.7381 14.6905 54.4012C14.5545 55.4893 14.444 56.5775 14.3335 57.6741C14.2315 58.7453 14.1549 59.8249 14.0614 60.9046C14.0614 60.9981 14.0359 61.0831 14.0359 61.1766C13.9934 63.5569 13.8744 65.9373 13.9509 68.3176C14.0019 70.0434 14.0444 71.7691 14.3165 73.4863C14.4355 74.2684 14.4695 75.0591 14.58 75.8412C14.6565 76.3937 14.801 76.9378 14.9201 77.4819C14.9966 77.8304 15.1071 78.179 15.1751 78.5275C15.2006 78.6636 15.1666 78.8081 15.1581 78.9526C15.0391 78.8846 14.8945 78.8336 14.7925 78.7401C14.223 78.196 13.5854 77.7454 12.8883 77.3799C12.8288 77.3459 12.7863 77.2864 12.7267 77.2354L12.7437 77.2269Z" fill="#D76894"/>
<path d="M77.5426 30.9139C76.0888 31.2369 74.703 30.9309 73.3682 30.3868C72.1185 29.8767 70.9198 29.239 69.9336 28.2954C69.0154 27.4282 68.1397 26.527 67.2641 25.6174C67.0345 25.3708 66.754 25.1073 66.788 24.6907C67.0345 24.6057 67.1791 24.7502 67.3406 24.8607C68.5138 25.6684 69.6615 26.5015 70.8518 27.2837C71.7529 27.8788 72.6881 28.4314 73.7168 28.78C74.6265 29.086 75.5702 29.3836 76.5649 29.2816C76.8624 29.2475 77.1515 29.1455 77.4405 29.0775C77.5085 29.2561 77.6191 29.4346 77.6191 29.6131C77.6191 30.0467 77.5766 30.4803 77.5426 30.9139Z" fill="#D76894"/>
<path d="M71.8436 20.1846C71.682 20.1166 71.5035 20.0741 71.3675 19.9721C69.8202 18.8753 68.2049 17.8806 66.4875 17.0815C65.9009 16.8094 65.2803 16.6054 64.6512 16.4354C64.3366 16.3504 64.1836 16.2143 64.1156 15.9168C64.0135 15.4407 63.9115 14.9731 63.8095 14.497C63.75 14.2334 63.6735 13.9784 63.6055 13.7148C64.9232 14.1144 66.122 14.7605 67.2102 15.5937C68.766 16.7754 70.1092 18.1867 71.376 19.6575C71.529 19.836 71.6905 20.0061 71.8436 20.1761V20.1846Z" fill="#F5C8DA"/>
<path d="M45.1999 75.416C45.2594 75.2545 45.2934 75.076 45.3784 74.9229C46.1351 73.6222 46.8322 72.2874 47.3593 70.8676C47.3933 70.7656 47.5209 70.7061 47.6059 70.6211C47.4443 71.0547 47.3253 71.5053 47.1298 71.9133C46.6282 72.942 46.0841 73.9537 45.5485 74.9569C45.4635 75.127 45.3104 75.263 45.1914 75.416H45.1999Z" fill="#D76894"/>
<path d="M31.4623 22.5312C31.4113 23.0158 31.2923 23.4579 30.8672 23.764C31.0627 23.3559 31.2668 22.9393 31.4623 22.5312Z" fill="#D76894"/>
<path d="M31.8989 21.4502C31.8734 21.7903 31.8224 22.1218 31.5078 22.3429C31.6353 22.0453 31.7714 21.7478 31.8989 21.4502Z" fill="#D76894"/>
<path d="M32.4152 20.2432C32.4832 20.5067 32.3727 20.6767 32.1602 20.8128C32.2452 20.6257 32.3302 20.4302 32.4152 20.2432Z" fill="#D76894"/>
<path d="M48.2035 68.77C48.076 68.5404 48.1865 68.3789 48.3651 68.2344C48.3141 68.4129 48.263 68.5914 48.2035 68.77Z" fill="#D76894"/>
<path d="M48.4304 68.0107C48.2689 67.7897 48.4304 67.6877 48.5834 67.5771C48.5324 67.7217 48.4814 67.8662 48.4304 68.0107Z" fill="#D76894"/>
<path d="M47.6757 70.3922C47.5227 70.1711 47.6587 70.0606 47.8373 69.9756C47.7862 70.1116 47.7267 70.2561 47.6757 70.3922Z" fill="#D76894"/>
<path d="M36.3784 13.4082C36.3189 13.4932 36.2594 13.5782 36.1914 13.6633C36.2509 13.5782 36.3104 13.4932 36.3784 13.4082Z" fill="#D76894"/>
<path d="M34.0478 17.2178C34.1073 17.4048 34.0393 17.5153 33.8438 17.5493C33.9118 17.4388 33.9798 17.3283 34.0478 17.2178Z" fill="#D76894"/>
<path d="M44.3008 76.7761C44.3008 76.6315 44.3178 76.504 44.4963 76.4785C44.4283 76.5805 44.3688 76.6741 44.3008 76.7761Z" fill="#D76894"/>
<path d="M34.4812 16.4521C34.5322 16.5967 34.4897 16.6817 34.3281 16.6902C34.3791 16.6137 34.4301 16.5287 34.4812 16.4521Z" fill="#D76894"/>
<path d="M33.5131 18.1865C33.5556 18.3311 33.5131 18.4161 33.3516 18.4331C33.4026 18.3481 33.4536 18.2715 33.5131 18.1865Z" fill="#D76894"/>
<path d="M47.9286 69.5839C47.8775 69.4478 47.9116 69.3543 48.0561 69.3203C48.0136 69.4053 47.9711 69.4903 47.9286 69.5839Z" fill="#D76894"/>
<path d="M38.7734 82.5396C38.85 82.4801 38.9265 82.4121 38.9945 82.3525C38.918 82.4121 38.8415 82.4801 38.7734 82.5396Z" fill="#D76894"/>
<path d="M39.8555 81.674C39.932 81.606 40 81.538 40.0765 81.4785C40 81.5465 39.932 81.6145 39.8555 81.674Z" fill="#D76894"/>
<path d="M35.1789 15.2275C35.1789 15.2275 35.1789 15.2791 35.1445 15.2877V15.2447L35.1875 15.2275H35.1789Z" fill="#D76894"/>
<path d="M34.3047 16.7256C34.3047 16.7256 34.2961 16.7858 34.2617 16.803C34.2789 16.7772 34.2875 16.7514 34.3047 16.7256Z" fill="#D76894"/>
<path d="M32.008 21.1455C32.008 21.1455 31.974 21.2135 31.957 21.256C31.974 21.222 31.991 21.188 32.008 21.1455Z" fill="#D76894"/>
<path d="M71.9295 20.2846C71.9295 20.2846 71.8699 20.2166 71.8359 20.1826C71.8699 20.2166 71.8954 20.2506 71.9295 20.2846Z" fill="#F5C8DA"/>
<path d="M33.1202 18.8398L33.1114 18.8575L33.0938 18.8398H33.1202Z" fill="#D76894"/>
</svg>
