<svg width="253" height="57" viewBox="0 0 253 57" fill="none" xmlns="http://www.w3.org/2000/svg">
<g id="concept">
<g id="text_2">
<mask id="path-1-outside-1_0_1" maskUnits="userSpaceOnUse" x="-0.797852" y="-0.310059" width="253" height="58" fill="black">
<rect fill="white" x="-0.797852" y="-0.310059" width="253" height="58"/>
<path d="M3.99996 17.4999C3.99996 16.1499 5.07996 15.0699 6.42996 15.0699H19.93C21.28 15.0699 22.36 16.1499 22.36 17.4999C22.36 18.8499 21.28 19.9299 19.93 19.9299H15.61V41.2599C15.61 42.6099 14.53 43.6899 13.18 43.6899C11.83 43.6899 10.75 42.6099 10.75 41.2599V19.9299H6.42996C5.07996 19.9299 3.99996 18.8499 3.99996 17.4999ZM35.3516 39.3699C37.5116 39.3699 39.1316 37.7499 39.6716 36.1299C39.6716 36.1299 40.2116 34.7799 41.8316 34.7799C43.1816 34.7799 44.2616 35.8599 44.2616 37.2099C44.2616 38.2899 43.9916 38.8299 43.9916 38.8299C42.6416 41.7999 40.2116 44.2299 35.3516 44.2299C29.4116 44.2299 25.0916 39.9099 25.0916 29.3799C25.0916 18.8499 29.4116 14.5299 35.0816 14.5299C40.7516 14.5299 45.0716 18.8499 45.0716 29.6499C45.0716 30.7299 43.9916 31.8099 42.9116 31.8099H29.9516C30.2216 37.2099 32.3816 39.3699 35.3516 39.3699ZM29.9516 26.9499H40.2116C39.9416 21.5499 37.7816 19.3899 35.0816 19.3899C32.3816 19.3899 30.2216 21.5499 29.9516 26.9499ZM69.6332 17.4999V41.2599C69.6332 42.6099 68.5532 43.6899 67.2032 43.6899C65.8532 43.6899 64.7732 42.6099 64.7732 41.2599V19.9299H56.1332V41.2599C56.1332 42.6099 55.0532 43.6899 53.7032 43.6899C52.3532 43.6899 51.2732 42.6099 51.2732 41.2599V17.4999C51.2732 16.1499 52.3532 15.0699 53.7032 15.0699H67.2032C68.5532 15.0699 69.6332 16.1499 69.6332 17.4999ZM86.3985 39.3699C88.5585 39.3699 90.1785 37.7499 90.7185 36.1299C90.7185 36.1299 91.2585 34.7799 92.8785 34.7799C94.2285 34.7799 95.3085 35.8599 95.3085 37.2099C95.3085 38.2899 95.0385 38.8299 95.0385 38.8299C93.6885 41.7999 91.2585 44.2299 86.3985 44.2299C80.4585 44.2299 76.1385 39.9099 76.1385 29.3799C76.1385 18.8499 80.4585 14.5299 86.1285 14.5299C91.7985 14.5299 96.1185 18.8499 96.1185 29.6499C96.1185 30.7299 95.0385 31.8099 93.9585 31.8099H80.9985C81.2685 37.2099 83.4285 39.3699 86.3985 39.3699ZM80.9985 26.9499H91.2585C90.9885 21.5499 88.8285 19.3899 86.1285 19.3899C83.4285 19.3899 81.2685 21.5499 80.9985 26.9499ZM107.18 40.1799V50.4399C107.18 51.7899 106.1 52.8699 104.75 52.8699C103.4 52.8699 102.32 51.7899 102.32 50.4399V17.4999C102.32 16.1499 103.4 15.0699 104.75 15.0699C106.1 15.0699 107.18 16.1499 107.18 17.4999V18.0399C107.18 18.0399 109.34 14.5299 113.66 14.5299C118.52 14.5299 122.84 18.8499 122.84 29.1099C122.84 39.3699 118.52 43.6899 113.66 43.6899C109.34 43.6899 107.18 40.1799 107.18 40.1799ZM107.18 23.1699V35.0499C107.18 35.0499 109.34 38.8299 112.58 38.8299C115.82 38.8299 117.98 36.6699 117.98 29.1099C117.98 21.5499 115.82 19.3899 112.58 19.3899C109.34 19.3899 107.18 23.1699 107.18 23.1699ZM132.344 43.6899H131.75C130.4 43.6899 129.32 42.6099 129.32 41.2599V17.4999C129.32 16.1499 130.4 15.0699 131.75 15.0699C133.1 15.0699 134.18 16.1499 134.18 17.4999V25.0599C134.18 25.0599 135.26 24.7899 136.88 24.7899C142.82 24.7899 146.6 28.5699 146.6 33.9699C146.6 38.8299 141.74 43.6899 132.344 43.6899ZM134.18 29.9199V38.8299C139.58 38.2899 141.74 36.1299 141.74 33.4299C141.74 31.2699 140.12 29.6499 136.88 29.6499C135.26 29.6499 134.18 29.9199 134.18 29.9199ZM157.932 17.4999C157.932 16.1499 159.012 15.0699 160.362 15.0699H173.862C175.212 15.0699 176.292 16.1499 176.292 17.4999C176.292 18.8499 175.212 19.9299 173.862 19.9299H169.542V41.2599C169.542 42.6099 168.462 43.6899 167.112 43.6899C165.762 43.6899 164.682 42.6099 164.682 41.2599V19.9299H160.362C159.012 19.9299 157.932 18.8499 157.932 17.4999ZM192.511 26.9499C192.511 26.9499 197.911 28.5699 197.911 34.2399C197.911 38.8299 193.051 43.6899 183.601 43.6899H183.061C181.711 43.6899 180.631 42.6099 180.631 41.2599V17.7699C180.631 16.4199 181.711 15.3399 183.331 15.0699C183.331 15.0699 185.491 14.5299 187.651 14.5299C192.511 14.5299 195.751 17.7699 195.751 21.5499C195.751 25.3299 192.511 26.9499 192.511 26.9499ZM190.891 22.0899C190.891 20.4699 189.811 19.3899 187.651 19.3899C186.571 19.3899 185.491 19.6599 185.491 19.6599V25.3299C189.271 25.3299 190.891 23.7099 190.891 22.0899ZM185.491 30.1899V38.8299C190.891 38.2899 193.051 36.1299 193.051 33.6999C193.051 31.8099 191.431 30.1899 188.191 30.1899H185.491ZM212.486 39.3699C215.726 39.3699 217.886 37.2099 217.886 29.3799C217.886 21.5499 215.726 19.3899 212.486 19.3899C209.246 19.3899 207.086 21.5499 207.086 29.3799C207.086 37.2099 209.246 39.3699 212.486 39.3699ZM212.486 44.2299C206.546 44.2299 202.226 39.9099 202.226 29.3799C202.226 18.8499 206.546 14.5299 212.486 14.5299C218.426 14.5299 222.746 18.8499 222.746 29.3799C222.746 39.9099 218.426 44.2299 212.486 44.2299ZM248.152 17.4999V41.2599C248.152 42.6099 247.072 43.6899 245.722 43.6899C244.372 43.6899 243.292 42.6099 243.292 41.2599V25.8699L234.112 42.0699C233.626 42.8799 232.762 43.6899 231.682 43.6899C230.332 43.6899 229.252 42.6099 229.252 41.2599V17.4999C229.252 16.1499 230.332 15.0699 231.682 15.0699C233.032 15.0699 234.112 16.1499 234.112 17.4999V32.8899L243.292 16.6899C243.778 15.8799 244.642 15.0699 245.722 15.0699C247.072 15.0699 248.152 16.1499 248.152 17.4999ZM238.702 7.50994C239.782 7.50994 240.592 6.69994 240.862 5.88994C241.24 4.80994 241.942 3.99994 243.292 3.99994C244.372 3.99994 245.452 5.07994 245.452 6.15994C245.452 6.69994 245.236 7.50994 245.236 7.50994C244.642 9.66994 242.482 11.8299 238.702 11.8299C234.922 11.8299 232.762 9.66994 232.168 7.50994C232.168 7.50994 231.952 6.69994 231.952 6.15994C231.952 5.07994 233.032 3.99994 234.112 3.99994C235.462 3.99994 236.164 4.80994 236.542 5.88994C236.812 6.69994 237.622 7.50994 238.702 7.50994Z"/>
</mask>
<path d="M3.99996 17.4999C3.99996 16.1499 5.07996 15.0699 6.42996 15.0699H19.93C21.28 15.0699 22.36 16.1499 22.36 17.4999C22.36 18.8499 21.28 19.9299 19.93 19.9299H15.61V41.2599C15.61 42.6099 14.53 43.6899 13.18 43.6899C11.83 43.6899 10.75 42.6099 10.75 41.2599V19.9299H6.42996C5.07996 19.9299 3.99996 18.8499 3.99996 17.4999ZM35.3516 39.3699C37.5116 39.3699 39.1316 37.7499 39.6716 36.1299C39.6716 36.1299 40.2116 34.7799 41.8316 34.7799C43.1816 34.7799 44.2616 35.8599 44.2616 37.2099C44.2616 38.2899 43.9916 38.8299 43.9916 38.8299C42.6416 41.7999 40.2116 44.2299 35.3516 44.2299C29.4116 44.2299 25.0916 39.9099 25.0916 29.3799C25.0916 18.8499 29.4116 14.5299 35.0816 14.5299C40.7516 14.5299 45.0716 18.8499 45.0716 29.6499C45.0716 30.7299 43.9916 31.8099 42.9116 31.8099H29.9516C30.2216 37.2099 32.3816 39.3699 35.3516 39.3699ZM29.9516 26.9499H40.2116C39.9416 21.5499 37.7816 19.3899 35.0816 19.3899C32.3816 19.3899 30.2216 21.5499 29.9516 26.9499ZM69.6332 17.4999V41.2599C69.6332 42.6099 68.5532 43.6899 67.2032 43.6899C65.8532 43.6899 64.7732 42.6099 64.7732 41.2599V19.9299H56.1332V41.2599C56.1332 42.6099 55.0532 43.6899 53.7032 43.6899C52.3532 43.6899 51.2732 42.6099 51.2732 41.2599V17.4999C51.2732 16.1499 52.3532 15.0699 53.7032 15.0699H67.2032C68.5532 15.0699 69.6332 16.1499 69.6332 17.4999ZM86.3985 39.3699C88.5585 39.3699 90.1785 37.7499 90.7185 36.1299C90.7185 36.1299 91.2585 34.7799 92.8785 34.7799C94.2285 34.7799 95.3085 35.8599 95.3085 37.2099C95.3085 38.2899 95.0385 38.8299 95.0385 38.8299C93.6885 41.7999 91.2585 44.2299 86.3985 44.2299C80.4585 44.2299 76.1385 39.9099 76.1385 29.3799C76.1385 18.8499 80.4585 14.5299 86.1285 14.5299C91.7985 14.5299 96.1185 18.8499 96.1185 29.6499C96.1185 30.7299 95.0385 31.8099 93.9585 31.8099H80.9985C81.2685 37.2099 83.4285 39.3699 86.3985 39.3699ZM80.9985 26.9499H91.2585C90.9885 21.5499 88.8285 19.3899 86.1285 19.3899C83.4285 19.3899 81.2685 21.5499 80.9985 26.9499ZM107.18 40.1799V50.4399C107.18 51.7899 106.1 52.8699 104.75 52.8699C103.4 52.8699 102.32 51.7899 102.32 50.4399V17.4999C102.32 16.1499 103.4 15.0699 104.75 15.0699C106.1 15.0699 107.18 16.1499 107.18 17.4999V18.0399C107.18 18.0399 109.34 14.5299 113.66 14.5299C118.52 14.5299 122.84 18.8499 122.84 29.1099C122.84 39.3699 118.52 43.6899 113.66 43.6899C109.34 43.6899 107.18 40.1799 107.18 40.1799ZM107.18 23.1699V35.0499C107.18 35.0499 109.34 38.8299 112.58 38.8299C115.82 38.8299 117.98 36.6699 117.98 29.1099C117.98 21.5499 115.82 19.3899 112.58 19.3899C109.34 19.3899 107.18 23.1699 107.18 23.1699ZM132.344 43.6899H131.75C130.4 43.6899 129.32 42.6099 129.32 41.2599V17.4999C129.32 16.1499 130.4 15.0699 131.75 15.0699C133.1 15.0699 134.18 16.1499 134.18 17.4999V25.0599C134.18 25.0599 135.26 24.7899 136.88 24.7899C142.82 24.7899 146.6 28.5699 146.6 33.9699C146.6 38.8299 141.74 43.6899 132.344 43.6899ZM134.18 29.9199V38.8299C139.58 38.2899 141.74 36.1299 141.74 33.4299C141.74 31.2699 140.12 29.6499 136.88 29.6499C135.26 29.6499 134.18 29.9199 134.18 29.9199ZM157.932 17.4999C157.932 16.1499 159.012 15.0699 160.362 15.0699H173.862C175.212 15.0699 176.292 16.1499 176.292 17.4999C176.292 18.8499 175.212 19.9299 173.862 19.9299H169.542V41.2599C169.542 42.6099 168.462 43.6899 167.112 43.6899C165.762 43.6899 164.682 42.6099 164.682 41.2599V19.9299H160.362C159.012 19.9299 157.932 18.8499 157.932 17.4999ZM192.511 26.9499C192.511 26.9499 197.911 28.5699 197.911 34.2399C197.911 38.8299 193.051 43.6899 183.601 43.6899H183.061C181.711 43.6899 180.631 42.6099 180.631 41.2599V17.7699C180.631 16.4199 181.711 15.3399 183.331 15.0699C183.331 15.0699 185.491 14.5299 187.651 14.5299C192.511 14.5299 195.751 17.7699 195.751 21.5499C195.751 25.3299 192.511 26.9499 192.511 26.9499ZM190.891 22.0899C190.891 20.4699 189.811 19.3899 187.651 19.3899C186.571 19.3899 185.491 19.6599 185.491 19.6599V25.3299C189.271 25.3299 190.891 23.7099 190.891 22.0899ZM185.491 30.1899V38.8299C190.891 38.2899 193.051 36.1299 193.051 33.6999C193.051 31.8099 191.431 30.1899 188.191 30.1899H185.491ZM212.486 39.3699C215.726 39.3699 217.886 37.2099 217.886 29.3799C217.886 21.5499 215.726 19.3899 212.486 19.3899C209.246 19.3899 207.086 21.5499 207.086 29.3799C207.086 37.2099 209.246 39.3699 212.486 39.3699ZM212.486 44.2299C206.546 44.2299 202.226 39.9099 202.226 29.3799C202.226 18.8499 206.546 14.5299 212.486 14.5299C218.426 14.5299 222.746 18.8499 222.746 29.3799C222.746 39.9099 218.426 44.2299 212.486 44.2299ZM248.152 17.4999V41.2599C248.152 42.6099 247.072 43.6899 245.722 43.6899C244.372 43.6899 243.292 42.6099 243.292 41.2599V25.8699L234.112 42.0699C233.626 42.8799 232.762 43.6899 231.682 43.6899C230.332 43.6899 229.252 42.6099 229.252 41.2599V17.4999C229.252 16.1499 230.332 15.0699 231.682 15.0699C233.032 15.0699 234.112 16.1499 234.112 17.4999V32.8899L243.292 16.6899C243.778 15.8799 244.642 15.0699 245.722 15.0699C247.072 15.0699 248.152 16.1499 248.152 17.4999ZM238.702 7.50994C239.782 7.50994 240.592 6.69994 240.862 5.88994C241.24 4.80994 241.942 3.99994 243.292 3.99994C244.372 3.99994 245.452 5.07994 245.452 6.15994C245.452 6.69994 245.236 7.50994 245.236 7.50994C244.642 9.66994 242.482 11.8299 238.702 11.8299C234.922 11.8299 232.762 9.66994 232.168 7.50994C232.168 7.50994 231.952 6.69994 231.952 6.15994C231.952 5.07994 233.032 3.99994 234.112 3.99994C235.462 3.99994 236.164 4.80994 236.542 5.88994C236.812 6.69994 237.622 7.50994 238.702 7.50994Z" fill="white"/>
<path d="M15.61 19.9299V15.9299C13.4008 15.9299 11.61 17.7208 11.61 19.9299H15.61ZM10.75 19.9299H14.75C14.75 17.7208 12.9591 15.9299 10.75 15.9299V19.9299ZM3.99996 17.4999H7.99996C7.99996 18.3591 7.2891 19.0699 6.42996 19.0699V15.0699V11.0699C2.87082 11.0699 -3.91006e-05 13.9408 -3.91006e-05 17.4999H3.99996ZM6.42996 15.0699V19.0699H19.93V15.0699V11.0699H6.42996V15.0699ZM19.93 15.0699V19.0699C19.0708 19.0699 18.36 18.3591 18.36 17.4999H22.36H26.36C26.36 13.9408 23.4891 11.0699 19.93 11.0699V15.0699ZM22.36 17.4999H18.36C18.36 16.6408 19.0708 15.9299 19.93 15.9299V19.9299V23.9299C23.4891 23.9299 26.36 21.0591 26.36 17.4999H22.36ZM19.93 19.9299V15.9299H15.61V19.9299V23.9299H19.93V19.9299ZM15.61 19.9299H11.61V41.2599H15.61H19.61V19.9299H15.61ZM15.61 41.2599H11.61C11.61 40.4008 12.3208 39.6899 13.18 39.6899V43.6899V47.6899C16.7391 47.6899 19.61 44.8191 19.61 41.2599H15.61ZM13.18 43.6899V39.6899C14.0391 39.6899 14.75 40.4008 14.75 41.2599H10.75H6.74996C6.74996 44.8191 9.62082 47.6899 13.18 47.6899V43.6899ZM10.75 41.2599H14.75V19.9299H10.75H6.74996V41.2599H10.75ZM10.75 19.9299V15.9299H6.42996V19.9299V23.9299H10.75V19.9299ZM6.42996 19.9299V15.9299C7.2891 15.9299 7.99996 16.6408 7.99996 17.4999H3.99996H-3.91006e-05C-3.91006e-05 21.0591 2.87082 23.9299 6.42996 23.9299V19.9299ZM39.6716 36.1299L35.9577 34.6444C35.9286 34.7171 35.9016 34.7907 35.8769 34.865L39.6716 36.1299ZM43.9916 38.8299L40.4139 37.0411C40.3918 37.0852 40.3706 37.1298 40.3501 37.1747L43.9916 38.8299ZM29.9516 31.8099V27.8099C28.8561 27.8099 27.8085 28.2593 27.0534 29.053C26.2983 29.8468 25.9019 30.9155 25.9566 32.0097L29.9516 31.8099ZM29.9516 26.9499L25.9566 26.7502C25.9019 27.8444 26.2983 28.9131 27.0534 29.7068C27.8085 30.5006 28.8561 30.9499 29.9516 30.9499V26.9499ZM40.2116 26.9499V30.9499C41.3071 30.9499 42.3547 30.5006 43.1098 29.7068C43.8649 28.9131 44.2613 27.8444 44.2066 26.7502L40.2116 26.9499ZM35.3516 39.3699V43.3699C39.6184 43.3699 42.5144 40.2505 43.4663 37.3949L39.6716 36.1299L35.8769 34.865C35.8663 34.8969 35.8369 34.9656 35.7785 35.0504C35.7211 35.1337 35.6536 35.2064 35.5862 35.2616C35.4595 35.3652 35.3882 35.3699 35.3516 35.3699V39.3699ZM39.6716 36.1299C43.3855 37.6155 43.3848 37.6174 43.384 37.6192C43.3838 37.6199 43.383 37.6217 43.3825 37.623C43.3815 37.6254 43.3805 37.6279 43.3795 37.6303C43.3776 37.6352 43.3756 37.6401 43.3736 37.6449C43.3697 37.6544 43.3658 37.6638 43.362 37.673C43.3543 37.6913 43.3467 37.7089 43.3393 37.7257C43.3245 37.7594 43.3101 37.7906 43.296 37.8195C43.2681 37.8769 43.2401 37.9289 43.2113 37.977C43.1569 38.0676 43.082 38.1739 42.9725 38.2834C42.704 38.5519 42.2703 38.7799 41.8316 38.7799V34.7799V30.7799C39.7729 30.7799 38.2592 31.683 37.3157 32.6265C36.8688 33.0734 36.5576 33.5173 36.3513 33.861C36.2465 34.0357 36.1637 34.1931 36.0999 34.3243C36.0679 34.3902 36.0403 34.4504 36.0168 34.5038C36.005 34.5306 35.9943 34.5557 35.9844 34.5792C35.9795 34.5909 35.9748 34.6022 35.9704 34.6131C35.9681 34.6185 35.966 34.6238 35.9639 34.629C35.9628 34.6317 35.9618 34.6342 35.9607 34.6368C35.9602 34.6381 35.9595 34.64 35.9592 34.6406C35.9585 34.6425 35.9577 34.6444 39.6716 36.1299ZM41.8316 34.7799V38.7799C40.9725 38.7799 40.2616 38.0691 40.2616 37.2099H44.2616H48.2616C48.2616 33.6508 45.3907 30.7799 41.8316 30.7799V34.7799ZM44.2616 37.2099H40.2616C40.2616 37.4129 40.2367 37.4923 40.246 37.4548C40.2504 37.4374 40.2624 37.3937 40.2885 37.3242C40.3015 37.2895 40.3179 37.2486 40.3386 37.2013C40.3489 37.1777 40.3603 37.1526 40.3728 37.1259C40.3791 37.1125 40.3856 37.0988 40.3925 37.0846C40.3959 37.0776 40.3994 37.0704 40.4029 37.0631C40.4047 37.0595 40.4065 37.0559 40.4084 37.0522C40.4093 37.0503 40.4102 37.0485 40.4111 37.0466C40.4116 37.0457 40.4123 37.0443 40.4125 37.0439C40.4132 37.0425 40.4139 37.0411 43.9916 38.8299C47.5693 40.6188 47.57 40.6174 47.5707 40.616C47.5709 40.6155 47.5716 40.6141 47.5721 40.6132C47.5731 40.6113 47.574 40.6094 47.5749 40.6075C47.5768 40.6037 47.5787 40.5998 47.5807 40.5959C47.5845 40.5882 47.5884 40.5802 47.5923 40.5721C47.6002 40.5558 47.6082 40.5389 47.6165 40.5214C47.6329 40.4862 47.6501 40.4484 47.6678 40.4079C47.7033 40.3269 47.7408 40.2354 47.7791 40.1332C47.8558 39.9287 47.9353 39.6825 48.0072 39.3951C48.1515 38.8176 48.2616 38.0869 48.2616 37.2099H44.2616ZM43.9916 38.8299L40.3501 37.1747C39.8754 38.2192 39.3235 38.9215 38.678 39.378C38.0657 39.8111 37.0802 40.2299 35.3516 40.2299V44.2299V48.2299C38.483 48.2299 41.1425 47.4338 43.2977 45.9094C45.4197 44.4084 46.7578 42.4107 47.6331 40.4852L43.9916 38.8299ZM35.3516 44.2299V40.2299C33.4483 40.2299 32.1397 39.5969 31.1779 38.3322C30.0904 36.9023 29.0916 34.1847 29.0916 29.3799H25.0916H21.0916C21.0916 35.1052 22.2528 39.8125 24.8103 43.1752C27.4935 46.703 31.3149 48.2299 35.3516 48.2299V44.2299ZM25.0916 29.3799H29.0916C29.0916 24.5791 30.0888 21.8416 31.1658 20.399C32.1213 19.1189 33.3722 18.5299 35.0816 18.5299V14.5299V10.5299C31.121 10.5299 27.3769 12.101 24.7549 15.6134C22.2544 18.9633 21.0916 23.6508 21.0916 29.3799H25.0916ZM35.0816 14.5299V18.5299C36.7848 18.5299 38.0258 19.1129 38.9815 20.4112C40.0667 21.8855 41.0716 24.695 41.0716 29.6499H45.0716H49.0716C49.0716 23.8049 47.9165 19.0544 45.4242 15.6687C42.8024 12.1069 39.0484 10.5299 35.0816 10.5299V14.5299ZM45.0716 29.6499H41.0716C41.0716 28.889 41.4118 28.4629 41.5682 28.3065C41.7246 28.1501 42.1507 27.8099 42.9116 27.8099V31.8099V35.8099C44.7525 35.8099 46.2586 34.9298 47.225 33.9634C48.1914 32.997 49.0716 31.4909 49.0716 29.6499H45.0716ZM42.9116 31.8099V27.8099H29.9516V31.8099V35.8099H42.9116V31.8099ZM29.9516 31.8099L25.9566 32.0097C26.1124 35.1253 26.8307 37.948 28.4817 40.0707C30.2705 42.3706 32.7794 43.3699 35.3516 43.3699V39.3699V35.3699C35.0974 35.3699 34.9888 35.3253 34.9629 35.3134C34.9486 35.3068 34.8935 35.2839 34.7965 35.1592C34.5575 34.8518 34.0608 33.8946 33.9466 31.6102L29.9516 31.8099ZM29.9516 26.9499V30.9499H40.2116V26.9499V22.9499H29.9516V26.9499ZM40.2116 26.9499L44.2066 26.7502C44.0504 23.6268 43.3309 20.8423 41.7579 18.7449C40.0604 16.4817 37.6385 15.3899 35.0816 15.3899V19.3899V23.3899C35.2146 23.3899 35.2448 23.4138 35.2265 23.4049C35.2034 23.3936 35.2533 23.4056 35.3579 23.5449C35.6073 23.8776 36.1028 24.8731 36.2166 27.1497L40.2116 26.9499ZM35.0816 19.3899V15.3899C32.5247 15.3899 30.1028 16.4817 28.4054 18.7449C26.8323 20.8423 26.1128 23.6268 25.9566 26.7502L29.9516 26.9499L33.9466 27.1497C34.0604 24.8731 34.5559 23.8776 34.8054 23.5449C34.9099 23.4056 34.9598 23.3936 34.9367 23.4049C34.9184 23.4138 34.9486 23.3899 35.0816 23.3899V19.3899ZM64.7732 19.9299H68.7732C68.7732 17.7208 66.9823 15.9299 64.7732 15.9299V19.9299ZM56.1332 19.9299V15.9299C53.924 15.9299 52.1332 17.7208 52.1332 19.9299H56.1332ZM69.6332 17.4999H65.6332V41.2599H69.6332H73.6332V17.4999H69.6332ZM69.6332 41.2599H65.6332C65.6332 40.4008 66.344 39.6899 67.2032 39.6899V43.6899V47.6899C70.7623 47.6899 73.6332 44.8191 73.6332 41.2599H69.6332ZM67.2032 43.6899V39.6899C68.0623 39.6899 68.7732 40.4008 68.7732 41.2599H64.7732H60.7732C60.7732 44.8191 63.644 47.6899 67.2032 47.6899V43.6899ZM64.7732 41.2599H68.7732V19.9299H64.7732H60.7732V41.2599H64.7732ZM64.7732 19.9299V15.9299H56.1332V19.9299V23.9299H64.7732V19.9299ZM56.1332 19.9299H52.1332V41.2599H56.1332H60.1332V19.9299H56.1332ZM56.1332 41.2599H52.1332C52.1332 40.4008 52.844 39.6899 53.7032 39.6899V43.6899V47.6899C57.2623 47.6899 60.1332 44.8191 60.1332 41.2599H56.1332ZM53.7032 43.6899V39.6899C54.5623 39.6899 55.2732 40.4008 55.2732 41.2599H51.2732H47.2732C47.2732 44.8191 50.144 47.6899 53.7032 47.6899V43.6899ZM51.2732 41.2599H55.2732V17.4999H51.2732H47.2732V41.2599H51.2732ZM51.2732 17.4999H55.2732C55.2732 18.3591 54.5623 19.0699 53.7032 19.0699V15.0699V11.0699C50.144 11.0699 47.2732 13.9408 47.2732 17.4999H51.2732ZM53.7032 15.0699V19.0699H67.2032V15.0699V11.0699H53.7032V15.0699ZM67.2032 15.0699V19.0699C66.344 19.0699 65.6332 18.3591 65.6332 17.4999H69.6332H73.6332C73.6332 13.9408 70.7623 11.0699 67.2032 11.0699V15.0699ZM90.7185 36.1299L87.0046 34.6444C86.9755 34.7171 86.9485 34.7907 86.9237 34.865L90.7185 36.1299ZM95.0385 38.8299L91.4608 37.0411C91.4387 37.0852 91.4174 37.1298 91.397 37.1747L95.0385 38.8299ZM80.9985 31.8099V27.8099C79.9029 27.8099 78.8554 28.2593 78.1003 29.053C77.3452 29.8468 76.9488 30.9155 77.0035 32.0097L80.9985 31.8099ZM80.9985 26.9499L77.0035 26.7502C76.9488 27.8444 77.3452 28.9131 78.1003 29.7068C78.8554 30.5006 79.9029 30.9499 80.9985 30.9499V26.9499ZM91.2585 26.9499V30.9499C92.354 30.9499 93.4016 30.5006 94.1567 29.7068C94.9117 28.9131 95.3082 27.8444 95.2535 26.7502L91.2585 26.9499ZM86.3985 39.3699V43.3699C90.6653 43.3699 93.5613 40.2505 94.5132 37.3949L90.7185 36.1299L86.9237 34.865C86.9131 34.8969 86.8838 34.9656 86.8254 35.0504C86.768 35.1337 86.7005 35.2064 86.633 35.2616C86.5064 35.3652 86.4351 35.3699 86.3985 35.3699V39.3699ZM90.7185 36.1299C94.4324 37.6155 94.4316 37.6174 94.4309 37.6192C94.4306 37.6199 94.4299 37.6217 94.4294 37.623C94.4284 37.6254 94.4274 37.6279 94.4264 37.6303C94.4244 37.6352 94.4225 37.6401 94.4205 37.6449C94.4166 37.6544 94.4127 37.6638 94.4089 37.673C94.4012 37.6913 94.3936 37.7089 94.3862 37.7257C94.3714 37.7594 94.357 37.7906 94.3429 37.8195C94.315 37.8769 94.287 37.9289 94.2581 37.977C94.2038 38.0676 94.1288 38.1739 94.0194 38.2834C93.7509 38.5519 93.3171 38.7799 92.8785 38.7799V34.7799V30.7799C90.8198 30.7799 89.3061 31.683 88.3625 32.6265C87.9156 33.0734 87.6044 33.5173 87.3982 33.861C87.2934 34.0357 87.2106 34.1931 87.1468 34.3243C87.1148 34.3902 87.0872 34.4504 87.0637 34.5038C87.0519 34.5306 87.0411 34.5557 87.0313 34.5792C87.0264 34.5909 87.0217 34.6022 87.0173 34.6131C87.015 34.6185 87.0129 34.6238 87.0107 34.629C87.0097 34.6317 87.0086 34.6342 87.0076 34.6368C87.0071 34.6381 87.0063 34.64 87.0061 34.6406C87.0053 34.6425 87.0046 34.6444 90.7185 36.1299ZM92.8785 34.7799V38.7799C92.0193 38.7799 91.3085 38.0691 91.3085 37.2099H95.3085H99.3085C99.3085 33.6508 96.4376 30.7799 92.8785 30.7799V34.7799ZM95.3085 37.2099H91.3085C91.3085 37.4129 91.2835 37.4923 91.2929 37.4548C91.2973 37.4374 91.3093 37.3937 91.3354 37.3242C91.3484 37.2895 91.3648 37.2486 91.3855 37.2013C91.3958 37.1777 91.4072 37.1526 91.4197 37.1259C91.4259 37.1125 91.4325 37.0988 91.4393 37.0846C91.4427 37.0776 91.4463 37.0704 91.4498 37.0631C91.4516 37.0595 91.4534 37.0559 91.4552 37.0522C91.4562 37.0503 91.4571 37.0485 91.458 37.0466C91.4585 37.0457 91.4591 37.0443 91.4594 37.0439C91.4601 37.0425 91.4608 37.0411 95.0385 38.8299C98.6162 40.6188 98.6169 40.6174 98.6176 40.616C98.6178 40.6155 98.6185 40.6141 98.619 40.6132C98.6199 40.6113 98.6209 40.6094 98.6218 40.6075C98.6237 40.6037 98.6256 40.5998 98.6275 40.5959C98.6314 40.5882 98.6352 40.5802 98.6392 40.5721C98.647 40.5558 98.6551 40.5389 98.6633 40.5214C98.6798 40.4862 98.697 40.4484 98.7147 40.4079C98.7501 40.3269 98.7877 40.2354 98.826 40.1332C98.9027 39.9287 98.9822 39.6825 99.054 39.3951C99.1984 38.8176 99.3085 38.0869 99.3085 37.2099H95.3085ZM95.0385 38.8299L91.397 37.1747C90.9222 38.2192 90.3703 38.9215 89.7249 39.378C89.1126 39.8111 88.127 40.2299 86.3985 40.2299V44.2299V48.2299C89.5299 48.2299 92.1894 47.4338 94.3446 45.9094C96.4666 44.4084 97.8047 42.4107 98.6799 40.4852L95.0385 38.8299ZM86.3985 44.2299V40.2299C84.4952 40.2299 83.1866 39.5969 82.2248 38.3322C81.1372 36.9023 80.1385 34.1847 80.1385 29.3799H76.1385H72.1385C72.1385 35.1052 73.2997 39.8125 75.8572 43.1752C78.5404 46.703 82.3617 48.2299 86.3985 48.2299V44.2299ZM76.1385 29.3799H80.1385C80.1385 24.5791 81.1357 21.8416 82.2126 20.399C83.1682 19.1189 84.4191 18.5299 86.1285 18.5299V14.5299V10.5299C82.1679 10.5299 78.4238 12.101 75.8018 15.6134C73.3012 18.9633 72.1385 23.6508 72.1385 29.3799H76.1385ZM86.1285 14.5299V18.5299C87.8317 18.5299 89.0727 19.1129 90.0284 20.4112C91.1136 21.8855 92.1185 24.695 92.1185 29.6499H96.1185H100.118C100.118 23.8049 98.9634 19.0544 96.4711 15.6687C93.8492 12.1069 90.0953 10.5299 86.1285 10.5299V14.5299ZM96.1185 29.6499H92.1185C92.1185 28.889 92.4587 28.4629 92.6151 28.3065C92.7714 28.1501 93.1975 27.8099 93.9585 27.8099V31.8099V35.8099C95.7994 35.8099 97.3055 34.9298 98.2719 33.9634C99.2383 32.997 100.118 31.4909 100.118 29.6499H96.1185ZM93.9585 31.8099V27.8099H80.9985V31.8099V35.8099H93.9585V31.8099ZM80.9985 31.8099L77.0035 32.0097C77.1592 35.1253 77.8776 37.948 79.5286 40.0707C81.3174 42.3706 83.8262 43.3699 86.3985 43.3699V39.3699V35.3699C86.1443 35.3699 86.0357 35.3253 86.0097 35.3134C85.9954 35.3068 85.9404 35.2839 85.8434 35.1592C85.6043 34.8518 85.1077 33.8946 84.9935 31.6102L80.9985 31.8099ZM80.9985 26.9499V30.9499H91.2585V26.9499V22.9499H80.9985V26.9499ZM91.2585 26.9499L95.2535 26.7502C95.0973 23.6268 94.3777 20.8423 92.8047 18.7449C91.1073 16.4817 88.6854 15.3899 86.1285 15.3899V19.3899V23.3899C86.2615 23.3899 86.2916 23.4138 86.2734 23.4049C86.2502 23.3936 86.3002 23.4056 86.4047 23.5449C86.6542 23.8776 87.1496 24.8731 87.2635 27.1497L91.2585 26.9499ZM86.1285 19.3899V15.3899C83.5716 15.3899 81.1496 16.4817 79.4522 18.7449C77.8792 20.8423 77.1596 23.6268 77.0035 26.7502L80.9985 26.9499L84.9935 27.1497C85.1073 24.8731 85.6027 23.8776 85.8522 23.5449C85.9567 23.4056 86.0067 23.3936 85.9836 23.4049C85.9653 23.4138 85.9955 23.3899 86.1285 23.3899V19.3899ZM107.18 40.1799L110.587 38.0836C109.649 36.5594 107.813 35.8438 106.091 36.3311C104.369 36.8185 103.18 38.3904 103.18 40.1799H107.18ZM107.18 18.0399H103.18C103.18 19.8295 104.369 21.4014 106.091 21.8887C107.813 22.3761 109.649 21.6604 110.587 20.1363L107.18 18.0399ZM107.18 23.1699L103.707 21.1854C103.362 21.7898 103.18 22.4738 103.18 23.1699H107.18ZM107.18 35.0499H103.18C103.18 35.746 103.362 36.4301 103.707 37.0345L107.18 35.0499ZM107.18 40.1799H103.18V50.4399H107.18H111.18V40.1799H107.18ZM107.18 50.4399H103.18C103.18 49.5808 103.891 48.8699 104.75 48.8699V52.8699V56.8699C108.309 56.8699 111.18 53.9991 111.18 50.4399H107.18ZM104.75 52.8699V48.8699C105.609 48.8699 106.32 49.5808 106.32 50.4399H102.32H98.32C98.32 53.9991 101.191 56.8699 104.75 56.8699V52.8699ZM102.32 50.4399H106.32V17.4999H102.32H98.32V50.4399H102.32ZM102.32 17.4999H106.32C106.32 18.3591 105.609 19.0699 104.75 19.0699V15.0699V11.0699C101.191 11.0699 98.32 13.9408 98.32 17.4999H102.32ZM104.75 15.0699V19.0699C103.891 19.0699 103.18 18.3591 103.18 17.4999H107.18H111.18C111.18 13.9408 108.309 11.0699 104.75 11.0699V15.0699ZM107.18 17.4999H103.18V18.0399H107.18H111.18V17.4999H107.18ZM107.18 18.0399C110.587 20.1363 110.586 20.1378 110.585 20.1393C110.585 20.1397 110.584 20.1412 110.583 20.1421C110.582 20.144 110.581 20.1458 110.58 20.1476C110.577 20.1512 110.575 20.1546 110.573 20.1578C110.569 20.1641 110.566 20.1698 110.563 20.1747C110.557 20.1844 110.552 20.1913 110.549 20.1955C110.544 20.2038 110.545 20.2016 110.553 20.1902C110.569 20.167 110.611 20.1095 110.677 20.0288C110.813 19.8632 111.031 19.6261 111.322 19.3894C111.898 18.9216 112.656 18.5299 113.66 18.5299V14.5299V10.5299C110.344 10.5299 107.862 11.8933 106.278 13.1805C105.489 13.8213 104.897 14.4616 104.493 14.9542C104.289 15.2025 104.128 15.4192 104.009 15.588C103.95 15.6726 103.901 15.7458 103.861 15.8055C103.842 15.8354 103.825 15.862 103.81 15.8851C103.803 15.8966 103.796 15.9073 103.79 15.917C103.787 15.9219 103.784 15.9266 103.781 15.931C103.78 15.9332 103.778 15.9353 103.777 15.9374C103.777 15.9385 103.776 15.94 103.775 15.9405C103.774 15.9421 103.773 15.9436 107.18 18.0399ZM113.66 14.5299V18.5299C114.776 18.5299 115.868 18.9677 116.818 20.2974C117.856 21.7506 118.84 24.4761 118.84 29.1099H122.84H126.84C126.84 23.4838 125.664 18.9193 123.327 15.6475C120.902 12.2522 117.404 10.5299 113.66 10.5299V14.5299ZM122.84 29.1099H118.84C118.84 33.7438 117.856 36.4693 116.818 37.9225C115.868 39.2522 114.776 39.6899 113.66 39.6899V43.6899V47.6899C117.404 47.6899 120.902 45.9677 123.327 42.5724C125.664 39.3006 126.84 34.7361 126.84 29.1099H122.84ZM113.66 43.6899V39.6899C112.656 39.6899 111.898 39.2983 111.322 38.8305C111.031 38.5938 110.813 38.3567 110.677 38.1911C110.611 38.1104 110.569 38.0528 110.553 38.0297C110.545 38.0183 110.544 38.016 110.549 38.0244C110.552 38.0285 110.557 38.0354 110.563 38.0452C110.566 38.0501 110.569 38.0557 110.573 38.0621C110.575 38.0653 110.577 38.0687 110.58 38.0723C110.581 38.074 110.582 38.0759 110.583 38.0778C110.584 38.0787 110.585 38.0802 110.585 38.0806C110.586 38.0821 110.587 38.0836 107.18 40.1799C103.773 42.2763 103.774 42.2778 103.775 42.2793C103.776 42.2799 103.777 42.2814 103.777 42.2824C103.778 42.2845 103.78 42.2867 103.781 42.2889C103.784 42.2933 103.787 42.298 103.79 42.3029C103.796 42.3126 103.803 42.3233 103.81 42.3348C103.825 42.3579 103.842 42.3845 103.861 42.4144C103.901 42.4741 103.95 42.5473 104.009 42.6318C104.128 42.8006 104.289 43.0173 104.493 43.2656C104.897 43.7582 105.489 44.3986 106.278 45.0394C107.862 46.3266 110.344 47.6899 113.66 47.6899V43.6899ZM107.18 23.1699H103.18V35.0499H107.18H111.18V23.1699H107.18ZM107.18 35.0499C103.707 37.0345 103.708 37.0356 103.708 37.0367C103.709 37.0371 103.709 37.0383 103.71 37.0391C103.711 37.0406 103.712 37.0423 103.713 37.044C103.714 37.0474 103.717 37.0511 103.719 37.055C103.723 37.0628 103.728 37.0715 103.734 37.0812C103.745 37.1006 103.759 37.1237 103.775 37.1504C103.807 37.2036 103.848 37.2712 103.899 37.3509C104 37.51 104.138 37.7205 104.313 37.9655C104.658 38.4486 105.17 39.1015 105.837 39.7684C107.069 41.0005 109.387 42.8299 112.58 42.8299V38.8299V34.8299C112.533 34.8299 112.151 34.7694 111.493 34.1115C111.215 33.8333 110.984 33.5413 110.823 33.3156C110.745 33.2062 110.69 33.1214 110.66 33.0738C110.645 33.0502 110.636 33.0365 110.635 33.0344C110.634 33.0334 110.636 33.0353 110.639 33.0404C110.64 33.0429 110.642 33.0462 110.644 33.0504C110.646 33.0525 110.647 33.0548 110.648 33.0573C110.649 33.0585 110.65 33.0598 110.651 33.0612C110.651 33.0618 110.652 33.0629 110.652 33.0632C110.652 33.0643 110.653 33.0654 107.18 35.0499ZM112.58 38.8299V42.8299C115.258 42.8299 118.039 41.83 119.87 38.9524C121.441 36.4827 121.98 33.1033 121.98 29.1099H117.98H113.98C113.98 32.6766 113.439 34.1572 113.12 34.6574C113.014 34.8251 112.983 34.8057 113.039 34.7784C113.061 34.7674 112.953 34.8299 112.58 34.8299V38.8299ZM117.98 29.1099H121.98C121.98 25.1166 121.441 21.7372 119.87 19.2674C118.039 16.3899 115.258 15.3899 112.58 15.3899V19.3899V23.3899C112.953 23.3899 113.061 23.4525 113.039 23.4415C112.983 23.4141 113.014 23.3948 113.12 23.5624C113.439 24.0627 113.98 25.5433 113.98 29.1099H117.98ZM112.58 19.3899V15.3899C109.387 15.3899 107.069 17.2194 105.837 18.4515C105.17 19.1183 104.658 19.7713 104.313 20.2544C104.138 20.4994 104 20.7099 103.899 20.869C103.848 20.9487 103.807 21.0163 103.775 21.0695C103.759 21.0962 103.745 21.1193 103.734 21.1387C103.728 21.1484 103.723 21.1571 103.719 21.1649C103.717 21.1688 103.714 21.1725 103.713 21.1759C103.712 21.1776 103.711 21.1792 103.71 21.1808C103.709 21.1816 103.709 21.1828 103.708 21.1831C103.708 21.1843 103.707 21.1854 107.18 23.1699C110.653 25.1545 110.652 25.1556 110.652 25.1566C110.652 25.157 110.651 25.158 110.651 25.1587C110.65 25.1601 110.649 25.1614 110.648 25.1626C110.647 25.1651 110.646 25.1674 110.644 25.1695C110.642 25.1736 110.64 25.177 110.639 25.1795C110.636 25.1846 110.634 25.1865 110.635 25.1855C110.636 25.1833 110.645 25.1697 110.659 25.1461C110.69 25.0984 110.745 25.0136 110.823 24.9043C110.984 24.6786 111.215 24.3865 111.493 24.1084C112.151 23.4505 112.533 23.3899 112.58 23.3899V19.3899ZM134.18 25.0599H130.18C130.18 26.2917 130.748 27.4547 131.718 28.2128C132.689 28.9708 133.955 29.2393 135.15 28.9405L134.18 25.0599ZM134.18 29.9199L133.21 26.0394C131.429 26.4845 130.18 28.0845 130.18 29.9199H134.18ZM134.18 38.8299H130.18C130.18 39.9601 130.658 41.0374 131.496 41.7957C132.334 42.5541 133.454 42.9225 134.578 42.8101L134.18 38.8299ZM132.344 43.6899V39.6899H131.75V43.6899V47.6899H132.344V43.6899ZM131.75 43.6899V39.6899C132.609 39.6899 133.32 40.4008 133.32 41.2599H129.32H125.32C125.32 44.8191 128.191 47.6899 131.75 47.6899V43.6899ZM129.32 41.2599H133.32V17.4999H129.32H125.32V41.2599H129.32ZM129.32 17.4999H133.32C133.32 18.3591 132.609 19.0699 131.75 19.0699V15.0699V11.0699C128.191 11.0699 125.32 13.9408 125.32 17.4999H129.32ZM131.75 15.0699V19.0699C130.891 19.0699 130.18 18.3591 130.18 17.4999H134.18H138.18C138.18 13.9408 135.309 11.0699 131.75 11.0699V15.0699ZM134.18 17.4999H130.18V25.0599H134.18H138.18V17.4999H134.18ZM134.18 25.0599C135.15 28.9405 135.15 28.9407 135.149 28.9408C135.149 28.9409 135.148 28.9411 135.148 28.9412C135.147 28.9414 135.146 28.9416 135.145 28.9418C135.143 28.9422 135.142 28.9426 135.14 28.943C135.137 28.9437 135.134 28.9444 135.132 28.9451C135.127 28.9463 135.122 28.9474 135.119 28.9481C135.113 28.9497 135.11 28.9503 135.111 28.9501C135.112 28.9497 135.129 28.946 135.159 28.9401C135.218 28.9281 135.331 28.9072 135.488 28.8847C135.805 28.8394 136.289 28.7899 136.88 28.7899V24.7899V20.7899C135.851 20.7899 134.985 20.8755 134.357 20.9651C134.042 21.0102 133.783 21.0568 133.59 21.0954C133.493 21.1148 133.412 21.1322 133.349 21.1466C133.317 21.1538 133.289 21.1602 133.266 21.1657C133.255 21.1684 133.244 21.171 133.235 21.1733C133.23 21.1744 133.226 21.1755 133.221 21.1765C133.219 21.177 133.217 21.1775 133.215 21.178C133.214 21.1782 133.214 21.1785 133.213 21.1787C133.212 21.1788 133.211 21.179 133.211 21.179C133.211 21.1792 133.21 21.1794 134.18 25.0599ZM136.88 24.7899V28.7899C138.991 28.7899 140.371 29.4475 141.197 30.2405C142.013 31.0236 142.6 32.2338 142.6 33.9699H146.6H150.6C150.6 30.306 149.297 26.9263 146.738 24.4694C144.189 22.0223 140.709 20.7899 136.88 20.7899V24.7899ZM146.6 33.9699H142.6C142.6 35.682 140.605 39.6899 132.344 39.6899V43.6899V47.6899C142.876 47.6899 150.6 41.9779 150.6 33.9699H146.6ZM134.18 29.9199H130.18V38.8299H134.18H138.18V29.9199H134.18ZM134.18 38.8299L134.578 42.8101C137.671 42.5008 140.401 41.6842 142.441 40.0974C144.643 38.3846 145.74 35.9981 145.74 33.4299H141.74H137.74C137.74 33.5 137.733 33.5417 137.729 33.561C137.725 33.5792 137.721 33.5864 137.72 33.5892C137.719 33.5919 137.712 33.6064 137.689 33.6339C137.666 33.6622 137.618 33.7138 137.529 33.7825C137.14 34.0857 136.089 34.6191 133.782 34.8498L134.18 38.8299ZM141.74 33.4299H145.74C145.74 31.2819 144.895 29.1651 143.086 27.6571C141.351 26.2115 139.127 25.6499 136.88 25.6499V29.6499V33.6499C137.873 33.6499 138.079 33.8984 137.964 33.8028C137.904 33.7527 137.831 33.6642 137.781 33.5526C137.734 33.4477 137.74 33.3932 137.74 33.4299H141.74ZM136.88 29.6499V25.6499C135.851 25.6499 134.985 25.7355 134.357 25.8251C134.042 25.8702 133.783 25.9168 133.59 25.9554C133.493 25.9748 133.412 25.9922 133.349 26.0066C133.317 26.0138 133.289 26.0202 133.266 26.0257C133.255 26.0284 133.244 26.031 133.235 26.0333C133.23 26.0344 133.226 26.0355 133.221 26.0365C133.219 26.037 133.217 26.0375 133.215 26.038C133.214 26.0382 133.214 26.0385 133.213 26.0387C133.212 26.0388 133.211 26.039 133.211 26.039C133.211 26.0392 133.21 26.0394 134.18 29.9199C135.15 33.8005 135.15 33.8007 135.149 33.8008C135.149 33.8009 135.148 33.8011 135.148 33.8012C135.147 33.8014 135.146 33.8016 135.145 33.8018C135.143 33.8022 135.142 33.8026 135.14 33.803C135.137 33.8037 135.134 33.8044 135.132 33.8051C135.127 33.8063 135.122 33.8074 135.119 33.8081C135.113 33.8097 135.11 33.8103 135.111 33.8101C135.112 33.8097 135.129 33.806 135.159 33.8001C135.218 33.7881 135.331 33.7672 135.488 33.7447C135.805 33.6994 136.289 33.6499 136.88 33.6499V29.6499ZM169.542 19.9299V15.9299C167.332 15.9299 165.542 17.7208 165.542 19.9299H169.542ZM164.682 19.9299H168.682C168.682 17.7208 166.891 15.9299 164.682 15.9299V19.9299ZM157.932 17.4999H161.932C161.932 18.3591 161.221 19.0699 160.362 19.0699V15.0699V11.0699C156.802 11.0699 153.932 13.9408 153.932 17.4999H157.932ZM160.362 15.0699V19.0699H173.862V15.0699V11.0699H160.362V15.0699ZM173.862 15.0699V19.0699C173.002 19.0699 172.292 18.3591 172.292 17.4999H176.292H180.292C180.292 13.9408 177.421 11.0699 173.862 11.0699V15.0699ZM176.292 17.4999H172.292C172.292 16.6408 173.002 15.9299 173.862 15.9299V19.9299V23.9299C177.421 23.9299 180.292 21.0591 180.292 17.4999H176.292ZM173.862 19.9299V15.9299H169.542V19.9299V23.9299H173.862V19.9299ZM169.542 19.9299H165.542V41.2599H169.542H173.542V19.9299H169.542ZM169.542 41.2599H165.542C165.542 40.4008 166.252 39.6899 167.112 39.6899V43.6899V47.6899C170.671 47.6899 173.542 44.8191 173.542 41.2599H169.542ZM167.112 43.6899V39.6899C167.971 39.6899 168.682 40.4008 168.682 41.2599H164.682H160.682C160.682 44.8191 163.552 47.6899 167.112 47.6899V43.6899ZM164.682 41.2599H168.682V19.9299H164.682H160.682V41.2599H164.682ZM164.682 19.9299V15.9299H160.362V19.9299V23.9299H164.682V19.9299ZM160.362 19.9299V15.9299C161.221 15.9299 161.932 16.6408 161.932 17.4999H157.932H153.932C153.932 21.0591 156.802 23.9299 160.362 23.9299V19.9299ZM192.511 26.9499L190.722 23.3722C189.255 24.1056 188.384 25.66 188.525 27.2939C188.666 28.9278 189.79 30.31 191.361 30.7812L192.511 26.9499ZM183.331 15.0699L183.988 19.0155C184.093 18.998 184.197 18.9763 184.301 18.9505L183.331 15.0699ZM185.491 19.6599L184.52 15.7794C182.74 16.2245 181.491 17.8245 181.491 19.6599H185.491ZM185.491 25.3299H181.491C181.491 27.5391 183.281 29.3299 185.491 29.3299V25.3299ZM185.491 30.1899V26.1899C183.281 26.1899 181.491 27.9808 181.491 30.1899H185.491ZM185.491 38.8299H181.491C181.491 39.9601 181.969 41.0374 182.807 41.7957C183.644 42.5541 184.764 42.9225 185.889 42.8101L185.491 38.8299ZM192.511 26.9499C191.361 30.7812 191.359 30.7807 191.358 30.7802C191.357 30.78 191.355 30.7795 191.354 30.7791C191.352 30.7785 191.35 30.7778 191.348 30.7772C191.343 30.7759 191.34 30.7747 191.336 30.7736C191.329 30.7713 191.323 30.7694 191.318 30.7678C191.308 30.7647 191.302 30.7628 191.301 30.7624C191.298 30.7614 191.311 30.7658 191.338 30.7759C191.393 30.7965 191.499 30.8385 191.638 30.9048C191.926 31.0415 192.303 31.2555 192.665 31.5542C193.331 32.1033 193.911 32.8752 193.911 34.2399H197.911H201.911C201.911 29.9347 199.791 27.0616 197.756 25.3832C196.768 24.5681 195.795 24.0228 195.071 23.6786C194.704 23.5043 194.388 23.3755 194.147 23.2853C194.026 23.2401 193.924 23.2041 193.842 23.1767C193.801 23.163 193.765 23.1513 193.735 23.1417C193.719 23.1369 193.706 23.1325 193.693 23.1287C193.687 23.1268 193.681 23.125 193.675 23.1233C193.673 23.1225 193.67 23.1217 193.667 23.1209C193.666 23.1205 193.664 23.1199 193.664 23.1197C193.662 23.1192 193.66 23.1186 192.511 26.9499ZM197.911 34.2399H193.911C193.911 35.6155 192.003 39.6899 183.601 39.6899V43.6899V47.6899C194.098 47.6899 201.911 42.0444 201.911 34.2399H197.911ZM183.601 43.6899V39.6899H183.061V43.6899V47.6899H183.601V43.6899ZM183.061 43.6899V39.6899C183.92 39.6899 184.631 40.4008 184.631 41.2599H180.631H176.631C176.631 44.8191 179.501 47.6899 183.061 47.6899V43.6899ZM180.631 41.2599H184.631V17.7699H180.631H176.631V41.2599H180.631ZM180.631 17.7699H184.631C184.631 18.2252 184.429 18.6162 184.202 18.8434C184.001 19.0443 183.875 19.0343 183.988 19.0155L183.331 15.0699L182.673 11.1244C179.721 11.6164 176.631 13.9162 176.631 17.7699H180.631ZM183.331 15.0699C184.301 18.9505 184.3 18.9506 184.3 18.9507C184.3 18.9508 184.299 18.9509 184.299 18.9509C184.299 18.9511 184.298 18.9512 184.298 18.9513C184.297 18.9515 184.296 18.9517 184.295 18.9519C184.294 18.9523 184.293 18.9525 184.292 18.9526C184.292 18.9527 184.293 18.9525 184.296 18.9517C184.302 18.9502 184.316 18.9469 184.337 18.9421C184.378 18.9324 184.447 18.9167 184.54 18.8968C184.726 18.8568 185.003 18.8014 185.338 18.7455C186.03 18.6301 186.873 18.5299 187.651 18.5299V14.5299V10.5299C186.268 10.5299 184.951 10.6997 184.023 10.8544C183.548 10.9335 183.15 11.0131 182.864 11.0744C182.72 11.1051 182.604 11.1315 182.519 11.1514C182.476 11.1613 182.441 11.1696 182.415 11.176C182.402 11.1792 182.39 11.182 182.381 11.1842C182.377 11.1853 182.373 11.1863 182.369 11.1872C182.367 11.1876 182.366 11.188 182.364 11.1884C182.364 11.1886 182.363 11.1887 182.362 11.1889C182.362 11.189 182.362 11.1891 182.361 11.1891C182.361 11.1893 182.36 11.1894 183.331 15.0699ZM187.651 14.5299V18.5299C190.688 18.5299 191.751 20.3463 191.751 21.5499H195.751H199.751C199.751 15.1936 194.334 10.5299 187.651 10.5299V14.5299ZM195.751 21.5499H191.751C191.751 22.189 191.506 22.6131 191.191 22.9543C191.024 23.1353 190.854 23.2699 190.735 23.3523C190.679 23.3916 190.642 23.4135 190.634 23.4178C190.631 23.4198 190.635 23.4171 190.649 23.4096C190.656 23.4058 190.666 23.4008 190.678 23.3946C190.684 23.3915 190.69 23.3881 190.698 23.3843C190.701 23.3825 190.705 23.3805 190.709 23.3785C190.711 23.3775 190.713 23.3765 190.715 23.3754C190.716 23.3749 190.718 23.3741 190.719 23.3738C190.72 23.373 190.722 23.3722 192.511 26.9499C194.299 30.5276 194.301 30.5268 194.303 30.526C194.303 30.5257 194.305 30.5249 194.306 30.5243C194.308 30.5232 194.311 30.522 194.313 30.5208C194.318 30.5184 194.323 30.5158 194.328 30.5132C194.339 30.5079 194.35 30.5021 194.362 30.4958C194.386 30.4832 194.414 30.4686 194.445 30.4521C194.506 30.419 194.58 30.3777 194.665 30.3281C194.835 30.229 195.051 30.0948 195.298 29.9232C195.787 29.5837 196.427 29.0771 197.07 28.3806C198.375 26.9668 199.751 24.6909 199.751 21.5499H195.751ZM190.891 22.0899H194.891C194.891 20.3499 194.278 18.4899 192.715 17.1221C191.221 15.8156 189.353 15.3899 187.651 15.3899V19.3899V23.3899C188.108 23.3899 187.86 23.5043 187.447 23.1427C187.24 22.962 187.082 22.7343 186.987 22.5029C186.897 22.2832 186.891 22.128 186.891 22.0899H190.891ZM187.651 19.3899V15.3899C186.808 15.3899 186.031 15.4922 185.508 15.5794C185.236 15.6248 185.006 15.6706 184.838 15.7065C184.754 15.7246 184.684 15.7405 184.63 15.753C184.603 15.7592 184.581 15.7646 184.562 15.7691C184.553 15.7713 184.545 15.7733 184.538 15.775C184.535 15.7759 184.531 15.7767 184.528 15.7774C184.527 15.7777 184.526 15.7781 184.524 15.7784C184.524 15.7786 184.523 15.7788 184.522 15.7789C184.522 15.779 184.521 15.7791 184.521 15.7791C184.521 15.7793 184.52 15.7794 185.491 19.6599C186.461 23.5405 186.46 23.5406 186.46 23.5407C186.46 23.5408 186.459 23.5409 186.459 23.5409C186.458 23.5411 186.458 23.5412 186.457 23.5414C186.456 23.5416 186.455 23.5419 186.454 23.5421C186.452 23.5426 186.451 23.543 186.449 23.5433C186.447 23.544 186.445 23.5445 186.444 23.5447C186.442 23.5452 186.443 23.5448 186.448 23.5437C186.458 23.5414 186.481 23.5362 186.514 23.529C186.583 23.5143 186.691 23.4926 186.823 23.4705C187.11 23.4226 187.413 23.3899 187.651 23.3899V19.3899ZM185.491 19.6599H181.491V25.3299H185.491H189.491V19.6599H185.491ZM185.491 25.3299V29.3299C187.898 29.3299 190.131 28.8207 191.885 27.6062C193.718 26.3374 194.891 24.3564 194.891 22.0899H190.891H186.891C186.891 21.8145 186.963 21.551 187.082 21.3371C187.199 21.1267 187.319 21.0374 187.331 21.0287C187.338 21.0237 187.229 21.1008 186.925 21.1795C186.622 21.2581 186.156 21.3299 185.491 21.3299V25.3299ZM185.491 30.1899H181.491V38.8299H185.491H189.491V30.1899H185.491ZM185.491 38.8299L185.889 42.8101C188.99 42.5 191.682 41.6841 193.696 40.1737C195.844 38.562 197.051 36.2629 197.051 33.6999H193.051H189.051C189.051 33.7059 189.05 33.6941 189.056 33.6704C189.062 33.6459 189.07 33.6235 189.079 33.6079C189.099 33.5676 189.08 33.6355 188.896 33.7737C188.479 34.0858 187.391 34.6199 185.093 34.8498L185.491 38.8299ZM193.051 33.6999H197.051C197.051 31.5275 196.083 29.4967 194.318 28.1C192.617 26.753 190.444 26.1899 188.191 26.1899V30.1899V34.1899C189.177 34.1899 189.434 34.4369 189.353 34.3724C189.309 34.3373 189.22 34.2491 189.148 34.0993C189.076 33.9506 189.051 33.8066 189.051 33.6999H193.051ZM188.191 30.1899V26.1899H185.491V30.1899V34.1899H188.191V30.1899ZM212.486 39.3699V43.3699C213.733 43.3699 215.119 43.1626 216.467 42.497C217.851 41.8142 218.966 40.7612 219.798 39.4244C221.352 36.9262 221.886 33.49 221.886 29.3799H217.886H213.886C213.886 33.0998 213.341 34.6587 213.005 35.198C212.892 35.3799 212.859 35.3564 212.927 35.3232C212.959 35.3073 212.86 35.3699 212.486 35.3699V39.3699ZM217.886 29.3799H221.886C221.886 25.2698 221.352 21.8337 219.798 19.3355C218.966 17.9987 217.851 16.9457 216.467 16.2629C215.119 15.5972 213.733 15.3899 212.486 15.3899V19.3899V23.3899C212.86 23.3899 212.959 23.4526 212.927 23.4366C212.859 23.4035 212.892 23.38 213.005 23.5619C213.341 24.1012 213.886 25.66 213.886 29.3799H217.886ZM212.486 19.3899V15.3899C211.24 15.3899 209.854 15.5972 208.505 16.2629C207.122 16.9457 206.007 17.9987 205.175 19.3355C203.621 21.8337 203.086 25.2698 203.086 29.3799H207.086H211.086C211.086 25.66 211.632 24.1012 211.968 23.5619C212.081 23.38 212.113 23.4035 212.046 23.4366C212.014 23.4526 212.113 23.3899 212.486 23.3899V19.3899ZM207.086 29.3799H203.086C203.086 33.49 203.621 36.9262 205.175 39.4244C206.007 40.7612 207.122 41.8142 208.505 42.497C209.854 43.1626 211.24 43.3699 212.486 43.3699V39.3699V35.3699C212.113 35.3699 212.014 35.3073 212.046 35.3232C212.113 35.3564 212.081 35.3799 211.968 35.198C211.632 34.6587 211.086 33.0998 211.086 29.3799H207.086ZM212.486 44.2299V40.2299C210.583 40.2299 209.274 39.5969 208.313 38.3322C207.225 36.9023 206.226 34.1847 206.226 29.3799H202.226H198.226C198.226 35.1052 199.388 39.8125 201.945 43.1752C204.628 46.703 208.45 48.2299 212.486 48.2299V44.2299ZM202.226 29.3799H206.226C206.226 24.5752 207.225 21.8575 208.313 20.4277C209.274 19.163 210.583 18.5299 212.486 18.5299V14.5299V10.5299C208.45 10.5299 204.628 12.0569 201.945 15.5847C199.388 18.9473 198.226 23.6547 198.226 29.3799H202.226ZM212.486 14.5299V18.5299C214.39 18.5299 215.698 19.163 216.66 20.4277C217.748 21.8575 218.746 24.5752 218.746 29.3799H222.746H226.746C226.746 23.6547 225.585 18.9473 223.028 15.5847C220.344 12.0569 216.523 10.5299 212.486 10.5299V14.5299ZM222.746 29.3799H218.746C218.746 34.1847 217.748 36.9023 216.66 38.3322C215.698 39.5969 214.39 40.2299 212.486 40.2299V44.2299V48.2299C216.523 48.2299 220.344 46.703 223.028 43.1752C225.585 39.8125 226.746 35.1052 226.746 29.3799H222.746ZM243.292 25.8699H247.292C247.292 24.0535 246.068 22.4652 244.311 22.0021C242.555 21.539 240.707 22.3176 239.812 23.8979L243.292 25.8699ZM234.112 42.0699L237.542 44.1279C237.559 44.0995 237.575 44.0708 237.592 44.042L234.112 42.0699ZM234.112 32.8899H230.112C230.112 34.7064 231.336 36.2947 233.092 36.7578C234.848 37.2208 236.696 36.4423 237.592 34.862L234.112 32.8899ZM243.292 16.6899L239.862 14.632C239.845 14.6604 239.828 14.689 239.812 14.7179L243.292 16.6899ZM240.862 5.88994L237.086 4.56853C237.08 4.58731 237.073 4.60614 237.067 4.62502L240.862 5.88994ZM245.236 7.50994L249.092 8.57057C249.095 8.56059 249.098 8.55059 249.101 8.54058L245.236 7.50994ZM232.168 7.50994L228.303 8.54059C228.305 8.55059 228.308 8.56059 228.311 8.57057L232.168 7.50994ZM236.542 5.88994L240.336 4.62503C240.33 4.60615 240.324 4.58732 240.317 4.56853L236.542 5.88994ZM248.152 17.4999H244.152V41.2599H248.152H252.152V17.4999H248.152ZM248.152 41.2599H244.152C244.152 40.4008 244.863 39.6899 245.722 39.6899V43.6899V47.6899C249.281 47.6899 252.152 44.8191 252.152 41.2599H248.152ZM245.722 43.6899V39.6899C246.581 39.6899 247.292 40.4008 247.292 41.2599H243.292H239.292C239.292 44.8191 242.163 47.6899 245.722 47.6899V43.6899ZM243.292 41.2599H247.292V25.8699H243.292H239.292V41.2599H243.292ZM243.292 25.8699L239.812 23.8979L230.632 40.0979L234.112 42.0699L237.592 44.042L246.772 27.842L243.292 25.8699ZM234.112 42.0699L230.682 40.012C230.656 40.0552 230.654 40.032 230.745 39.9648C230.853 39.8847 231.18 39.6899 231.682 39.6899V43.6899V47.6899C234.824 47.6899 236.752 45.4443 237.542 44.1279L234.112 42.0699ZM231.682 43.6899V39.6899C232.541 39.6899 233.252 40.4008 233.252 41.2599H229.252H225.252C225.252 44.8191 228.123 47.6899 231.682 47.6899V43.6899ZM229.252 41.2599H233.252V17.4999H229.252H225.252V41.2599H229.252ZM229.252 17.4999H233.252C233.252 18.3591 232.541 19.0699 231.682 19.0699V15.0699V11.0699C228.123 11.0699 225.252 13.9408 225.252 17.4999H229.252ZM231.682 15.0699V19.0699C230.823 19.0699 230.112 18.3591 230.112 17.4999H234.112H238.112C238.112 13.9408 235.241 11.0699 231.682 11.0699V15.0699ZM234.112 17.4999H230.112V32.8899H234.112H238.112V17.4999H234.112ZM234.112 32.8899L237.592 34.862L246.772 18.662L243.292 16.6899L239.812 14.7179L230.632 30.9179L234.112 32.8899ZM243.292 16.6899L246.722 18.7479C246.748 18.7046 246.75 18.7279 246.659 18.7951C246.55 18.8751 246.223 19.0699 245.722 19.0699V15.0699V11.0699C242.579 11.0699 240.652 13.3155 239.862 14.632L243.292 16.6899ZM245.722 15.0699V19.0699C244.863 19.0699 244.152 18.3591 244.152 17.4999H248.152H252.152C252.152 13.9408 249.281 11.0699 245.722 11.0699V15.0699ZM238.702 7.50994V11.5099C241.888 11.5099 243.975 9.2005 244.656 7.15486L240.862 5.88994L237.067 4.62502C237.171 4.31367 237.338 4.08353 237.552 3.90786C237.797 3.70772 238.198 3.50994 238.702 3.50994V7.50994ZM240.862 5.88994L244.637 7.21134C244.687 7.06798 244.642 7.29567 244.324 7.56958C244.155 7.71479 243.952 7.83544 243.733 7.91309C243.519 7.98896 243.359 7.99994 243.292 7.99994V3.99994V-6.10352e-05C241.744 -6.10352e-05 240.28 0.493092 239.1 1.5103C238 2.45921 237.414 3.6319 237.086 4.56853L240.862 5.88994ZM243.292 3.99994V7.99994C242.531 7.99994 242.105 7.65975 241.948 7.50337C241.792 7.34698 241.452 6.92086 241.452 6.15994H245.452H249.452C249.452 4.31901 248.571 2.8129 247.605 1.84651C246.639 0.880127 245.133 -6.10352e-05 243.292 -6.10352e-05V3.99994ZM245.452 6.15994H241.452C241.452 6.01614 241.465 6.03298 241.421 6.25298C241.406 6.32726 241.391 6.39448 241.38 6.44146C241.374 6.46416 241.37 6.48009 241.369 6.48737C241.368 6.49096 241.367 6.49226 241.368 6.49103C241.368 6.49041 241.368 6.48915 241.369 6.48721C241.369 6.48623 241.369 6.48509 241.37 6.48378C241.37 6.48312 241.37 6.48241 241.37 6.48167C241.37 6.4813 241.37 6.48091 241.37 6.48052C241.37 6.48032 241.371 6.48001 241.371 6.47992C241.371 6.47961 241.371 6.4793 245.236 7.50994C249.101 8.54058 249.101 8.54027 249.101 8.53995C249.101 8.53984 249.101 8.53951 249.101 8.53929C249.101 8.53885 249.101 8.53839 249.101 8.53791C249.102 8.53697 249.102 8.53598 249.102 8.53493C249.103 8.53283 249.103 8.53052 249.104 8.528C249.105 8.52296 249.107 8.51707 249.109 8.51039C249.112 8.49703 249.116 8.4804 249.121 8.46079C249.131 8.42167 249.144 8.37009 249.159 8.30843C249.188 8.18665 249.227 8.01762 249.266 7.8219C249.33 7.5019 249.452 6.84373 249.452 6.15994H245.452ZM245.236 7.50994L241.379 6.44931C241.317 6.67599 241.141 6.99847 240.773 7.27278C240.432 7.52672 239.802 7.82994 238.702 7.82994V11.8299V15.8299C244.21 15.8299 248.002 12.5355 249.092 8.57057L245.236 7.50994ZM238.702 11.8299V7.82994C237.601 7.82994 236.971 7.52672 236.63 7.27278C236.262 6.99847 236.087 6.67599 236.025 6.44931L232.168 7.50994L228.311 8.57057C229.401 12.5355 233.193 15.8299 238.702 15.8299V11.8299ZM232.168 7.50994C236.033 6.47929 236.033 6.4796 236.033 6.47991C236.033 6.48001 236.033 6.48032 236.033 6.48051C236.033 6.48091 236.033 6.48129 236.033 6.48166C236.033 6.48241 236.034 6.48311 236.034 6.48377C236.034 6.48509 236.034 6.48623 236.035 6.4872C236.035 6.48914 236.036 6.49041 236.036 6.49103C236.036 6.49226 236.036 6.49096 236.035 6.48737C236.033 6.48008 236.029 6.46416 236.023 6.44145C236.012 6.39448 235.997 6.32726 235.982 6.25298C235.938 6.03298 235.952 6.01614 235.952 6.15994H231.952H227.952C227.952 6.84373 228.073 7.5019 228.137 7.8219C228.176 8.01762 228.215 8.18665 228.244 8.30843C228.259 8.3701 228.272 8.42167 228.282 8.4608C228.287 8.48041 228.291 8.49704 228.295 8.5104C228.297 8.51708 228.298 8.52296 228.299 8.528C228.3 8.53052 228.301 8.53283 228.301 8.53493C228.302 8.53598 228.302 8.53698 228.302 8.53792C228.302 8.53839 228.302 8.53885 228.302 8.5393C228.302 8.53952 228.303 8.53984 228.303 8.53995C228.303 8.54027 228.303 8.54059 232.168 7.50994ZM231.952 6.15994H235.952C235.952 6.92087 235.611 7.34698 235.455 7.50337C235.299 7.65975 234.873 7.99994 234.112 7.99994V3.99994V-6.10352e-05C232.271 -6.10352e-05 230.765 0.880127 229.798 1.84651C228.832 2.8129 227.952 4.31901 227.952 6.15994H231.952ZM234.112 3.99994V7.99994C234.045 7.99994 233.884 7.98896 233.67 7.91309C233.451 7.83544 233.248 7.71479 233.079 7.56958C232.762 7.29567 232.716 7.06798 232.766 7.21134L236.542 5.88994L240.317 4.56853C239.989 3.6319 239.404 2.45921 238.303 1.5103C237.123 0.493092 235.66 -6.10352e-05 234.112 -6.10352e-05V3.99994ZM236.542 5.88994L232.747 7.15485C233.429 9.2005 235.515 11.5099 238.702 11.5099V7.50994V3.50994C239.205 3.50994 239.606 3.70772 239.851 3.90786C240.066 4.08353 240.233 4.31368 240.336 4.62503L236.542 5.88994Z" fill="#A05B08" mask="url(#path-1-outside-1_0_1)"/>
<path d="M15.61 19.9299V15.9299C13.4008 15.9299 11.61 17.7208 11.61 19.9299H15.61ZM10.75 19.9299H14.75C14.75 17.7208 12.9591 15.9299 10.75 15.9299V19.9299ZM3.99996 17.4999H7.99996C7.99996 18.3591 7.2891 19.0699 6.42996 19.0699V15.0699V11.0699C2.87082 11.0699 -3.91006e-05 13.9408 -3.91006e-05 17.4999H3.99996ZM6.42996 15.0699V19.0699H19.93V15.0699V11.0699H6.42996V15.0699ZM19.93 15.0699V19.0699C19.0708 19.0699 18.36 18.3591 18.36 17.4999H22.36H26.36C26.36 13.9408 23.4891 11.0699 19.93 11.0699V15.0699ZM22.36 17.4999H18.36C18.36 16.6408 19.0708 15.9299 19.93 15.9299V19.9299V23.9299C23.4891 23.9299 26.36 21.0591 26.36 17.4999H22.36ZM19.93 19.9299V15.9299H15.61V19.9299V23.9299H19.93V19.9299ZM15.61 19.9299H11.61V41.2599H15.61H19.61V19.9299H15.61ZM15.61 41.2599H11.61C11.61 40.4008 12.3208 39.6899 13.18 39.6899V43.6899V47.6899C16.7391 47.6899 19.61 44.8191 19.61 41.2599H15.61ZM13.18 43.6899V39.6899C14.0391 39.6899 14.75 40.4008 14.75 41.2599H10.75H6.74996C6.74996 44.8191 9.62082 47.6899 13.18 47.6899V43.6899ZM10.75 41.2599H14.75V19.9299H10.75H6.74996V41.2599H10.75ZM10.75 19.9299V15.9299H6.42996V19.9299V23.9299H10.75V19.9299ZM6.42996 19.9299V15.9299C7.2891 15.9299 7.99996 16.6408 7.99996 17.4999H3.99996H-3.91006e-05C-3.91006e-05 21.0591 2.87082 23.9299 6.42996 23.9299V19.9299ZM39.6716 36.1299L35.9577 34.6444C35.9286 34.7171 35.9016 34.7907 35.8769 34.865L39.6716 36.1299ZM43.9916 38.8299L40.4139 37.0411C40.3918 37.0852 40.3706 37.1298 40.3501 37.1747L43.9916 38.8299ZM29.9516 31.8099V27.8099C28.8561 27.8099 27.8085 28.2593 27.0534 29.053C26.2983 29.8468 25.9019 30.9155 25.9566 32.0097L29.9516 31.8099ZM29.9516 26.9499L25.9566 26.7502C25.9019 27.8444 26.2983 28.9131 27.0534 29.7068C27.8085 30.5006 28.8561 30.9499 29.9516 30.9499V26.9499ZM40.2116 26.9499V30.9499C41.3071 30.9499 42.3547 30.5006 43.1098 29.7068C43.8649 28.9131 44.2613 27.8444 44.2066 26.7502L40.2116 26.9499ZM35.3516 39.3699V43.3699C39.6184 43.3699 42.5144 40.2505 43.4663 37.3949L39.6716 36.1299L35.8769 34.865C35.8663 34.8969 35.8369 34.9656 35.7785 35.0504C35.7211 35.1337 35.6536 35.2064 35.5862 35.2616C35.4595 35.3652 35.3882 35.3699 35.3516 35.3699V39.3699ZM39.6716 36.1299C43.3855 37.6155 43.3848 37.6174 43.384 37.6192C43.3838 37.6199 43.383 37.6217 43.3825 37.623C43.3815 37.6254 43.3805 37.6279 43.3795 37.6303C43.3776 37.6352 43.3756 37.6401 43.3736 37.6449C43.3697 37.6544 43.3658 37.6638 43.362 37.673C43.3543 37.6913 43.3467 37.7089 43.3393 37.7257C43.3245 37.7594 43.3101 37.7906 43.296 37.8195C43.2681 37.8769 43.2401 37.9289 43.2113 37.977C43.1569 38.0676 43.082 38.1739 42.9725 38.2834C42.704 38.5519 42.2703 38.7799 41.8316 38.7799V34.7799V30.7799C39.7729 30.7799 38.2592 31.683 37.3157 32.6265C36.8688 33.0734 36.5576 33.5173 36.3513 33.861C36.2465 34.0357 36.1637 34.1931 36.0999 34.3243C36.0679 34.3902 36.0403 34.4504 36.0168 34.5038C36.005 34.5306 35.9943 34.5557 35.9844 34.5792C35.9795 34.5909 35.9748 34.6022 35.9704 34.6131C35.9681 34.6185 35.966 34.6238 35.9639 34.629C35.9628 34.6317 35.9618 34.6342 35.9607 34.6368C35.9602 34.6381 35.9595 34.64 35.9592 34.6406C35.9585 34.6425 35.9577 34.6444 39.6716 36.1299ZM41.8316 34.7799V38.7799C40.9725 38.7799 40.2616 38.0691 40.2616 37.2099H44.2616H48.2616C48.2616 33.6508 45.3907 30.7799 41.8316 30.7799V34.7799ZM44.2616 37.2099H40.2616C40.2616 37.4129 40.2367 37.4923 40.246 37.4548C40.2504 37.4374 40.2624 37.3937 40.2885 37.3242C40.3015 37.2895 40.3179 37.2486 40.3386 37.2013C40.3489 37.1777 40.3603 37.1526 40.3728 37.1259C40.3791 37.1125 40.3856 37.0988 40.3925 37.0846C40.3959 37.0776 40.3994 37.0704 40.4029 37.0631C40.4047 37.0595 40.4065 37.0559 40.4084 37.0522C40.4093 37.0503 40.4102 37.0485 40.4111 37.0466C40.4116 37.0457 40.4123 37.0443 40.4125 37.0439C40.4132 37.0425 40.4139 37.0411 43.9916 38.8299C47.5693 40.6188 47.57 40.6174 47.5707 40.616C47.5709 40.6155 47.5716 40.6141 47.5721 40.6132C47.5731 40.6113 47.574 40.6094 47.5749 40.6075C47.5768 40.6037 47.5787 40.5998 47.5807 40.5959C47.5845 40.5882 47.5884 40.5802 47.5923 40.5721C47.6002 40.5558 47.6082 40.5389 47.6165 40.5214C47.6329 40.4862 47.6501 40.4484 47.6678 40.4079C47.7033 40.3269 47.7408 40.2354 47.7791 40.1332C47.8558 39.9287 47.9353 39.6825 48.0072 39.3951C48.1515 38.8176 48.2616 38.0869 48.2616 37.2099H44.2616ZM43.9916 38.8299L40.3501 37.1747C39.8754 38.2192 39.3235 38.9215 38.678 39.378C38.0657 39.8111 37.0802 40.2299 35.3516 40.2299V44.2299V48.2299C38.483 48.2299 41.1425 47.4338 43.2977 45.9094C45.4197 44.4084 46.7578 42.4107 47.6331 40.4852L43.9916 38.8299ZM35.3516 44.2299V40.2299C33.4483 40.2299 32.1397 39.5969 31.1779 38.3322C30.0904 36.9023 29.0916 34.1847 29.0916 29.3799H25.0916H21.0916C21.0916 35.1052 22.2528 39.8125 24.8103 43.1752C27.4935 46.703 31.3149 48.2299 35.3516 48.2299V44.2299ZM25.0916 29.3799H29.0916C29.0916 24.5791 30.0888 21.8416 31.1658 20.399C32.1213 19.1189 33.3722 18.5299 35.0816 18.5299V14.5299V10.5299C31.121 10.5299 27.3769 12.101 24.7549 15.6134C22.2544 18.9633 21.0916 23.6508 21.0916 29.3799H25.0916ZM35.0816 14.5299V18.5299C36.7848 18.5299 38.0258 19.1129 38.9815 20.4112C40.0667 21.8855 41.0716 24.695 41.0716 29.6499H45.0716H49.0716C49.0716 23.8049 47.9165 19.0544 45.4242 15.6687C42.8024 12.1069 39.0484 10.5299 35.0816 10.5299V14.5299ZM45.0716 29.6499H41.0716C41.0716 28.889 41.4118 28.4629 41.5682 28.3065C41.7246 28.1501 42.1507 27.8099 42.9116 27.8099V31.8099V35.8099C44.7525 35.8099 46.2586 34.9298 47.225 33.9634C48.1914 32.997 49.0716 31.4909 49.0716 29.6499H45.0716ZM42.9116 31.8099V27.8099H29.9516V31.8099V35.8099H42.9116V31.8099ZM29.9516 31.8099L25.9566 32.0097C26.1124 35.1253 26.8307 37.948 28.4817 40.0707C30.2705 42.3706 32.7794 43.3699 35.3516 43.3699V39.3699V35.3699C35.0974 35.3699 34.9888 35.3253 34.9629 35.3134C34.9486 35.3068 34.8935 35.2839 34.7965 35.1592C34.5575 34.8518 34.0608 33.8946 33.9466 31.6102L29.9516 31.8099ZM29.9516 26.9499V30.9499H40.2116V26.9499V22.9499H29.9516V26.9499ZM40.2116 26.9499L44.2066 26.7502C44.0504 23.6268 43.3309 20.8423 41.7579 18.7449C40.0604 16.4817 37.6385 15.3899 35.0816 15.3899V19.3899V23.3899C35.2146 23.3899 35.2448 23.4138 35.2265 23.4049C35.2034 23.3936 35.2533 23.4056 35.3579 23.5449C35.6073 23.8776 36.1028 24.8731 36.2166 27.1497L40.2116 26.9499ZM35.0816 19.3899V15.3899C32.5247 15.3899 30.1028 16.4817 28.4054 18.7449C26.8323 20.8423 26.1128 23.6268 25.9566 26.7502L29.9516 26.9499L33.9466 27.1497C34.0604 24.8731 34.5559 23.8776 34.8054 23.5449C34.9099 23.4056 34.9598 23.3936 34.9367 23.4049C34.9184 23.4138 34.9486 23.3899 35.0816 23.3899V19.3899ZM64.7732 19.9299H68.7732C68.7732 17.7208 66.9823 15.9299 64.7732 15.9299V19.9299ZM56.1332 19.9299V15.9299C53.924 15.9299 52.1332 17.7208 52.1332 19.9299H56.1332ZM69.6332 17.4999H65.6332V41.2599H69.6332H73.6332V17.4999H69.6332ZM69.6332 41.2599H65.6332C65.6332 40.4008 66.344 39.6899 67.2032 39.6899V43.6899V47.6899C70.7623 47.6899 73.6332 44.8191 73.6332 41.2599H69.6332ZM67.2032 43.6899V39.6899C68.0623 39.6899 68.7732 40.4008 68.7732 41.2599H64.7732H60.7732C60.7732 44.8191 63.644 47.6899 67.2032 47.6899V43.6899ZM64.7732 41.2599H68.7732V19.9299H64.7732H60.7732V41.2599H64.7732ZM64.7732 19.9299V15.9299H56.1332V19.9299V23.9299H64.7732V19.9299ZM56.1332 19.9299H52.1332V41.2599H56.1332H60.1332V19.9299H56.1332ZM56.1332 41.2599H52.1332C52.1332 40.4008 52.844 39.6899 53.7032 39.6899V43.6899V47.6899C57.2623 47.6899 60.1332 44.8191 60.1332 41.2599H56.1332ZM53.7032 43.6899V39.6899C54.5623 39.6899 55.2732 40.4008 55.2732 41.2599H51.2732H47.2732C47.2732 44.8191 50.144 47.6899 53.7032 47.6899V43.6899ZM51.2732 41.2599H55.2732V17.4999H51.2732H47.2732V41.2599H51.2732ZM51.2732 17.4999H55.2732C55.2732 18.3591 54.5623 19.0699 53.7032 19.0699V15.0699V11.0699C50.144 11.0699 47.2732 13.9408 47.2732 17.4999H51.2732ZM53.7032 15.0699V19.0699H67.2032V15.0699V11.0699H53.7032V15.0699ZM67.2032 15.0699V19.0699C66.344 19.0699 65.6332 18.3591 65.6332 17.4999H69.6332H73.6332C73.6332 13.9408 70.7623 11.0699 67.2032 11.0699V15.0699ZM90.7185 36.1299L87.0046 34.6444C86.9755 34.7171 86.9485 34.7907 86.9237 34.865L90.7185 36.1299ZM95.0385 38.8299L91.4608 37.0411C91.4387 37.0852 91.4174 37.1298 91.397 37.1747L95.0385 38.8299ZM80.9985 31.8099V27.8099C79.9029 27.8099 78.8554 28.2593 78.1003 29.053C77.3452 29.8468 76.9488 30.9155 77.0035 32.0097L80.9985 31.8099ZM80.9985 26.9499L77.0035 26.7502C76.9488 27.8444 77.3452 28.9131 78.1003 29.7068C78.8554 30.5006 79.9029 30.9499 80.9985 30.9499V26.9499ZM91.2585 26.9499V30.9499C92.354 30.9499 93.4016 30.5006 94.1567 29.7068C94.9117 28.9131 95.3082 27.8444 95.2535 26.7502L91.2585 26.9499ZM86.3985 39.3699V43.3699C90.6653 43.3699 93.5613 40.2505 94.5132 37.3949L90.7185 36.1299L86.9237 34.865C86.9131 34.8969 86.8838 34.9656 86.8254 35.0504C86.768 35.1337 86.7005 35.2064 86.633 35.2616C86.5064 35.3652 86.4351 35.3699 86.3985 35.3699V39.3699ZM90.7185 36.1299C94.4324 37.6155 94.4316 37.6174 94.4309 37.6192C94.4306 37.6199 94.4299 37.6217 94.4294 37.623C94.4284 37.6254 94.4274 37.6279 94.4264 37.6303C94.4244 37.6352 94.4225 37.6401 94.4205 37.6449C94.4166 37.6544 94.4127 37.6638 94.4089 37.673C94.4012 37.6913 94.3936 37.7089 94.3862 37.7257C94.3714 37.7594 94.357 37.7906 94.3429 37.8195C94.315 37.8769 94.287 37.9289 94.2581 37.977C94.2038 38.0676 94.1288 38.1739 94.0194 38.2834C93.7509 38.5519 93.3171 38.7799 92.8785 38.7799V34.7799V30.7799C90.8198 30.7799 89.3061 31.683 88.3625 32.6265C87.9156 33.0734 87.6044 33.5173 87.3982 33.861C87.2934 34.0357 87.2106 34.1931 87.1468 34.3243C87.1148 34.3902 87.0872 34.4504 87.0637 34.5038C87.0519 34.5306 87.0411 34.5557 87.0313 34.5792C87.0264 34.5909 87.0217 34.6022 87.0173 34.6131C87.015 34.6185 87.0129 34.6238 87.0107 34.629C87.0097 34.6317 87.0086 34.6342 87.0076 34.6368C87.0071 34.6381 87.0063 34.64 87.0061 34.6406C87.0053 34.6425 87.0046 34.6444 90.7185 36.1299ZM92.8785 34.7799V38.7799C92.0193 38.7799 91.3085 38.0691 91.3085 37.2099H95.3085H99.3085C99.3085 33.6508 96.4376 30.7799 92.8785 30.7799V34.7799ZM95.3085 37.2099H91.3085C91.3085 37.4129 91.2835 37.4923 91.2929 37.4548C91.2973 37.4374 91.3093 37.3937 91.3354 37.3242C91.3484 37.2895 91.3648 37.2486 91.3855 37.2013C91.3958 37.1777 91.4072 37.1526 91.4197 37.1259C91.4259 37.1125 91.4325 37.0988 91.4393 37.0846C91.4427 37.0776 91.4463 37.0704 91.4498 37.0631C91.4516 37.0595 91.4534 37.0559 91.4552 37.0522C91.4562 37.0503 91.4571 37.0485 91.458 37.0466C91.4585 37.0457 91.4591 37.0443 91.4594 37.0439C91.4601 37.0425 91.4608 37.0411 95.0385 38.8299C98.6162 40.6188 98.6169 40.6174 98.6176 40.616C98.6178 40.6155 98.6185 40.6141 98.619 40.6132C98.6199 40.6113 98.6209 40.6094 98.6218 40.6075C98.6237 40.6037 98.6256 40.5998 98.6275 40.5959C98.6314 40.5882 98.6352 40.5802 98.6392 40.5721C98.647 40.5558 98.6551 40.5389 98.6633 40.5214C98.6798 40.4862 98.697 40.4484 98.7147 40.4079C98.7501 40.3269 98.7877 40.2354 98.826 40.1332C98.9027 39.9287 98.9822 39.6825 99.054 39.3951C99.1984 38.8176 99.3085 38.0869 99.3085 37.2099H95.3085ZM95.0385 38.8299L91.397 37.1747C90.9222 38.2192 90.3703 38.9215 89.7249 39.378C89.1126 39.8111 88.127 40.2299 86.3985 40.2299V44.2299V48.2299C89.5299 48.2299 92.1894 47.4338 94.3446 45.9094C96.4666 44.4084 97.8047 42.4107 98.6799 40.4852L95.0385 38.8299ZM86.3985 44.2299V40.2299C84.4952 40.2299 83.1866 39.5969 82.2248 38.3322C81.1372 36.9023 80.1385 34.1847 80.1385 29.3799H76.1385H72.1385C72.1385 35.1052 73.2997 39.8125 75.8572 43.1752C78.5404 46.703 82.3617 48.2299 86.3985 48.2299V44.2299ZM76.1385 29.3799H80.1385C80.1385 24.5791 81.1357 21.8416 82.2126 20.399C83.1682 19.1189 84.4191 18.5299 86.1285 18.5299V14.5299V10.5299C82.1679 10.5299 78.4238 12.101 75.8018 15.6134C73.3012 18.9633 72.1385 23.6508 72.1385 29.3799H76.1385ZM86.1285 14.5299V18.5299C87.8317 18.5299 89.0727 19.1129 90.0284 20.4112C91.1136 21.8855 92.1185 24.695 92.1185 29.6499H96.1185H100.118C100.118 23.8049 98.9634 19.0544 96.4711 15.6687C93.8492 12.1069 90.0953 10.5299 86.1285 10.5299V14.5299ZM96.1185 29.6499H92.1185C92.1185 28.889 92.4587 28.4629 92.6151 28.3065C92.7714 28.1501 93.1975 27.8099 93.9585 27.8099V31.8099V35.8099C95.7994 35.8099 97.3055 34.9298 98.2719 33.9634C99.2383 32.997 100.118 31.4909 100.118 29.6499H96.1185ZM93.9585 31.8099V27.8099H80.9985V31.8099V35.8099H93.9585V31.8099ZM80.9985 31.8099L77.0035 32.0097C77.1592 35.1253 77.8776 37.948 79.5286 40.0707C81.3174 42.3706 83.8262 43.3699 86.3985 43.3699V39.3699V35.3699C86.1443 35.3699 86.0357 35.3253 86.0097 35.3134C85.9954 35.3068 85.9404 35.2839 85.8434 35.1592C85.6043 34.8518 85.1077 33.8946 84.9935 31.6102L80.9985 31.8099ZM80.9985 26.9499V30.9499H91.2585V26.9499V22.9499H80.9985V26.9499ZM91.2585 26.9499L95.2535 26.7502C95.0973 23.6268 94.3777 20.8423 92.8047 18.7449C91.1073 16.4817 88.6854 15.3899 86.1285 15.3899V19.3899V23.3899C86.2615 23.3899 86.2916 23.4138 86.2734 23.4049C86.2502 23.3936 86.3002 23.4056 86.4047 23.5449C86.6542 23.8776 87.1496 24.8731 87.2635 27.1497L91.2585 26.9499ZM86.1285 19.3899V15.3899C83.5716 15.3899 81.1496 16.4817 79.4522 18.7449C77.8792 20.8423 77.1596 23.6268 77.0035 26.7502L80.9985 26.9499L84.9935 27.1497C85.1073 24.8731 85.6027 23.8776 85.8522 23.5449C85.9567 23.4056 86.0067 23.3936 85.9836 23.4049C85.9653 23.4138 85.9955 23.3899 86.1285 23.3899V19.3899ZM107.18 40.1799L110.587 38.0836C109.649 36.5594 107.813 35.8438 106.091 36.3311C104.369 36.8185 103.18 38.3904 103.18 40.1799H107.18ZM107.18 18.0399H103.18C103.18 19.8295 104.369 21.4014 106.091 21.8887C107.813 22.3761 109.649 21.6604 110.587 20.1363L107.18 18.0399ZM107.18 23.1699L103.707 21.1854C103.362 21.7898 103.18 22.4738 103.18 23.1699H107.18ZM107.18 35.0499H103.18C103.18 35.746 103.362 36.4301 103.707 37.0345L107.18 35.0499ZM107.18 40.1799H103.18V50.4399H107.18H111.18V40.1799H107.18ZM107.18 50.4399H103.18C103.18 49.5808 103.891 48.8699 104.75 48.8699V52.8699V56.8699C108.309 56.8699 111.18 53.9991 111.18 50.4399H107.18ZM104.75 52.8699V48.8699C105.609 48.8699 106.32 49.5808 106.32 50.4399H102.32H98.32C98.32 53.9991 101.191 56.8699 104.75 56.8699V52.8699ZM102.32 50.4399H106.32V17.4999H102.32H98.32V50.4399H102.32ZM102.32 17.4999H106.32C106.32 18.3591 105.609 19.0699 104.75 19.0699V15.0699V11.0699C101.191 11.0699 98.32 13.9408 98.32 17.4999H102.32ZM104.75 15.0699V19.0699C103.891 19.0699 103.18 18.3591 103.18 17.4999H107.18H111.18C111.18 13.9408 108.309 11.0699 104.75 11.0699V15.0699ZM107.18 17.4999H103.18V18.0399H107.18H111.18V17.4999H107.18ZM107.18 18.0399C110.587 20.1363 110.586 20.1378 110.585 20.1393C110.585 20.1397 110.584 20.1412 110.583 20.1421C110.582 20.144 110.581 20.1458 110.58 20.1476C110.577 20.1512 110.575 20.1546 110.573 20.1578C110.569 20.1641 110.566 20.1698 110.563 20.1747C110.557 20.1844 110.552 20.1913 110.549 20.1955C110.544 20.2038 110.545 20.2016 110.553 20.1902C110.569 20.167 110.611 20.1095 110.677 20.0288C110.813 19.8632 111.031 19.6261 111.322 19.3894C111.898 18.9216 112.656 18.5299 113.66 18.5299V14.5299V10.5299C110.344 10.5299 107.862 11.8933 106.278 13.1805C105.489 13.8213 104.897 14.4616 104.493 14.9542C104.289 15.2025 104.128 15.4192 104.009 15.588C103.95 15.6726 103.901 15.7458 103.861 15.8055C103.842 15.8354 103.825 15.862 103.81 15.8851C103.803 15.8966 103.796 15.9073 103.79 15.917C103.787 15.9219 103.784 15.9266 103.781 15.931C103.78 15.9332 103.778 15.9353 103.777 15.9374C103.777 15.9385 103.776 15.94 103.775 15.9405C103.774 15.9421 103.773 15.9436 107.18 18.0399ZM113.66 14.5299V18.5299C114.776 18.5299 115.868 18.9677 116.818 20.2974C117.856 21.7506 118.84 24.4761 118.84 29.1099H122.84H126.84C126.84 23.4838 125.664 18.9193 123.327 15.6475C120.902 12.2522 117.404 10.5299 113.66 10.5299V14.5299ZM122.84 29.1099H118.84C118.84 33.7438 117.856 36.4693 116.818 37.9225C115.868 39.2522 114.776 39.6899 113.66 39.6899V43.6899V47.6899C117.404 47.6899 120.902 45.9677 123.327 42.5724C125.664 39.3006 126.84 34.7361 126.84 29.1099H122.84ZM113.66 43.6899V39.6899C112.656 39.6899 111.898 39.2983 111.322 38.8305C111.031 38.5938 110.813 38.3567 110.677 38.1911C110.611 38.1104 110.569 38.0528 110.553 38.0297C110.545 38.0183 110.544 38.016 110.549 38.0244C110.552 38.0285 110.557 38.0354 110.563 38.0452C110.566 38.0501 110.569 38.0557 110.573 38.0621C110.575 38.0653 110.577 38.0687 110.58 38.0723C110.581 38.074 110.582 38.0759 110.583 38.0778C110.584 38.0787 110.585 38.0802 110.585 38.0806C110.586 38.0821 110.587 38.0836 107.18 40.1799C103.773 42.2763 103.774 42.2778 103.775 42.2793C103.776 42.2799 103.777 42.2814 103.777 42.2824C103.778 42.2845 103.78 42.2867 103.781 42.2889C103.784 42.2933 103.787 42.298 103.79 42.3029C103.796 42.3126 103.803 42.3233 103.81 42.3348C103.825 42.3579 103.842 42.3845 103.861 42.4144C103.901 42.4741 103.95 42.5473 104.009 42.6318C104.128 42.8006 104.289 43.0173 104.493 43.2656C104.897 43.7582 105.489 44.3986 106.278 45.0394C107.862 46.3266 110.344 47.6899 113.66 47.6899V43.6899ZM107.18 23.1699H103.18V35.0499H107.18H111.18V23.1699H107.18ZM107.18 35.0499C103.707 37.0345 103.708 37.0356 103.708 37.0367C103.709 37.0371 103.709 37.0383 103.71 37.0391C103.711 37.0406 103.712 37.0423 103.713 37.044C103.714 37.0474 103.717 37.0511 103.719 37.055C103.723 37.0628 103.728 37.0715 103.734 37.0812C103.745 37.1006 103.759 37.1237 103.775 37.1504C103.807 37.2036 103.848 37.2712 103.899 37.3509C104 37.51 104.138 37.7205 104.313 37.9655C104.658 38.4486 105.17 39.1015 105.837 39.7684C107.069 41.0005 109.387 42.8299 112.58 42.8299V38.8299V34.8299C112.533 34.8299 112.151 34.7694 111.493 34.1115C111.215 33.8333 110.984 33.5413 110.823 33.3156C110.745 33.2062 110.69 33.1214 110.66 33.0738C110.645 33.0502 110.636 33.0365 110.635 33.0344C110.634 33.0334 110.636 33.0353 110.639 33.0404C110.64 33.0429 110.642 33.0462 110.644 33.0504C110.646 33.0525 110.647 33.0548 110.648 33.0573C110.649 33.0585 110.65 33.0598 110.651 33.0612C110.651 33.0618 110.652 33.0629 110.652 33.0632C110.652 33.0643 110.653 33.0654 107.18 35.0499ZM112.58 38.8299V42.8299C115.258 42.8299 118.039 41.83 119.87 38.9524C121.441 36.4827 121.98 33.1033 121.98 29.1099H117.98H113.98C113.98 32.6766 113.439 34.1572 113.12 34.6574C113.014 34.8251 112.983 34.8057 113.039 34.7784C113.061 34.7674 112.953 34.8299 112.58 34.8299V38.8299ZM117.98 29.1099H121.98C121.98 25.1166 121.441 21.7372 119.87 19.2674C118.039 16.3899 115.258 15.3899 112.58 15.3899V19.3899V23.3899C112.953 23.3899 113.061 23.4525 113.039 23.4415C112.983 23.4141 113.014 23.3948 113.12 23.5624C113.439 24.0627 113.98 25.5433 113.98 29.1099H117.98ZM112.58 19.3899V15.3899C109.387 15.3899 107.069 17.2194 105.837 18.4515C105.17 19.1183 104.658 19.7713 104.313 20.2544C104.138 20.4994 104 20.7099 103.899 20.869C103.848 20.9487 103.807 21.0163 103.775 21.0695C103.759 21.0962 103.745 21.1193 103.734 21.1387C103.728 21.1484 103.723 21.1571 103.719 21.1649C103.717 21.1688 103.714 21.1725 103.713 21.1759C103.712 21.1776 103.711 21.1792 103.71 21.1808C103.709 21.1816 103.709 21.1828 103.708 21.1831C103.708 21.1843 103.707 21.1854 107.18 23.1699C110.653 25.1545 110.652 25.1556 110.652 25.1566C110.652 25.157 110.651 25.158 110.651 25.1587C110.65 25.1601 110.649 25.1614 110.648 25.1626C110.647 25.1651 110.646 25.1674 110.644 25.1695C110.642 25.1736 110.64 25.177 110.639 25.1795C110.636 25.1846 110.634 25.1865 110.635 25.1855C110.636 25.1833 110.645 25.1697 110.659 25.1461C110.69 25.0984 110.745 25.0136 110.823 24.9043C110.984 24.6786 111.215 24.3865 111.493 24.1084C112.151 23.4505 112.533 23.3899 112.58 23.3899V19.3899ZM134.18 25.0599H130.18C130.18 26.2917 130.748 27.4547 131.718 28.2128C132.689 28.9708 133.955 29.2393 135.15 28.9405L134.18 25.0599ZM134.18 29.9199L133.21 26.0394C131.429 26.4845 130.18 28.0845 130.18 29.9199H134.18ZM134.18 38.8299H130.18C130.18 39.9601 130.658 41.0374 131.496 41.7957C132.334 42.5541 133.454 42.9225 134.578 42.8101L134.18 38.8299ZM132.344 43.6899V39.6899H131.75V43.6899V47.6899H132.344V43.6899ZM131.75 43.6899V39.6899C132.609 39.6899 133.32 40.4008 133.32 41.2599H129.32H125.32C125.32 44.8191 128.191 47.6899 131.75 47.6899V43.6899ZM129.32 41.2599H133.32V17.4999H129.32H125.32V41.2599H129.32ZM129.32 17.4999H133.32C133.32 18.3591 132.609 19.0699 131.75 19.0699V15.0699V11.0699C128.191 11.0699 125.32 13.9408 125.32 17.4999H129.32ZM131.75 15.0699V19.0699C130.891 19.0699 130.18 18.3591 130.18 17.4999H134.18H138.18C138.18 13.9408 135.309 11.0699 131.75 11.0699V15.0699ZM134.18 17.4999H130.18V25.0599H134.18H138.18V17.4999H134.18ZM134.18 25.0599C135.15 28.9405 135.15 28.9407 135.149 28.9408C135.149 28.9409 135.148 28.9411 135.148 28.9412C135.147 28.9414 135.146 28.9416 135.145 28.9418C135.143 28.9422 135.142 28.9426 135.14 28.943C135.137 28.9437 135.134 28.9444 135.132 28.9451C135.127 28.9463 135.122 28.9474 135.119 28.9481C135.113 28.9497 135.11 28.9503 135.111 28.9501C135.112 28.9497 135.129 28.946 135.159 28.9401C135.218 28.9281 135.331 28.9072 135.488 28.8847C135.805 28.8394 136.289 28.7899 136.88 28.7899V24.7899V20.7899C135.851 20.7899 134.985 20.8755 134.357 20.9651C134.042 21.0102 133.783 21.0568 133.59 21.0954C133.493 21.1148 133.412 21.1322 133.349 21.1466C133.317 21.1538 133.289 21.1602 133.266 21.1657C133.255 21.1684 133.244 21.171 133.235 21.1733C133.23 21.1744 133.226 21.1755 133.221 21.1765C133.219 21.177 133.217 21.1775 133.215 21.178C133.214 21.1782 133.214 21.1785 133.213 21.1787C133.212 21.1788 133.211 21.179 133.211 21.179C133.211 21.1792 133.21 21.1794 134.18 25.0599ZM136.88 24.7899V28.7899C138.991 28.7899 140.371 29.4475 141.197 30.2405C142.013 31.0236 142.6 32.2338 142.6 33.9699H146.6H150.6C150.6 30.306 149.297 26.9263 146.738 24.4694C144.189 22.0223 140.709 20.7899 136.88 20.7899V24.7899ZM146.6 33.9699H142.6C142.6 35.682 140.605 39.6899 132.344 39.6899V43.6899V47.6899C142.876 47.6899 150.6 41.9779 150.6 33.9699H146.6ZM134.18 29.9199H130.18V38.8299H134.18H138.18V29.9199H134.18ZM134.18 38.8299L134.578 42.8101C137.671 42.5008 140.401 41.6842 142.441 40.0974C144.643 38.3846 145.74 35.9981 145.74 33.4299H141.74H137.74C137.74 33.5 137.733 33.5417 137.729 33.561C137.725 33.5792 137.721 33.5864 137.72 33.5892C137.719 33.5919 137.712 33.6064 137.689 33.6339C137.666 33.6622 137.618 33.7138 137.529 33.7825C137.14 34.0857 136.089 34.6191 133.782 34.8498L134.18 38.8299ZM141.74 33.4299H145.74C145.74 31.2819 144.895 29.1651 143.086 27.6571C141.351 26.2115 139.127 25.6499 136.88 25.6499V29.6499V33.6499C137.873 33.6499 138.079 33.8984 137.964 33.8028C137.904 33.7527 137.831 33.6642 137.781 33.5526C137.734 33.4477 137.74 33.3932 137.74 33.4299H141.74ZM136.88 29.6499V25.6499C135.851 25.6499 134.985 25.7355 134.357 25.8251C134.042 25.8702 133.783 25.9168 133.59 25.9554C133.493 25.9748 133.412 25.9922 133.349 26.0066C133.317 26.0138 133.289 26.0202 133.266 26.0257C133.255 26.0284 133.244 26.031 133.235 26.0333C133.23 26.0344 133.226 26.0355 133.221 26.0365C133.219 26.037 133.217 26.0375 133.215 26.038C133.214 26.0382 133.214 26.0385 133.213 26.0387C133.212 26.0388 133.211 26.039 133.211 26.039C133.211 26.0392 133.21 26.0394 134.18 29.9199C135.15 33.8005 135.15 33.8007 135.149 33.8008C135.149 33.8009 135.148 33.8011 135.148 33.8012C135.147 33.8014 135.146 33.8016 135.145 33.8018C135.143 33.8022 135.142 33.8026 135.14 33.803C135.137 33.8037 135.134 33.8044 135.132 33.8051C135.127 33.8063 135.122 33.8074 135.119 33.8081C135.113 33.8097 135.11 33.8103 135.111 33.8101C135.112 33.8097 135.129 33.806 135.159 33.8001C135.218 33.7881 135.331 33.7672 135.488 33.7447C135.805 33.6994 136.289 33.6499 136.88 33.6499V29.6499ZM169.542 19.9299V15.9299C167.332 15.9299 165.542 17.7208 165.542 19.9299H169.542ZM164.682 19.9299H168.682C168.682 17.7208 166.891 15.9299 164.682 15.9299V19.9299ZM157.932 17.4999H161.932C161.932 18.3591 161.221 19.0699 160.362 19.0699V15.0699V11.0699C156.802 11.0699 153.932 13.9408 153.932 17.4999H157.932ZM160.362 15.0699V19.0699H173.862V15.0699V11.0699H160.362V15.0699ZM173.862 15.0699V19.0699C173.002 19.0699 172.292 18.3591 172.292 17.4999H176.292H180.292C180.292 13.9408 177.421 11.0699 173.862 11.0699V15.0699ZM176.292 17.4999H172.292C172.292 16.6408 173.002 15.9299 173.862 15.9299V19.9299V23.9299C177.421 23.9299 180.292 21.0591 180.292 17.4999H176.292ZM173.862 19.9299V15.9299H169.542V19.9299V23.9299H173.862V19.9299ZM169.542 19.9299H165.542V41.2599H169.542H173.542V19.9299H169.542ZM169.542 41.2599H165.542C165.542 40.4008 166.252 39.6899 167.112 39.6899V43.6899V47.6899C170.671 47.6899 173.542 44.8191 173.542 41.2599H169.542ZM167.112 43.6899V39.6899C167.971 39.6899 168.682 40.4008 168.682 41.2599H164.682H160.682C160.682 44.8191 163.552 47.6899 167.112 47.6899V43.6899ZM164.682 41.2599H168.682V19.9299H164.682H160.682V41.2599H164.682ZM164.682 19.9299V15.9299H160.362V19.9299V23.9299H164.682V19.9299ZM160.362 19.9299V15.9299C161.221 15.9299 161.932 16.6408 161.932 17.4999H157.932H153.932C153.932 21.0591 156.802 23.9299 160.362 23.9299V19.9299ZM192.511 26.9499L190.722 23.3722C189.255 24.1056 188.384 25.66 188.525 27.2939C188.666 28.9278 189.79 30.31 191.361 30.7812L192.511 26.9499ZM183.331 15.0699L183.988 19.0155C184.093 18.998 184.197 18.9763 184.301 18.9505L183.331 15.0699ZM185.491 19.6599L184.52 15.7794C182.74 16.2245 181.491 17.8245 181.491 19.6599H185.491ZM185.491 25.3299H181.491C181.491 27.5391 183.281 29.3299 185.491 29.3299V25.3299ZM185.491 30.1899V26.1899C183.281 26.1899 181.491 27.9808 181.491 30.1899H185.491ZM185.491 38.8299H181.491C181.491 39.9601 181.969 41.0374 182.807 41.7957C183.644 42.5541 184.764 42.9225 185.889 42.8101L185.491 38.8299ZM192.511 26.9499C191.361 30.7812 191.359 30.7807 191.358 30.7802C191.357 30.78 191.355 30.7795 191.354 30.7791C191.352 30.7785 191.35 30.7778 191.348 30.7772C191.343 30.7759 191.34 30.7747 191.336 30.7736C191.329 30.7713 191.323 30.7694 191.318 30.7678C191.308 30.7647 191.302 30.7628 191.301 30.7624C191.298 30.7614 191.311 30.7658 191.338 30.7759C191.393 30.7965 191.499 30.8385 191.638 30.9048C191.926 31.0415 192.303 31.2555 192.665 31.5542C193.331 32.1033 193.911 32.8752 193.911 34.2399H197.911H201.911C201.911 29.9347 199.791 27.0616 197.756 25.3832C196.768 24.5681 195.795 24.0228 195.071 23.6786C194.704 23.5043 194.388 23.3755 194.147 23.2853C194.026 23.2401 193.924 23.2041 193.842 23.1767C193.801 23.163 193.765 23.1513 193.735 23.1417C193.719 23.1369 193.706 23.1325 193.693 23.1287C193.687 23.1268 193.681 23.125 193.675 23.1233C193.673 23.1225 193.67 23.1217 193.667 23.1209C193.666 23.1205 193.664 23.1199 193.664 23.1197C193.662 23.1192 193.66 23.1186 192.511 26.9499ZM197.911 34.2399H193.911C193.911 35.6155 192.003 39.6899 183.601 39.6899V43.6899V47.6899C194.098 47.6899 201.911 42.0444 201.911 34.2399H197.911ZM183.601 43.6899V39.6899H183.061V43.6899V47.6899H183.601V43.6899ZM183.061 43.6899V39.6899C183.92 39.6899 184.631 40.4008 184.631 41.2599H180.631H176.631C176.631 44.8191 179.501 47.6899 183.061 47.6899V43.6899ZM180.631 41.2599H184.631V17.7699H180.631H176.631V41.2599H180.631ZM180.631 17.7699H184.631C184.631 18.2252 184.429 18.6162 184.202 18.8434C184.001 19.0443 183.875 19.0343 183.988 19.0155L183.331 15.0699L182.673 11.1244C179.721 11.6164 176.631 13.9162 176.631 17.7699H180.631ZM183.331 15.0699C184.301 18.9505 184.3 18.9506 184.3 18.9507C184.3 18.9508 184.299 18.9509 184.299 18.9509C184.299 18.9511 184.298 18.9512 184.298 18.9513C184.297 18.9515 184.296 18.9517 184.295 18.9519C184.294 18.9523 184.293 18.9525 184.292 18.9526C184.292 18.9527 184.293 18.9525 184.296 18.9517C184.302 18.9502 184.316 18.9469 184.337 18.9421C184.378 18.9324 184.447 18.9167 184.54 18.8968C184.726 18.8568 185.003 18.8014 185.338 18.7455C186.03 18.6301 186.873 18.5299 187.651 18.5299V14.5299V10.5299C186.268 10.5299 184.951 10.6997 184.023 10.8544C183.548 10.9335 183.15 11.0131 182.864 11.0744C182.72 11.1051 182.604 11.1315 182.519 11.1514C182.476 11.1613 182.441 11.1696 182.415 11.176C182.402 11.1792 182.39 11.182 182.381 11.1842C182.377 11.1853 182.373 11.1863 182.369 11.1872C182.367 11.1876 182.366 11.188 182.364 11.1884C182.364 11.1886 182.363 11.1887 182.362 11.1889C182.362 11.189 182.362 11.1891 182.361 11.1891C182.361 11.1893 182.36 11.1894 183.331 15.0699ZM187.651 14.5299V18.5299C190.688 18.5299 191.751 20.3463 191.751 21.5499H195.751H199.751C199.751 15.1936 194.334 10.5299 187.651 10.5299V14.5299ZM195.751 21.5499H191.751C191.751 22.189 191.506 22.6131 191.191 22.9543C191.024 23.1353 190.854 23.2699 190.735 23.3523C190.679 23.3916 190.642 23.4135 190.634 23.4178C190.631 23.4198 190.635 23.4171 190.649 23.4096C190.656 23.4058 190.666 23.4008 190.678 23.3946C190.684 23.3915 190.69 23.3881 190.698 23.3843C190.701 23.3825 190.705 23.3805 190.709 23.3785C190.711 23.3775 190.713 23.3765 190.715 23.3754C190.716 23.3749 190.718 23.3741 190.719 23.3738C190.72 23.373 190.722 23.3722 192.511 26.9499C194.299 30.5276 194.301 30.5268 194.303 30.526C194.303 30.5257 194.305 30.5249 194.306 30.5243C194.308 30.5232 194.311 30.522 194.313 30.5208C194.318 30.5184 194.323 30.5158 194.328 30.5132C194.339 30.5079 194.35 30.5021 194.362 30.4958C194.386 30.4832 194.414 30.4686 194.445 30.4521C194.506 30.419 194.58 30.3777 194.665 30.3281C194.835 30.229 195.051 30.0948 195.298 29.9232C195.787 29.5837 196.427 29.0771 197.07 28.3806C198.375 26.9668 199.751 24.6909 199.751 21.5499H195.751ZM190.891 22.0899H194.891C194.891 20.3499 194.278 18.4899 192.715 17.1221C191.221 15.8156 189.353 15.3899 187.651 15.3899V19.3899V23.3899C188.108 23.3899 187.86 23.5043 187.447 23.1427C187.24 22.962 187.082 22.7343 186.987 22.5029C186.897 22.2832 186.891 22.128 186.891 22.0899H190.891ZM187.651 19.3899V15.3899C186.808 15.3899 186.031 15.4922 185.508 15.5794C185.236 15.6248 185.006 15.6706 184.838 15.7065C184.754 15.7246 184.684 15.7405 184.63 15.753C184.603 15.7592 184.581 15.7646 184.562 15.7691C184.553 15.7713 184.545 15.7733 184.538 15.775C184.535 15.7759 184.531 15.7767 184.528 15.7774C184.527 15.7777 184.526 15.7781 184.524 15.7784C184.524 15.7786 184.523 15.7788 184.522 15.7789C184.522 15.779 184.521 15.7791 184.521 15.7791C184.521 15.7793 184.52 15.7794 185.491 19.6599C186.461 23.5405 186.46 23.5406 186.46 23.5407C186.46 23.5408 186.459 23.5409 186.459 23.5409C186.458 23.5411 186.458 23.5412 186.457 23.5414C186.456 23.5416 186.455 23.5419 186.454 23.5421C186.452 23.5426 186.451 23.543 186.449 23.5433C186.447 23.544 186.445 23.5445 186.444 23.5447C186.442 23.5452 186.443 23.5448 186.448 23.5437C186.458 23.5414 186.481 23.5362 186.514 23.529C186.583 23.5143 186.691 23.4926 186.823 23.4705C187.11 23.4226 187.413 23.3899 187.651 23.3899V19.3899ZM185.491 19.6599H181.491V25.3299H185.491H189.491V19.6599H185.491ZM185.491 25.3299V29.3299C187.898 29.3299 190.131 28.8207 191.885 27.6062C193.718 26.3374 194.891 24.3564 194.891 22.0899H190.891H186.891C186.891 21.8145 186.963 21.551 187.082 21.3371C187.199 21.1267 187.319 21.0374 187.331 21.0287C187.338 21.0237 187.229 21.1008 186.925 21.1795C186.622 21.2581 186.156 21.3299 185.491 21.3299V25.3299ZM185.491 30.1899H181.491V38.8299H185.491H189.491V30.1899H185.491ZM185.491 38.8299L185.889 42.8101C188.99 42.5 191.682 41.6841 193.696 40.1737C195.844 38.562 197.051 36.2629 197.051 33.6999H193.051H189.051C189.051 33.7059 189.05 33.6941 189.056 33.6704C189.062 33.6459 189.07 33.6235 189.079 33.6079C189.099 33.5676 189.08 33.6355 188.896 33.7737C188.479 34.0858 187.391 34.6199 185.093 34.8498L185.491 38.8299ZM193.051 33.6999H197.051C197.051 31.5275 196.083 29.4967 194.318 28.1C192.617 26.753 190.444 26.1899 188.191 26.1899V30.1899V34.1899C189.177 34.1899 189.434 34.4369 189.353 34.3724C189.309 34.3373 189.22 34.2491 189.148 34.0993C189.076 33.9506 189.051 33.8066 189.051 33.6999H193.051ZM188.191 30.1899V26.1899H185.491V30.1899V34.1899H188.191V30.1899ZM212.486 39.3699V43.3699C213.733 43.3699 215.119 43.1626 216.467 42.497C217.851 41.8142 218.966 40.7612 219.798 39.4244C221.352 36.9262 221.886 33.49 221.886 29.3799H217.886H213.886C213.886 33.0998 213.341 34.6587 213.005 35.198C212.892 35.3799 212.859 35.3564 212.927 35.3232C212.959 35.3073 212.86 35.3699 212.486 35.3699V39.3699ZM217.886 29.3799H221.886C221.886 25.2698 221.352 21.8337 219.798 19.3355C218.966 17.9987 217.851 16.9457 216.467 16.2629C215.119 15.5972 213.733 15.3899 212.486 15.3899V19.3899V23.3899C212.86 23.3899 212.959 23.4526 212.927 23.4366C212.859 23.4035 212.892 23.38 213.005 23.5619C213.341 24.1012 213.886 25.66 213.886 29.3799H217.886ZM212.486 19.3899V15.3899C211.24 15.3899 209.854 15.5972 208.505 16.2629C207.122 16.9457 206.007 17.9987 205.175 19.3355C203.621 21.8337 203.086 25.2698 203.086 29.3799H207.086H211.086C211.086 25.66 211.632 24.1012 211.968 23.5619C212.081 23.38 212.113 23.4035 212.046 23.4366C212.014 23.4526 212.113 23.3899 212.486 23.3899V19.3899ZM207.086 29.3799H203.086C203.086 33.49 203.621 36.9262 205.175 39.4244C206.007 40.7612 207.122 41.8142 208.505 42.497C209.854 43.1626 211.24 43.3699 212.486 43.3699V39.3699V35.3699C212.113 35.3699 212.014 35.3073 212.046 35.3232C212.113 35.3564 212.081 35.3799 211.968 35.198C211.632 34.6587 211.086 33.0998 211.086 29.3799H207.086ZM212.486 44.2299V40.2299C210.583 40.2299 209.274 39.5969 208.313 38.3322C207.225 36.9023 206.226 34.1847 206.226 29.3799H202.226H198.226C198.226 35.1052 199.388 39.8125 201.945 43.1752C204.628 46.703 208.45 48.2299 212.486 48.2299V44.2299ZM202.226 29.3799H206.226C206.226 24.5752 207.225 21.8575 208.313 20.4277C209.274 19.163 210.583 18.5299 212.486 18.5299V14.5299V10.5299C208.45 10.5299 204.628 12.0569 201.945 15.5847C199.388 18.9473 198.226 23.6547 198.226 29.3799H202.226ZM212.486 14.5299V18.5299C214.39 18.5299 215.698 19.163 216.66 20.4277C217.748 21.8575 218.746 24.5752 218.746 29.3799H222.746H226.746C226.746 23.6547 225.585 18.9473 223.028 15.5847C220.344 12.0569 216.523 10.5299 212.486 10.5299V14.5299ZM222.746 29.3799H218.746C218.746 34.1847 217.748 36.9023 216.66 38.3322C215.698 39.5969 214.39 40.2299 212.486 40.2299V44.2299V48.2299C216.523 48.2299 220.344 46.703 223.028 43.1752C225.585 39.8125 226.746 35.1052 226.746 29.3799H222.746ZM243.292 25.8699H247.292C247.292 24.0535 246.068 22.4652 244.311 22.0021C242.555 21.539 240.707 22.3176 239.812 23.8979L243.292 25.8699ZM234.112 42.0699L237.542 44.1279C237.559 44.0995 237.575 44.0708 237.592 44.042L234.112 42.0699ZM234.112 32.8899H230.112C230.112 34.7064 231.336 36.2947 233.092 36.7578C234.848 37.2208 236.696 36.4423 237.592 34.862L234.112 32.8899ZM243.292 16.6899L239.862 14.632C239.845 14.6604 239.828 14.689 239.812 14.7179L243.292 16.6899ZM240.862 5.88994L237.086 4.56853C237.08 4.58731 237.073 4.60614 237.067 4.62502L240.862 5.88994ZM245.236 7.50994L249.092 8.57057C249.095 8.56059 249.098 8.55059 249.101 8.54058L245.236 7.50994ZM232.168 7.50994L228.303 8.54059C228.305 8.55059 228.308 8.56059 228.311 8.57057L232.168 7.50994ZM236.542 5.88994L240.336 4.62503C240.33 4.60615 240.324 4.58732 240.317 4.56853L236.542 5.88994ZM248.152 17.4999H244.152V41.2599H248.152H252.152V17.4999H248.152ZM248.152 41.2599H244.152C244.152 40.4008 244.863 39.6899 245.722 39.6899V43.6899V47.6899C249.281 47.6899 252.152 44.8191 252.152 41.2599H248.152ZM245.722 43.6899V39.6899C246.581 39.6899 247.292 40.4008 247.292 41.2599H243.292H239.292C239.292 44.8191 242.163 47.6899 245.722 47.6899V43.6899ZM243.292 41.2599H247.292V25.8699H243.292H239.292V41.2599H243.292ZM243.292 25.8699L239.812 23.8979L230.632 40.0979L234.112 42.0699L237.592 44.042L246.772 27.842L243.292 25.8699ZM234.112 42.0699L230.682 40.012C230.656 40.0552 230.654 40.032 230.745 39.9648C230.853 39.8847 231.18 39.6899 231.682 39.6899V43.6899V47.6899C234.824 47.6899 236.752 45.4443 237.542 44.1279L234.112 42.0699ZM231.682 43.6899V39.6899C232.541 39.6899 233.252 40.4008 233.252 41.2599H229.252H225.252C225.252 44.8191 228.123 47.6899 231.682 47.6899V43.6899ZM229.252 41.2599H233.252V17.4999H229.252H225.252V41.2599H229.252ZM229.252 17.4999H233.252C233.252 18.3591 232.541 19.0699 231.682 19.0699V15.0699V11.0699C228.123 11.0699 225.252 13.9408 225.252 17.4999H229.252ZM231.682 15.0699V19.0699C230.823 19.0699 230.112 18.3591 230.112 17.4999H234.112H238.112C238.112 13.9408 235.241 11.0699 231.682 11.0699V15.0699ZM234.112 17.4999H230.112V32.8899H234.112H238.112V17.4999H234.112ZM234.112 32.8899L237.592 34.862L246.772 18.662L243.292 16.6899L239.812 14.7179L230.632 30.9179L234.112 32.8899ZM243.292 16.6899L246.722 18.7479C246.748 18.7046 246.75 18.7279 246.659 18.7951C246.55 18.8751 246.223 19.0699 245.722 19.0699V15.0699V11.0699C242.579 11.0699 240.652 13.3155 239.862 14.632L243.292 16.6899ZM245.722 15.0699V19.0699C244.863 19.0699 244.152 18.3591 244.152 17.4999H248.152H252.152C252.152 13.9408 249.281 11.0699 245.722 11.0699V15.0699ZM238.702 7.50994V11.5099C241.888 11.5099 243.975 9.2005 244.656 7.15486L240.862 5.88994L237.067 4.62502C237.171 4.31367 237.338 4.08353 237.552 3.90786C237.797 3.70772 238.198 3.50994 238.702 3.50994V7.50994ZM240.862 5.88994L244.637 7.21134C244.687 7.06798 244.642 7.29567 244.324 7.56958C244.155 7.71479 243.952 7.83544 243.733 7.91309C243.519 7.98896 243.359 7.99994 243.292 7.99994V3.99994V-6.10352e-05C241.744 -6.10352e-05 240.28 0.493092 239.1 1.5103C238 2.45921 237.414 3.6319 237.086 4.56853L240.862 5.88994ZM243.292 3.99994V7.99994C242.531 7.99994 242.105 7.65975 241.948 7.50337C241.792 7.34698 241.452 6.92086 241.452 6.15994H245.452H249.452C249.452 4.31901 248.571 2.8129 247.605 1.84651C246.639 0.880127 245.133 -6.10352e-05 243.292 -6.10352e-05V3.99994ZM245.452 6.15994H241.452C241.452 6.01614 241.465 6.03298 241.421 6.25298C241.406 6.32726 241.391 6.39448 241.38 6.44146C241.374 6.46416 241.37 6.48009 241.369 6.48737C241.368 6.49096 241.367 6.49226 241.368 6.49103C241.368 6.49041 241.368 6.48915 241.369 6.48721C241.369 6.48623 241.369 6.48509 241.37 6.48378C241.37 6.48312 241.37 6.48241 241.37 6.48167C241.37 6.4813 241.37 6.48091 241.37 6.48052C241.37 6.48032 241.371 6.48001 241.371 6.47992C241.371 6.47961 241.371 6.4793 245.236 7.50994C249.101 8.54058 249.101 8.54027 249.101 8.53995C249.101 8.53984 249.101 8.53951 249.101 8.53929C249.101 8.53885 249.101 8.53839 249.101 8.53791C249.102 8.53697 249.102 8.53598 249.102 8.53493C249.103 8.53283 249.103 8.53052 249.104 8.528C249.105 8.52296 249.107 8.51707 249.109 8.51039C249.112 8.49703 249.116 8.4804 249.121 8.46079C249.131 8.42167 249.144 8.37009 249.159 8.30843C249.188 8.18665 249.227 8.01762 249.266 7.8219C249.33 7.5019 249.452 6.84373 249.452 6.15994H245.452ZM245.236 7.50994L241.379 6.44931C241.317 6.67599 241.141 6.99847 240.773 7.27278C240.432 7.52672 239.802 7.82994 238.702 7.82994V11.8299V15.8299C244.21 15.8299 248.002 12.5355 249.092 8.57057L245.236 7.50994ZM238.702 11.8299V7.82994C237.601 7.82994 236.971 7.52672 236.63 7.27278C236.262 6.99847 236.087 6.67599 236.025 6.44931L232.168 7.50994L228.311 8.57057C229.401 12.5355 233.193 15.8299 238.702 15.8299V11.8299ZM232.168 7.50994C236.033 6.47929 236.033 6.4796 236.033 6.47991C236.033 6.48001 236.033 6.48032 236.033 6.48051C236.033 6.48091 236.033 6.48129 236.033 6.48166C236.033 6.48241 236.034 6.48311 236.034 6.48377C236.034 6.48509 236.034 6.48623 236.035 6.4872C236.035 6.48914 236.036 6.49041 236.036 6.49103C236.036 6.49226 236.036 6.49096 236.035 6.48737C236.033 6.48008 236.029 6.46416 236.023 6.44145C236.012 6.39448 235.997 6.32726 235.982 6.25298C235.938 6.03298 235.952 6.01614 235.952 6.15994H231.952H227.952C227.952 6.84373 228.073 7.5019 228.137 7.8219C228.176 8.01762 228.215 8.18665 228.244 8.30843C228.259 8.3701 228.272 8.42167 228.282 8.4608C228.287 8.48041 228.291 8.49704 228.295 8.5104C228.297 8.51708 228.298 8.52296 228.299 8.528C228.3 8.53052 228.301 8.53283 228.301 8.53493C228.302 8.53598 228.302 8.53698 228.302 8.53792C228.302 8.53839 228.302 8.53885 228.302 8.5393C228.302 8.53952 228.303 8.53984 228.303 8.53995C228.303 8.54027 228.303 8.54059 232.168 7.50994ZM231.952 6.15994H235.952C235.952 6.92087 235.611 7.34698 235.455 7.50337C235.299 7.65975 234.873 7.99994 234.112 7.99994V3.99994V-6.10352e-05C232.271 -6.10352e-05 230.765 0.880127 229.798 1.84651C228.832 2.8129 227.952 4.31901 227.952 6.15994H231.952ZM234.112 3.99994V7.99994C234.045 7.99994 233.884 7.98896 233.67 7.91309C233.451 7.83544 233.248 7.71479 233.079 7.56958C232.762 7.29567 232.716 7.06798 232.766 7.21134L236.542 5.88994L240.317 4.56853C239.989 3.6319 239.404 2.45921 238.303 1.5103C237.123 0.493092 235.66 -6.10352e-05 234.112 -6.10352e-05V3.99994ZM236.542 5.88994L232.747 7.15485C233.429 9.2005 235.515 11.5099 238.702 11.5099V7.50994V3.50994C239.205 3.50994 239.606 3.70772 239.851 3.90786C240.066 4.08353 240.233 4.31368 240.336 4.62503L236.542 5.88994Z" fill="#4D3C82" mask="url(#path-1-outside-1_0_1)"/>
</g>
</g>
</svg>
