<svg width="546" height="1163" viewBox="0 0 546 1163" fill="none" xmlns="http://www.w3.org/2000/svg">
<g id="Frame 4">
<g id="m-3">
<path id="Vector" d="M336.374 962.822C343.034 913.199 336.374 824.276 392.488 745.509C434.872 694.715 476.365 640.479 476.651 571.27C480.943 461.348 386.843 357.926 269.383 369.223C208.319 375.097 167.985 400.002 125.909 410.363C103.682 415.835 128.12 442.904 144.122 449.613C192.582 469.935 215.402 440.506 267.21 435.797C324.409 430.597 385.508 470.9 402.231 526.859C419.056 580.931 393.898 630.005 360.324 671.799C301.112 745.509 272.52 827.946 269.361 940.375C264.815 958.031 261.502 977.682 265.811 995.839C271.81 1025.25 308.622 1037.99 325.607 1010.46C332.753 998.839 334.081 984.578 336.374 971.158C337.925 961.415 332.548 972 336.342 962.889L336.37 962.826L336.374 962.822Z" fill="#DB9CF3" stroke="#A7599C" stroke-width="6.05347" stroke-miterlimit="10"/>
<g id="Group">
<path id="Vector_2" d="M188.706 449.614C194.083 449.614 198.442 445.255 198.442 439.878C198.442 434.501 194.083 430.143 188.706 430.143C183.33 430.143 178.971 434.501 178.971 439.878C178.971 445.255 183.33 449.614 188.706 449.614Z" fill="#E9BBF6" stroke="#C684B9" stroke-width="2.01782" stroke-miterlimit="10"/>
<path id="Vector_3" d="M188.708 444.119C191.049 444.119 192.947 442.221 192.947 439.88C192.947 437.539 191.049 435.641 188.708 435.641C186.367 435.641 184.469 437.539 184.469 439.88C184.469 442.221 186.367 444.119 188.708 444.119Z" fill="#E9BBF6" stroke="#C684B9" stroke-width="2.01782" stroke-miterlimit="10"/>
<g id="Group_2">
<path id="Vector_4" d="M161.075 446.007C164.63 446.007 167.511 443.126 167.511 439.571C167.511 436.016 164.63 433.135 161.075 433.135C157.52 433.135 154.639 436.016 154.639 439.571C154.639 443.126 157.52 446.007 161.075 446.007Z" fill="#E9BBF6" stroke="#C684B9" stroke-width="2.01782" stroke-miterlimit="10"/>
<path id="Vector_5" d="M161.076 442.379C162.625 442.379 163.881 441.123 163.881 439.574C163.881 438.025 162.625 436.77 161.076 436.77C159.527 436.77 158.271 438.025 158.271 439.574C158.271 441.123 159.527 442.379 161.076 442.379Z" fill="#E9BBF6" stroke="#C684B9" stroke-width="2.01782" stroke-miterlimit="10"/>
</g>
<path id="Vector_6" d="M243.538 430.694C246.876 430.694 249.582 427.988 249.582 424.65C249.582 421.312 246.876 418.605 243.538 418.605C240.2 418.605 237.494 421.312 237.494 424.65C237.494 427.988 240.2 430.694 243.538 430.694Z" fill="#E9BBF6" stroke="#C684B9" stroke-width="2.01782" stroke-miterlimit="10"/>
<path id="Vector_7" d="M243.54 427.285C244.993 427.285 246.172 426.107 246.172 424.653C246.172 423.2 244.993 422.021 243.54 422.021C242.086 422.021 240.908 423.2 240.908 424.653C240.908 426.107 242.086 427.285 243.54 427.285Z" fill="#E9BBF6" stroke="#C684B9" stroke-width="2.01782" stroke-miterlimit="10"/>
<path id="Vector_8" d="M216.589 438.85C220.528 438.85 223.721 435.657 223.721 431.718C223.721 427.779 220.528 424.586 216.589 424.586C212.65 424.586 209.457 427.779 209.457 431.718C209.457 435.657 212.65 438.85 216.589 438.85Z" fill="#E9BBF6" stroke="#C684B9" stroke-width="2.01782" stroke-miterlimit="10"/>
<path id="Vector_9" d="M216.589 434.823C218.304 434.823 219.695 433.433 219.695 431.718C219.695 430.003 218.304 428.613 216.589 428.613C214.875 428.613 213.484 430.003 213.484 431.718C213.484 433.433 214.875 434.823 216.589 434.823Z" fill="#E9BBF6" stroke="#C684B9" stroke-width="2.01782" stroke-miterlimit="10"/>
</g>
</g>
<g id="m-2">
<path id="Vector_10" d="M196.431 1066.88C201.849 1026.52 196.431 954.19 242.073 890.123C276.546 848.809 310.295 804.696 310.528 748.403C314.019 658.996 237.481 574.876 141.943 584.065C92.276 588.843 59.4692 609.099 25.246 617.526C7.16747 621.977 27.0446 643.995 40.0604 649.451C79.4757 665.981 98.0369 642.044 140.176 638.214C186.7 633.984 236.395 666.765 249.997 712.28C263.683 756.261 243.219 796.176 215.912 830.17C167.751 890.123 144.495 957.175 141.926 1048.62C138.228 1062.98 135.533 1078.97 139.038 1093.73C143.917 1117.66 173.859 1128.01 187.674 1105.63C193.486 1096.17 194.567 1084.57 196.431 1073.66C197.693 1065.73 193.32 1074.34 196.405 1066.93L196.428 1066.88L196.431 1066.88Z" fill="#DB9CF3" stroke="#A7599C" stroke-width="6.05347" stroke-miterlimit="10"/>
<g id="Group_3">
<path id="Vector_11" d="M76.3249 649.449C80.6983 649.449 84.2436 645.903 84.2436 641.53C84.2436 637.157 80.6983 633.611 76.3249 633.611C71.9516 633.611 68.4062 637.157 68.4062 641.53C68.4062 645.903 71.9516 649.449 76.3249 649.449Z" fill="#E9BBF6" stroke="#C684B9" stroke-width="2.01782" stroke-miterlimit="10"/>
<path id="Vector_12" d="M76.3249 644.978C78.2291 644.978 79.7728 643.434 79.7728 641.53C79.7728 639.626 78.2291 638.082 76.3249 638.082C74.4206 638.082 72.877 639.626 72.877 641.53C72.877 643.434 74.4206 644.978 76.3249 644.978Z" fill="#E9BBF6" stroke="#C684B9" stroke-width="2.01782" stroke-miterlimit="10"/>
<g id="Group_4">
<path id="Vector_13" d="M53.8503 646.519C56.7415 646.519 59.0854 644.175 59.0854 641.284C59.0854 638.393 56.7415 636.049 53.8503 636.049C50.959 636.049 48.6152 638.393 48.6152 641.284C48.6152 644.175 50.959 646.519 53.8503 646.519Z" fill="#E9BBF6" stroke="#C684B9" stroke-width="2.01782" stroke-miterlimit="10"/>
<path id="Vector_14" d="M53.8497 643.567C55.1097 643.567 56.1311 642.545 56.1311 641.285C56.1311 640.025 55.1097 639.004 53.8497 639.004C52.5898 639.004 51.5684 640.025 51.5684 641.285C51.5684 642.545 52.5898 643.567 53.8497 643.567Z" fill="#E9BBF6" stroke="#C684B9" stroke-width="2.01782" stroke-miterlimit="10"/>
</g>
<path id="Vector_15" d="M120.922 634.063C123.637 634.063 125.838 631.862 125.838 629.147C125.838 626.431 123.637 624.23 120.922 624.23C118.207 624.23 116.006 626.431 116.006 629.147C116.006 631.862 118.207 634.063 120.922 634.063Z" fill="#E9BBF6" stroke="#C684B9" stroke-width="2.01782" stroke-miterlimit="10"/>
<path id="Vector_16" d="M120.924 631.291C122.106 631.291 123.064 630.333 123.064 629.15C123.064 627.968 122.106 627.01 120.924 627.01C119.742 627.01 118.783 627.968 118.783 629.15C118.783 630.333 119.742 631.291 120.924 631.291Z" fill="#E9BBF6" stroke="#C684B9" stroke-width="2.01782" stroke-miterlimit="10"/>
<path id="Vector_17" d="M99.0042 640.698C102.208 640.698 104.805 638.101 104.805 634.897C104.805 631.693 102.208 629.096 99.0042 629.096C95.8004 629.096 93.2031 631.693 93.2031 634.897C93.2031 638.101 95.8004 640.698 99.0042 640.698Z" fill="#E9BBF6" stroke="#C684B9" stroke-width="2.01782" stroke-miterlimit="10"/>
<path id="Vector_18" d="M99.0022 637.416C100.397 637.416 101.528 636.286 101.528 634.891C101.528 633.496 100.397 632.365 99.0022 632.365C97.6073 632.365 96.4766 633.496 96.4766 634.891C96.4766 636.286 97.6073 637.416 99.0022 637.416Z" fill="#E9BBF6" stroke="#C684B9" stroke-width="2.01782" stroke-miterlimit="10"/>
</g>
</g>
<g id="m-1">
<path id="Vector_19" d="M290.665 1123.46C312.217 1088.91 337.053 1020.77 405.021 981.167C453.445 957.706 502.361 931.397 525.746 880.191C565.732 800.147 530.607 691.978 439.757 661.024C392.526 644.934 354.289 649.889 319.631 643.481C301.323 640.096 310.375 668.344 319.99 678.674C349.107 709.964 375.876 695.789 415.856 709.645C459.996 724.942 491.792 775.274 485.451 822.353C479.819 868.068 444.739 896.021 405.859 915.76C337.288 950.572 288.492 1002.11 248.507 1084.39C239.226 1095.95 230.19 1109.41 227.305 1124.31C221.902 1148.12 244.927 1169.89 266.732 1155.17C275.922 1148.95 281.681 1138.82 287.874 1129.64C292.286 1122.94 284.756 1128.99 290.619 1123.5L290.661 1123.46L290.665 1123.46Z" fill="#DB9CF3" stroke="#A7599C" stroke-width="6.05347" stroke-miterlimit="10"/>
<g id="Group_5">
<path id="Vector_20" d="M353.039 693.601C357.025 695.401 361.715 693.63 363.515 689.644C365.316 685.659 363.544 680.968 359.558 679.168C355.573 677.368 350.882 679.139 349.082 683.125C347.282 687.11 349.053 691.801 353.039 693.601Z" fill="#E9BBF6" stroke="#C684B9" stroke-width="2.01782" stroke-miterlimit="10"/>
<path id="Vector_21" d="M354.88 689.526C356.615 690.31 358.657 689.539 359.441 687.803C360.225 686.068 359.454 684.025 357.718 683.242C355.983 682.458 353.941 683.229 353.157 684.964C352.373 686.7 353.144 688.742 354.88 689.526Z" fill="#E9BBF6" stroke="#C684B9" stroke-width="2.01782" stroke-miterlimit="10"/>
<g id="Group_6">
<path id="Vector_22" d="M333.766 681.677C336.401 682.868 339.501 681.696 340.692 679.061C341.882 676.426 340.711 673.326 338.076 672.135C335.441 670.945 332.34 672.116 331.15 674.751C329.96 677.386 331.131 680.487 333.766 681.677Z" fill="#E9BBF6" stroke="#C684B9" stroke-width="2.01782" stroke-miterlimit="10"/>
<path id="Vector_23" d="M334.98 678.988C336.128 679.507 337.48 678.996 337.998 677.848C338.517 676.7 338.007 675.348 336.858 674.83C335.71 674.311 334.359 674.821 333.84 675.97C333.322 677.118 333.832 678.469 334.98 678.988Z" fill="#E9BBF6" stroke="#C684B9" stroke-width="2.01782" stroke-miterlimit="10"/>
</g>
<path id="Vector_24" d="M400.017 697.937C402.491 699.055 405.403 697.955 406.521 695.481C407.638 693.006 406.539 690.095 404.064 688.977C401.59 687.859 398.678 688.959 397.56 691.433C396.443 693.908 397.542 696.82 400.017 697.937Z" fill="#E9BBF6" stroke="#C684B9" stroke-width="2.01782" stroke-miterlimit="10"/>
<path id="Vector_25" d="M401.159 695.41C402.237 695.896 403.504 695.417 403.991 694.34C404.478 693.263 403.999 691.995 402.921 691.508C401.844 691.021 400.576 691.5 400.09 692.578C399.603 693.655 400.082 694.923 401.159 695.41Z" fill="#E9BBF6" stroke="#C684B9" stroke-width="2.01782" stroke-miterlimit="10"/>
<path id="Vector_26" d="M377.31 694.96C380.229 696.278 383.666 694.981 384.984 692.061C386.303 689.141 385.005 685.705 382.086 684.386C379.166 683.067 375.73 684.365 374.411 687.285C373.092 690.205 374.39 693.641 377.31 694.96Z" fill="#E9BBF6" stroke="#C684B9" stroke-width="2.01782" stroke-miterlimit="10"/>
<path id="Vector_27" d="M378.66 691.971C379.931 692.545 381.427 691.98 382.001 690.709C382.575 689.438 382.01 687.942 380.739 687.368C379.468 686.794 377.972 687.359 377.398 688.63C376.824 689.901 377.389 691.397 378.66 691.971Z" fill="#E9BBF6" stroke="#C684B9" stroke-width="2.01782" stroke-miterlimit="10"/>
</g>
</g>
</g>
</svg>
